<mxfile host="app.diagrams.net" modified="2023-10-12T18:14:49.510Z" agent="Mozilla/5.0 (Windows NT 10.0; Win64; x64; rv:109.0) Gecko/20100101 Firefox/118.0" etag="7Jh9jevMZRtNLub6EwFZ" version="22.0.4" type="device">
  <diagram name="Create a Post" id="jE6Rc25_xwndj6v9UQ2V">
    <mxGraphModel dx="2074" dy="1106" grid="1" gridSize="10" guides="1" tooltips="1" connect="1" arrows="1" fold="1" page="1" pageScale="1" pageWidth="827" pageHeight="1169" math="0" shadow="0">
      <root>
        <mxCell id="lZXBPZFwwAsZEzW5uLg--0" />
        <mxCell id="lZXBPZFwwAsZEzW5uLg--1" parent="lZXBPZFwwAsZEzW5uLg--0" />
        <mxCell id="lZXBPZFwwAsZEzW5uLg--2" value="" style="rounded=0;whiteSpace=wrap;html=1;" parent="lZXBPZFwwAsZEzW5uLg--1" vertex="1">
          <mxGeometry x="90" y="90" width="620" height="940" as="geometry" />
        </mxCell>
        <mxCell id="lZXBPZFwwAsZEzW5uLg--3" value="" style="rounded=0;whiteSpace=wrap;html=1;" parent="lZXBPZFwwAsZEzW5uLg--1" vertex="1">
          <mxGeometry x="90" y="90" width="620" height="50" as="geometry" />
        </mxCell>
        <mxCell id="lZXBPZFwwAsZEzW5uLg--4" value="" style="rounded=0;whiteSpace=wrap;html=1;" parent="lZXBPZFwwAsZEzW5uLg--1" vertex="1">
          <mxGeometry x="90" y="140" width="620" height="100" as="geometry" />
        </mxCell>
        <mxCell id="lZXBPZFwwAsZEzW5uLg--5" value="&lt;div&gt;banner&lt;/div&gt;" style="text;html=1;strokeColor=none;fillColor=none;align=center;verticalAlign=middle;whiteSpace=wrap;rounded=0;" parent="lZXBPZFwwAsZEzW5uLg--1" vertex="1">
          <mxGeometry x="80" y="80" width="60" height="30" as="geometry" />
        </mxCell>
        <mxCell id="lZXBPZFwwAsZEzW5uLg--6" value="" style="rounded=0;whiteSpace=wrap;html=1;" parent="lZXBPZFwwAsZEzW5uLg--1" vertex="1">
          <mxGeometry x="440" y="290" width="110" height="180" as="geometry" />
        </mxCell>
        <mxCell id="lZXBPZFwwAsZEzW5uLg--7" value="" style="rounded=0;whiteSpace=wrap;html=1;fillColor=#ffe6cc;strokeColor=#d79b00;strokeWidth=2;" parent="lZXBPZFwwAsZEzW5uLg--1" vertex="1">
          <mxGeometry x="570" y="290" width="110" height="180" as="geometry" />
        </mxCell>
        <mxCell id="lZXBPZFwwAsZEzW5uLg--8" value="footpage" style="rounded=0;whiteSpace=wrap;html=1;" parent="lZXBPZFwwAsZEzW5uLg--1" vertex="1">
          <mxGeometry x="90" y="970" width="620" height="60" as="geometry" />
        </mxCell>
        <mxCell id="lZXBPZFwwAsZEzW5uLg--9" value="" style="ellipse;whiteSpace=wrap;html=1;aspect=fixed;" parent="lZXBPZFwwAsZEzW5uLg--1" vertex="1">
          <mxGeometry x="640" y="100" width="30" height="30" as="geometry" />
        </mxCell>
        <mxCell id="lZXBPZFwwAsZEzW5uLg--10" value="" style="strokeWidth=2;html=1;shape=mxgraph.flowchart.merge_or_storage;whiteSpace=wrap;" parent="lZXBPZFwwAsZEzW5uLg--1" vertex="1">
          <mxGeometry x="680" y="110" width="10" height="10" as="geometry" />
        </mxCell>
        <mxCell id="lZXBPZFwwAsZEzW5uLg--11" value="" style="shape=umlActor;verticalLabelPosition=bottom;verticalAlign=top;html=1;outlineConnect=0;" parent="lZXBPZFwwAsZEzW5uLg--1" vertex="1">
          <mxGeometry x="650" y="105" width="10" height="20" as="geometry" />
        </mxCell>
        <mxCell id="lZXBPZFwwAsZEzW5uLg--12" value="" style="ellipse;whiteSpace=wrap;html=1;aspect=fixed;" parent="lZXBPZFwwAsZEzW5uLg--1" vertex="1">
          <mxGeometry x="568" y="99" width="30" height="30" as="geometry" />
        </mxCell>
        <mxCell id="lZXBPZFwwAsZEzW5uLg--13" value="" style="shape=callout;whiteSpace=wrap;html=1;perimeter=calloutPerimeter;position2=0.5;size=10;position=0.5;" parent="lZXBPZFwwAsZEzW5uLg--1" vertex="1">
          <mxGeometry x="572" y="105" width="20" height="20" as="geometry" />
        </mxCell>
        <mxCell id="lZXBPZFwwAsZEzW5uLg--14" value="" style="rounded=0;whiteSpace=wrap;html=1;" parent="lZXBPZFwwAsZEzW5uLg--1" vertex="1">
          <mxGeometry x="530" y="290" width="20" height="20" as="geometry" />
        </mxCell>
        <mxCell id="lZXBPZFwwAsZEzW5uLg--15" value="" style="verticalLabelPosition=bottom;verticalAlign=top;html=1;shape=mxgraph.basic.heart;fillColor=#f8cecc;strokeColor=#b85450;" parent="lZXBPZFwwAsZEzW5uLg--1" vertex="1">
          <mxGeometry x="530" y="290" width="20" height="20" as="geometry" />
        </mxCell>
        <mxCell id="lZXBPZFwwAsZEzW5uLg--16" value="Logo" style="rounded=1;whiteSpace=wrap;html=1;" parent="lZXBPZFwwAsZEzW5uLg--1" vertex="1">
          <mxGeometry x="110" y="102.5" width="60" height="25" as="geometry" />
        </mxCell>
        <mxCell id="lZXBPZFwwAsZEzW5uLg--17" value="Language" style="rounded=1;whiteSpace=wrap;html=1;" parent="lZXBPZFwwAsZEzW5uLg--1" vertex="1">
          <mxGeometry x="180" y="102.5" width="60" height="25" as="geometry" />
        </mxCell>
        <mxCell id="lZXBPZFwwAsZEzW5uLg--18" value="Currency" style="rounded=1;whiteSpace=wrap;html=1;" parent="lZXBPZFwwAsZEzW5uLg--1" vertex="1">
          <mxGeometry x="250" y="102.5" width="60" height="25" as="geometry" />
        </mxCell>
        <mxCell id="lZXBPZFwwAsZEzW5uLg--19" value="" style="ellipse;whiteSpace=wrap;html=1;aspect=fixed;" parent="lZXBPZFwwAsZEzW5uLg--1" vertex="1">
          <mxGeometry x="603" y="100" width="30" height="30" as="geometry" />
        </mxCell>
        <mxCell id="lZXBPZFwwAsZEzW5uLg--20" value="" style="shape=image;verticalLabelPosition=bottom;labelBackgroundColor=default;verticalAlign=top;aspect=fixed;imageAspect=0;image=data:image/png,iVBORw0KGgoAAAANSUhEUgAABAAAAAQACAYAAAB/HSuDAAAABmJLR0QA/wD/AP+gvaeTAAAgAElEQVR4nOzdeXTdd33n//fnSl4S25A9kJYUElY7YQ9hKzWQBAwkjS1dSbFxm5lpDfTXzrT9HaCdoUVMO11mukxpS4uHDmkhiaWvZQcHSIFQApR9CRCsQClLIQWSkI04iRfp+5k/7JIaL7FsSZ/vvffxOCenp5Rz8mxyZN3v636+328EAAAAAAAAAAAAAAAAAAAAAAAAAAAAAAAAAAAAAAAAAAAAAAAAAAAAAAAAAAAAAAAAAAAAAAAAAAAAAAAAAAAAAAAAAAAAAAAAAAAAAAAAAAAAAAAAAAAAAAAAAAAAAAAAAAAAAAAAAAAAAAAAAAAAAAAAAAAAAAAAAAAAAAAAAAAAAAAAAAAAAAAAAAAAAAAAAAAAAAAAAAAAAAAAAAAAAAAAAAAAAAAAAAAAAAAAAAAAAAAAAAAAAAAAAAAAAAAAAAAAAAAAAAAAAAAAAAAAAAAAAAAAAAAAAAAAAAAAAAAAAAAAAAAAAAAAAAAAAAAAAAAAAAAAAAAAAAAAAAAAAAAAAAAAAAAAAAAAAAAAAAAAAAAAAAAAAAAAAAAAAAAAAAAAAAAAAAAAAAAAAAAAAAAAAAAAAAAAAAAAAAAAAAAAAAAAAAAAAAAAAAAAAAAAAAAAAAAAAAAAAAAAAAAAAAAAAAAAAAAAAAAAAAAAAAAAAAAAAAAAAAAAAABAGal0AAAwa9KaNWvO7O/vf1zO+XEppcfnnJ8QEadFxKKIOD4ilkbEgn3//T0RsSMi7o+IXRFxW0rpqznnf0opfS3n/E9VVX0nInKB/18AgFlmAACADrVhw4YFd9111/kppeflnC+IiOdExJJZ/tvcFxGfSCldn3P+2IknnvipjRs37pnlvwcAMA8MAADQQUZHR1vbt2//6YhYGxGXxt5v9+fTrTnnrRFx1TnnnPOx0dHRep7//gDAUTIAAEAHGBgYWNFqtX4+IkYi4lGle/b5dkppU875b6uqmiwdAwAcngEAAJorDQ0NvSLn/PqIeF7pmIfwsZTSH46Pj787PDMAABrJAAAADTQ4OPizKaXfiIhnl26ZoY+nlP5gfHz82tIhAMD+DAAA0CDtdvvciHhLRDy/dMsx+mir1fqlsbGxL5cOAQD2MgAAQAOsW7fuYbt27fqdlNIvRUR/6Z5ZMpVzfsvu3bvfsG3btntLxwBArzMAAEBhw8PDz67r+p0RcXbpljnytVartW5sbOwzpUMAoJcZAACgkA0bNiy48847/yil9CvR/b+Tp1NKv5tz/p2qqqZLxwBAL+r2DxsA0EgjIyNnTE9PvyMiXlS6ZZ59ICJ+rqqq75cOAYBeYwAAgHnWbrefERHviYjTS7cU8v26rl82MTFxY+kQAOglrdIBANBL2u32SyPihujdi/+IiEe0Wq2PDA4OXlQ6BAB6iQEAAObJ4ODgSES8KyKWlm5pgKUppWvb7fZw6RAA6BVuAQCAeTA0NHRpznlzRPSVbmmYqZTSmvHx8WtLhwBAtzMAAMAcGxwcvCil9O6IWFC6paF2R8Qrqqr6QOkQAOhmBgAAmEPDw8NPr+v6hohYVrql4X5Y1/VKDwYEgLljAACAOdJut38iIj4VET9RuqVDfCcinuUVgQAwNzwEEADmwIYNGxZExJZw8T8Tj4qI8Xa77TkJADAHDAAAMAfuuuuuN0bEs0p3dKCfTin9VukIAOhGbgEAgFk2NDR0Qc75fWFoP1p1RFxYVdU/lA4BgG5iAACAWXTJJZcsW7Ro0Zcj4szSLR3uW4sXLz7nHe94x32lQwCgW/hmAgBm0cKFC383XPzPhkfv2rXrTaUjAKCbOAEAALNkYGDgaa1W6zMR4SF2s2Oq1Wo9c2xs7IulQwCgGzgBAACzYHR0tNVqtd4aLv5nU39d138RvrAAgFnhQwoAzIJTTjllMKX0q6U7utCZK1as+OLk5ORXSocAQKdzAgAAjl3y6ro59cZwCgAAjpkBAACOUbvdfllEnFu6o4s9pd1uv6R0BAB0OgMAABy715cO6AH+GQPAMXKcDgCOwfDw8Hl1XX+6dEePeGZVVZ8rHQEAncoJAAA4BtPT079YuqFX5Jx/oXQDAHQyJwAA4CitWrVq0dKlS78XESeWbukRd0bEI6uq2l06BAA6kRMAAHCUli5d+rJw8T+fTkopeRggABwlAwAAHL11pQN60NrSAQDQqdwCAABHYd/x/zsj4vjSLT3m3hNPPPHkjRs37ikdAgCdxgkAADgKS5cufXa4+C9h2d133/2s0hEA0IkMAABwFHLOK0s39Cr/7AHg6BgAAOAopJR+pnRDD/PPHgCOgmcAAMAMtdvthRFxV7gFoJQdJ5544kmeAwAAM+MEAADMUF3XTwwX/yUtveOOOx5fOgIAOo0BAABmqK+v73GlG3qdfwcAMHMGAACYobqufftcmH8HADBzBgAAmKFWq+Xb58L8OwCAmTMAAMAM5ZzPLt3Q63LOjy3dAACdxgAAADP3yNIBxCNKBwBApzEAAMDMLS0dQCwrHQAAncYAAAAzZwAoz78DAJghAwAAzEyKiCWlI4ilsfffBQBwhAwAADAD69evPz78/myCvosvvvi40hEA0El8gAGAGZienl5YuoG9li1btqh0AwB0EgMAAAAA9AADAAAAAPQAAwAAAAD0AAMAAAAA9AADAAAAAPQAAwAAAAD0AAMAAAAA9AADAAAAAPQAAwAAAAD0AAMAAAAA9AADAAAAAPQAAwAAAAD0AAMAAAAA9AADAAAAAPQAAwAAAAD0AAMAAAAA9AADAAAAAPQAAwAAAAD0AAMAAAAA9AADAAAAAPQAAwAAAAD0AAMAAAAA9AADAAAAAPQAAwAAAAD0AAMAAAAA9AADAAAAAPQAAwAAHKENGzYs2LVr1xmlO9hr165dZ2zYsGFB6Q4A6BSpdAAANMGGDRsW3HPPPWfmnH8iIs6s6/qMVqv1kznnR0XEGRHxqIg4PYznTVNHxK0R8Z2I+G7O+dsR8a/7/vp2X1/fdx/+8Id/e+PGjXtKRgJAExgAAOgZl1566QkLFiw4JyKW55zParVaZ+Wcz4qIsyLixMJ5zK27IuIbKaVv1HX9jYiYTCltj4h/rqrqnsJtADAvDAAAdJ3Vq1efvGDBghWx90J/RUQ8KSIeF3u/xfe7j3+vjohbIuJrOeftETEZ+8aBqqruLJsGALPLhyAAOla73X54SukpEbG8rutzUkpPiogVsfeoPhyr70fE9pTSZF3X21NK2xcuXPilK6+88oelwwDgaBgAAOgEaWBgYHlK6RkR8YyU0vLYe6H/yMJd9KbvRcTn/u3EQM75cxMTE5MRkQt3AcBhGQAAaJx2u31SSunZOefzI+LpEfG0iPiJwllwON+JiBtzzp9PKX1qz549n7zmmmvuLh0FAP+eAQCAoi6//PLF99133zNTSs/LOT8/Ip4RvtmnO3wvIj6XUvrHnPPHduzY8ZnrrrtuV+koAHqXAQCAedVut4/b9+3+yoh4XkQ8KyKWla2CeXFPRHwyIj6ec/5QSulTVVXtLh0FQO8wAAAwpy699NIT+vv7L4yI56eUnhcRT42IvsJZ0ARTEfHFnPP1rVbrYwsWLPiwBwwCMJcMAADMqna73ddqtc7LOV+Yc35hRDw7Io4r3QUd4L6I+FhEfCgiPrBixYobR0dH68JNAHQRAwAAx6zdbj8jpXRBzvmCiHhuRBxfugm6wH0R8YmU0vUppW1jY2M3lw4CoLMZAACYsX338b+wruuXpJQuiognlm6CLpcj4qaIeF9K6f055494fgAAM2UAAOCIrFmz5pF9fX1DEdGOiPMjor9wEvSyByLigznnampqaptXDgJwJAwAABzSwMDA4/r6+tbknC+OiOdERKt0E3CA6dj7doGqr6+v2rRp03dLBwHQTAYAAPYzMjJyxvT0dDv2ftPvoh86y1REfDgixqempia2bt16R+kgAJrDAABAjIyMnFHX9fqc889FxPLSPcCsqCPiExFRTU1NXb1169bbSgcBUJYBAKBHXXbZZadPTU2NhG/6oRdMR8SHcs7vWLRo0TVXXnnlD0sHATD/DAAAvSUNDg7+TKvV+oWc80BELC4dBMy7eyLiqlar9baxsbHPl44BYP4YAAB6wMDAwFkppQ0ppfURcUbpHqAxvppSevuePXve7hYBgO5nAADoUu12uy/nvCql9AsR8fLw2j7g0O7POVcppbdVVfWPpWMAmBsGAIAuMzIy8uipqalXp5Quj4jTS/cAHefrKaX/09fX9zdXX331D0rHADB7DAAAXWDft/1rUkobIuJF4YF+wLHblVLaFhEbx8fHry8dA8CxMwAAdLB2u/3wiFgfEa8Jr+8D5s5Hc85vSSltqapqd+kYAI6OAQCgAw0PDz++rus3RMRQRCwq3QP0jB+klP5yz549f75169Y7SscAMDMGAIAO0m63nxURvxURLwvH/IFy7ss5/01K6Y+rqvp26RgAjowBAKD50tDQ0Ctyzq+PiOeVjgH4d/ZExKa6rv9wYmJie+kYAA7PAADQYENDQxfknH87In66dAvAYUynlKqc8+9UVTVZOgaAgzMAADRPGhwcHEwpvSEinlw6BmCGrq/r+jcnJiY+WzoEgP0ZAACa498u/H8rIs4tHQNwjAwBAA1jAABogHa7fWFEvCkinlO6BWAW1TnnsZTSm6qq+mrpGIBeZwAAKGhwcHBlSukPIuL80i0Ac6hOKU1MT0//xsTExDdKxwD0KgMAQAHtdvupEfG/IuKC0i0A82h3RFzR39//21dfffWtpWMAeo0BAGAeDQ8Pn51z/v2c80BEtEr3ABSyI+f8l4sWLfq9K6+88oelYwB6hQEAYB5cfPHFxx933HGvyzm/NiKOL90D0BD/knN+7ebNm6vSIQC9wAAAMIdGR0db27dv/4WIGI2IRxbOAWiqz7ZarV8ZGxv7ZOkQgG5mAACYI+12+zkR8eaIeGbpFoAOkCPinf39/a/1fACAuWEAAJhl7Xb7pJTS7+ScXxURfaV7ADrM7Sml/7Z8+fK/GR0drUvHAHQTAwDALNl33P9XYu9x/xMK5wB0ui/Vdb1hYmLiU6VDALqFAQBgFgwPD59T1/VbI+K5pVsAukgdEW9buHDha70tAODYGQAAjsH69euXPPDAA7+XUvqliOgv3QPQpb4bEf+lqqrNpUMAOpkBAOAoDQ4O/nRK6a0R8aTSLQA94qqpqalf27p1622lQwA6kQEAYIYuueSSZYsWLfqjiPjF8OcowHy7JyJeV1XVxtIhAJ3GB1eAGRgcHFyZUnp7RDy6dAtAj9vc39//mquvvvoHpUMAOoUBAOAIrF+/fsnOnTv/JHzrD9Akt+acX7V58+Z3lQ4B6AQ+xAI8hIGBgSe3Wq2/i4inlG4B4AA5Iv5y586dr7/22mvvLx0D0GR9pQMAmmp0dLR12mmnvTGl9M6IOKN0DwAHlSLiWf39/evOPffcT23fvv2W0kEATeUEAMBBjIyMnDE9Pf2OiHhR6RYAjtielNLvLV++/L+Pjo7WpWMAmsYAAPBjBgcHX5FS+r8RcWrpFgCOygci4ueqqvp+6RCAJjEAAOyzatWqRUuWLPmfKaVfCX8+AnS6W1NKPz8+Pv6+0iEATeEZAACx98j/ggULrk0ptcPFP0A3WBoRI+ecc86O7du3f7J0DEAT+JAL9Lx2u/3SiHhnRJxcugWAOfGeBQsWrL/qqqvuKh0CUJITAEDPGh0dbZ1yyim/n1J6S0QcX7oHgDnz+LquB1asWHHD5OTkbaVjAEpxAgDoSe12+6SIeEdEvKx0CwDzZmdEvKaqqitKhwCU4AQA0HMGBgaemFK6PiKeXboFgHnVHxE/u3z58oVDQ0M33HDDDbl0EMB8cgIA6ClDQ0OX5pzfEXsfDgVA73rfnj17Rq655pq7S4cAzJdW6QCAeZKGhoZGc85bwsU/ABEvWbBgwaeGh4cfXzoEYL44AQB0vXa7fVxEvD0ihku3ANA4d6SU2uPj4x8qHQIw1zwDAOhql1122Sl1XV8bES8v3QJAIx0fEcMrVqz45uTk5E2lYwDmkgEA6FoDAwNPzDl/OCKeUroFgEbrj4iB5cuXHzc5OfnB0jEAc8UtAEBXGhoaekHO+ZqIOLF0CwCdI+f8tyeddNIvbty4cU/pFoDZZgAAuk673R6OiL+NiEWlWwDoSB/YtWvXwLZt2+4tHQIwm7wFAOgqg4ODr4uIq8PFPwBH78JFixZ9cPXq1aeVDgGYTU4AAF1j32v+3li6A4Cusb2vr++iTZs2fbd0CMBsMAAAHW90dLQ1OTn5lpzzq0q3ANB1vh0RL66q6p9LhwAcKwMA0NFWrlzZf9ppp12Rc15XugWArvX9uq4vmJiY2F46BOBYeA0g0LE2bNiwIKV0ZURcVroFgK62NKU0+KQnPen9N998862lYwCOlhMAQEe6/PLLF993332bI+LlpVsA6Bl3RcRLq6r6dOkQgKNhAAA6TrvdXhgR4xHxs6VbAOg5P6jr+sUTExNfKh0CMFNeAwh0lMsvv3xxRGwLF/8AlHFKq9X68MDAwDNLhwDMlBMAQMfYd+x/a0S8tHQLAD3v7oi4oKqqz5UOAThSBgCgI7j4B6CBbo+9rwi8qXQIwJFwCwDQeKtWrVp03333bQkX/wA0y6kR8cGBgYEVpUMAjoQBAGi00dHR1tKlS/9vRKwq3QIAB3Fqq9W6bmRk5FGlQwAeigEAaLI0OTn59ohYWzoEAA7jUdPT0x9as2bNI0uHAByOAQBorKGhoT/LOf9c6Q4AOAJn9/X1vW/t2rUnlg4BOBQDANBIQ0ND/zXn/CulOwBgBs7ds2fPe9evX7+kdAjAwRgAgMYZHBz81Zzz/yjdAQBH4dk7d+4c27Bhw4LSIQA/zgAANMrg4OArUkp/VLoDAI7By++6664/Kx0B8OP6SgcA/JvBwcHnppTeHRELS7cAwDE6b8WKFVOTk5MfLR0C8G8MAEAjDA8PPz4iro+Ih5VuAYBZ8sIVK1Z8Y3Jy8kulQwAiIlLpAIDVq1ef1t/f/4mIOKt0CwDMst0ppZeOj49/qHQIgGcAAEWtX79+SX9//7vDxT8A3Wlhznlzu91+QukQAAMAUNQDDzzw1xFxXukOAJhDJ0XE1nXr1rnNDSjKAAAUMzQ09FsppVeW7gCAefCk3bt3b263257BBRRjAACKGBoaGso5v6l0BwDMowsj4vdLRwC9ywIJzLuBgYEnp5TeFRGLSrcAwDx73vLly789OTn5hdIhQO/xFgBgXrXb7VMj4jMR8VOlWwCgkJ2tVusFY2NjnykdAvQWtwAA82Z0dLQVEe8MF/8A9LbFdV2Ptdvtk0qHAL3FAADMm8nJyd+PiItKdwBAAzwmIioPBQTmkwEAmBeDg4Nrcs6vLd0BAA3yooj4b6UjgN7hGQDAnBseHj67ruvPRsQJpVsAoGHqnPOqzZs3v790CND9DADAnLr44ouPX7x48Sci4smlWwCgoW6LiKdXVfWvpUOA7uYWAGBOLV68+I/CxT8AHM5pEfG3ngcAzDUDADBnhoaGXhkRryndAQAd4MU55zeWjgC6m1sAgDnRbrefEBGfjYilpVsAoEPUEXFhVVX/UDoE6E4GAGDWrVy5sv/UU0/9SEQ8p3QL9Ig6Iu45gv/sYFIc/AGdJx5rFHBUvhkRT6uq6kh+fgFmpL90ANB9TjnllDeFi384lAci4vaI+G5E7Egp3RURO/7dX/fknH+47/92b0TsyDnv998pdWFw6aWXntBqtZamlJZGxNK+vr4Tcs7LImJpSmlJRDy8ruuHxd6TP0tbrdaynPMJ+/730/f9taREO3SQx6SU/joiLisdAnQfJwCAWTU4OPjilNL7wzNG6C33RcT3I+LWiLg95/y9Vqt1a0TcXtf191JKt0XE7bt27frutm3b7i1aWtj69euX3H///ae3Wq3TI+LUiHhESun0iDi1ruvTU0qP2Pefnx4RJ5VshcL+Q1VVV5SOALqLAQCYNatXrz65v7//SxFxRukWmAO3RcQ/R8TXc85fb7VaX885f31qaurrW7duva10XDdqt9tLW63W2dPT02e3Wq2z6ro+O6V0dkScFRE/FU4y0t12tFqtp46NjX29dAjQPQwAwKwZHBwcSykNle6AY3BHRHwpIr727y/yd+3a9fVe/+a+aVauXNl/+umn/1Rd12ellM7OOZ8VEWdHxDn7/qfXqdENPrpixYqVo6OjdekQoDsYAIBZMTQ0dFnO+arSHXCE9kTEZOy92L8ppfSlVqt106ZNm75buItZ0G63j4uI5RFxbs55RUrpyRHx1Nj7rnXoKCmlXx8fH//T0h1AdzAAAMdsZGTkjOnp6ZvC/bo0086I+GLO+caU0o11XX/+/vvvv+m6667bVTqM+bXvz6qn5ZyfllJ6WkQ8PSIeXTgLHsoDdV0/fWJi4iulQ4DOZwAAjlVqt9vXR8SLSodAROSIuDki/jHn/LGc8+dardZXqqqaLh1GM11yySXLFi1a9JSU0vNyzs+PiGdHxCmlu+DH3HjiiSeev3Hjxj2lQ4DOZgAAjsng4OCr9r2uCEr5XkRcn3O+vq7rf9iyZcstpYPoXCtXruw/+eSTn5pSelFK6YKIeH5EHFe6CyLiN6uq+oPSEUBnMwAAR63dbp8ZEV+OiGWlW+gpD0TEDTnn9/f19V0/Njb25dJBdK9Vq1YtWrZs2XPrur4gpXRR7L1twGtOKWFXRDylqqqvlg4BOpcBADhaqd1ufzAiXlg6hK6XI+LzOefrU0rvjohPONJPKevXr1+ya9euF+WcXxERL4uInyzdRE/51IoVK57rrQDA0TIAAEel3W6vjYgrS3fQ1T6fUppIKW0dGxu7uXQM/Lh2u92XUnp2RKzOOa+JiMeUbqL7pZQ2jI+P/5/SHUBnMgAAM3bZZZedMjU1NRkRp5ZuoavkiPhkznkipbSlqqpvlg6CmRgYGHhaSml1SmlNRKwo3UPXujsinlRV1fdLhwCdp790ANB5pqam/iJc/DM7ckR8PCL+bmpqamLr1q13lA6CozUxMXFjRNwYEb+9Zs2an+rr67s0ItZHxDPKltFlToiIt0XEK0qHAJ3HCQBgRoaGhl6Sc/770h10vFtSSlfknK+uqmqydAzMpeHh4fOmp6cvSym9MoynzJKc88WbN29+d+kOoLMYAIAjtn79+iU7d+6cjIgzS7fQkfaklK6JiI3j4+MfjL3f/kPPGB0dbU1OTr4oIjbknFeHk5gcm1ti760AO0qHAJ3DLx7giO3cufN14eKfmbstIv5P7L3w/3bpGChl35Pbr4+I64eHh8+enp7+xZTSf4qIUwqn0Zl+Muf8uoj47dIhQOdwAgA4IsPDw0+q6/oLEbGwdAsd4/qU0puXL1/+Hq+sgoPbsGHDgjvvvPPSlNKGiLigdA8dZ3dd10+ZmJj4SukQoDMYAIAj0m633xcRF5XuoPHqiLgm5/zHmzdv/njpGOgkg4ODz00p/XpErI6IVukeOsZ7q6p6eekIoDMYAICHNDg4uC6l9M7SHTTarpzzW1NK/9vr++DYjIyMPHpqaurX9p0KWFy6h+bLOQ9t3ry5Kt0BNJ8BADisdru9NCK+EhE/UbqFRpqOiKsi4n9UVfXV0jHQTYaHh8/OOf9GzvnnI2JB6R4a7VsRsbyqqgdKhwDN1lc6AGi2FStW/G5EvLR0B40zHRFvm56ebk9MTFwxOTl5R+kg6Dbbt2+/a/v27dc+8YlPfHtKqT+l9NTwAGcO7oSU0tT27dtvKB0CNJsTAMAhDQwMnNVqtbaHI6js7711Xb9hYmLixtIh0EsGBgae2Gq1RiOiHZ4RwIF29PX1PWHTpk3fLR0CNJdfHsAhtVqt/x0u/nnQx1qt1rOqqnq5i3+YfxMTE1+pqmqkrusVEfHu0j00ztK6rv9n6Qig2ZwAAA6q3W6/NCKuK91BI/xLzvm1mzdv3hwRuXQMsNfQ0NAFOec/iYhzS7fQGDkiXlBV1T+WDgGayQkA4ADtdrsvInyLwFTO+U8XLlz45H1Pl3bxDw0yPj5+fUQ8MyJeFxH3Fc6hGVJE/EH4kg84BH84AAcYGhp6dc75r0p3UNRn6rp+laP+0Bna7faZEfHnEXFJ6RbK81pA4FAMAMB+9r3272sR8YjSLRTxw4j4bxHxV1VVTZeOAWZmcHDwZ1NKb46IM0u3UNQ/3X777StuuOGGqdIhQLO4BQDYT0rp9eHiv1e9q7+///FVVf2Fi3/oTJs3b35XRDwx5/yHEVGX7qGYx5922mmvKh0BNI8TAMCPrFmz5if7+vr+KSKOK93CvLor5/wqx0WhuwwODj43pfT2iHh86RaKuH3Xrl1nb9u27d7SIUBzOAEA/Eh/f/9vhov/XvPJiHiWi3/oPps3b/54RDwrIq4onEIZpy5evPiXSkcAzeIEABAREQMDAytardYXI6KvdAvzYk9EvLaqqjeHp/tD1xscHLwopXRFRDyydAvz6t6pqanHbt269bbSIUAzOAEAREREX1/fG8PFf6+4JSIurKrqz8LFP/SEzZs3v7+vr+/8iPhw6Rbm1bIFCxb8aukIoDmcAABiYGDgya1W68YwCvaC6yLilVVV3Vk6BJh/7Xa7L+f8hpTSb4c/83vFjv7+/sdcffXVPygdApTn2z4gzjnnnLdFxBNKdzCn6pTSb1ZV9f9NTk4+UDoGKGNycjJPTk5+eMWKFR+OiJdFxJLSTcy5hdPT063JyckPlA4BynMCAHrcwMDA+a1W65OlO5hTd6eU1o2Pj7+3dAjQHCMjI4+anp6eiIjzSrcw5+7v7+8/6+qrr761dAhQlqNf0ONardYbSjcwp77TarVWuvgHftymTZu+ExEvioh3lW5hzh2/Z8+eXysdAZTnBAD0sKGhoRfknD0Qqnt9ZGpqas3WrVvvKB0CNFoaGhp6Xc7598Nnw0U1kroAACAASURBVG62s6+v7+xNmzZ9t3QIUI4TANDDcs6/WbqBObN1586dq1z8A0cgj4+P/2FE/GLsfUUo3Wnx9PT0r5SOAMoyAECParfbz4qIl5buYPallP58xYoVg9dee+39pVuAzlFV1d/knFdFxI7SLcyZ16xbt+5hpSOAcgwA0LtGSwcw+1JKvzE+Pv6fR0dH69ItQOfZvHnzB1ut1nMiwjHx7vTwPXv2/HLpCKAc93lBDxoeHj6vrutPl+5gVtUR8ctVVf1V6RCg8w0MDJzVarU+EBFnlW5h1t0WEY+uqsorYaEHOQEAPaiu69eXbmBW5XDxD8yiiYmJb9R1fWFEfKt0C7PutJzzutIRQBlOAECPGR4efkpd1zeGn/9uUUfEf6qq6orSIUD3abfbj4iID0bE8tItzKpvRMTjq6qaLh0CzC8nAKDH1HX9unDx3y1yzvmXXPwDc6Wqqu9HxKrYe8FI9zgrIi4pHQHMPwMA9JCRkZFHR8RQ6Q5mRc45v2bz5s1vLR0CdLeqqr7d19e3MiK+XrqFWeV2QOhBBgDoIXVdvzYi+kt3cOxyzr/s4h+YL5s2bfpORPxMRHyzdAuz5vzBwcEXl44A5pcBAHpEu90+Ned8eekOjl1K6U2bN29+S+kOoLdUVfWvrVbrwoj4XukWZkdKySkA6DEGAOgROedfiojjS3dwbHLOfzo+Pj5augPoTWNjY1+PiJdExJ2lW5gVF7bb7WeUjgDmjwEAesDll1++OKX06tIdHLNrU0qvLR0B9Laqqm6KiHZE7C7dwrHLOf9q6QZg/hgAoAfs2LHjlRHxiNIdHJPPR8Rar2wCmqCqqn9IKW2IiFy6hWOTUhpes2bNT5XuAOaHAQC6X0op/XrpCI7JP/f397+kqqodpUMA/s34+PjfppTeULqDY7agr6/vP5eOAOaHd4FDlxscHFyZUvpQ6Q6O2o5Wq/X8sbGxL5YOATiINDQ09I6c87rSIRyTHyxZsuRRV1xxxc7SIcDccgIAulxK6b+UbuCo1SmltS7+gQbLJ5xwwn+IiI+WDuGYnLJjx47LSkcAc88AAF2s3W4/JiIuLt3BUfvd8fHxa0tHABzOxo0b90TEUETcUrqFo5dSek3pBmDuGQCgu22IiL7SERyVd69YseJNpSMAjkRVVd9vtVrtiNhVuoWjdt7w8PB5pSOAueXCALrUqlWrFi1cuPBvI2Jp6RZm7NsR8dK3vOUt95cOAThS27dvv+Wcc875YUSsKt3CUUvbt2938gy6mBMA0KWWLVs2EhGnl+5gxnbXdT1QVdWdpUMAZmp8fPzNOed3lu7g6OSc161evfrk0h3A3DEAQJfKOXulTwfKOf/XiYmJz5buADha++4l/0rpDo7KcX19fZeXjgDmjgEAutDAwMD5EfH00h3M2Ls2b978J6UjAI5FVVU7Yu9DAR8o3cLMpZReMzo66hoBupQfbuhCrVbr1aUbmLHbI+LVEZFLhwAcq6qqboqIN5bu4Kic/eUvf/mFpSOAuWEAgC5z2WWXnR4Ra0t3MCM5pbS+qqrvlw4BmC1VVf1RRLyndAczl1L65dINwNwwAECXmZqa+oWIWFi6gyOXUto4Pj7+vtIdALMsT01N/ceIuLV0CDN28Zo1a36qdAQw+wwA0EX23bP3C6U7mJFv7ty587WlIwDmwtatW29LKXkobefpa7Val5eOAGafAQC6yPbt2y+KiEeX7uCI1RGxbtu2bfeWDgGYK+Pj4+MppStLdzAzKaX/6GGA0H38UEMXSSn9fOkGjlzOeWNVVZ8o3QEw1/bs2fNfIuK20h3MyJnbt29fWToCmF0GAOgSa9euPTHnfGnpDo7YLYsWLXp96QiA+bB169Y7IuLXSncwY+tLBwCzywAAXWJqamo4IhaX7uCIvfrKK6/8YekIgPlSVdVVEbGtdAcz0m6320tLRwCzxwAAXSLn/MrSDRyx91ZV5dVYQM9ptVq/HhE7S3dwxJaklC4uHQHMHgMAdIHh4eEnRcTzSndwRO6LiNeUjgAoYWxs7Os55/9euoMjl3P+D6UbgNljAIAuUNf1z5Vu4Ij9flVV3y4dAVBKSumPI+Lm0h0csRePjIw8qnQEMDsMANDh2u12X0QYADrDVyLif5WOACipqqrdKaVXR0Qu3cIRaU1PT68rHQHMDgMAdL4XRcQZpSN4aCml36yqanfpDoDSxsfHPxIR7yrdwRFbWzoAmB0GAOhwKaX/WLqBI/Kh8fHxa0pHADRFXdf/f0QYRTvDucPDw+eVjgCOnQEAOtjatWtPzDlfWrqDh5Qj4jdKRwA0ycTExDciYmPpDo5Mznl96Qbg2BkAoINNTU0NR8Ti0h08pC1VVX26dARAA/33iPhh6QgeWs557apVqxaV7gCOjQEAOljO+ZWlG3hI03Vdv7F0BEATVVV1e0T879IdHJGTlyxZcmHpCODYGACgQw0PD58dEc8r3cHhpZTeNjExsb10B0CD/UFE3FI6goeWUrqsdANwbAwA0KFyzoOlG3hI901NTb2pdARAk1VV9UBE/E7pDo7Ixe12+7jSEcDRMwBAh8o5D5Vu4PBSSn+6ZcuW75XuAOgAfxMRTks137Kc80WlI4CjZwCADjQwMHBWRDytdAeHdWd/f/+flI4A6ARVVU1HxGjpDh5aq9VaU7oBOHoGAOhArVbrsohIpTs4tJTSH1911VV3le4A6BRVVW2OiM+V7uDwcs6rL7/8cm8ggg5lAIDO5Ph/s929YMGCvygdAdBpcs5/WLqBh7Ts/vvv9zYA6FAGAOgw7XZ7eUQ8uXQHh5ZzfuuVV17pvdYAM3TOOedMRMRk6Q4ekgcRQ4cyAECHyTm3SzdwWA8sWLDgT0tHAHSi0dHROuf8R6U7OLyc8yWrVq1aVLoDmDkDAHSYlNJI6QYOLaX09quvvvrW0h0Aneqkk056Z0R8q3QHh3XC0qVLLygdAcycAQA6yPDw8DkR8cTSHRzSlG+uAI7Nxo0b90TEH5fu4CG5DQA6kAEAOsj09LSH/zVYznlTVVXfLN0B0OmWLFnytoj4XukODuvSdru9sHQEMDMGAOggKaXh0g0cUt3X1/d7pSMAusEVV1yxMyLeXLqDwzoh5/zi0hHAzBgAoEO02+1zI+LxpTs4pL8fGxu7uXQEQLfYs2fPX0eEN6o02+rSAcDMGACgQ+Sc15Ru4LDcrwowi6655pq7I+JtpTs4tJTSJaOjo64noIP4gYUOkVK6tHQDh3RTVVX/UDoCoNtMT0+/OSKmS3dwSKd/+ctffnbpCODIGQCgA4yMjDw6Ip5auoODSym9tXQDQDfasmXLv0TE35fu4LBeXjoAOHIGAOgAdV375dpcP9y5c+fflY4A6FYppbeUbuDQUkqvKN0AHDkDAHSAnPPFpRs4pCu3bdt2b+kIgG41Pj5+XUR8rXQHh/TkfScVgQ5gAICGW7du3cMi4oWlOzi4uq7/unQDQJfLKaWNpSM4NCcVoXMYAKDhdu/efVFELCzdwUH948TExJdKRwB0u/7+/r+JiPtLd3BwOWcDAHQIAwA0XErJ8f/m+qvSAQC94KqrrrorpTRWuoNDelG73V5aOgJ4aAYAaLCVK1f255w9XKeZbo2IzaUjAHrF9PT0n5du4JAW5ZxfXDoCeGgGAGiw00477fyIOKl0Bwf1d1VV7S4dAdArJiYmboyIz5Xu4OBardaq0g3AQzMAQIPVdX1p6QYOKkeEB1IBzLOU0ttKN3BwOedLIiKV7gAOzwAADZZSMgA006erqvrn0hEAvaa/v38sInaV7uCgHjkwMPCM0hHA4RkAoKHa7fYTIuKxpTs4UErpHaUbAHrRVVdddVdEvKd0BwfX19fnuUXQcAYAaKiU0stKN3BQU3v27KlKRwD0qpTSVaUbOLic80tKNwCHZwCAhso5v7R0Awf13q1bt95WOgKgV+Wcr42IH5Tu4KDOa7fbHl4MDWYAgAZqt9vHRcQLSndwUI7/AxRUVdXulNJ46Q4Oqi+l9MLSEcChGQCgmZ4fEYtLR3CAu5csWfLu0hEAvc6zWJqrrusLSjcAh2YAgGa6sHQAB8o5V1dcccXO0h0AvW5sbOyTEfHV0h0cKKVkAIAGMwBAM11UOoADtVqtd5ZuAGCvlNKVpRs4qMe22+3HlI4ADs4AAA2zZs2aR0bEk0t3cIBvjo+Pf7R0BAB7TU1N/V1E5NIdHCjn/OLSDcDBGQCgYfr6+l4YEal0B/vLOU+ED5oAjbFly5Z/iYjPlu7gQB4ECM1lAICGSSl5h24D5Zw3l24A4ABV6QAO6qLR0VHXGdBAfjChWVLO2f3/zfOdiYmJT5eOAOAAxtlmOmX79u1uZ4QGMgBAg7Tb7XMi4hGlO9hfSumacPwfoHGqqvpmRHyhdAcH8jYAaCYDADSIb/8ba2vpAAAObt8zWmgYDwKEZjIAQIOklC4s3cABbss5f6R0BAAHl1LaUrqBg3rBqlWrFpWOAPZnAICGaLfbx0XEz5TuYH8ppW1VVU2X7gDg4KqqmoyIm0t3cIDjlyxZ8pzSEcD+DADQHM+KiMWlIzjAttIBADykd5UO4ECtVmtl6QZgfwYAaAjvzG2ke+699973l44A4PDquh4v3cCBcs5ONkLDGACgIfySbKT3XHfddbtKRwBweBMTEzdGxDdKd3CAZ19++eVON0KDGACgAfY9JOf80h0cwPF/gA6RUvJndvMs3rFjx9NLRwAPMgBAAyxbtuz8iDiudAf72b1r1673lo4A4MjUde05AA3kOQDQLAYAaAbH/5vn49u2bbu3dAQAR+akk076WETcU7qD/eWcf7p0A/AgAwA0gPv/myel9PelGwA4chs3btwTEf9QuoMDPH/lypX9pSOAvQwAUNi++/+9J7dhpqenryvdAMDMpJT82d08S08++eSnlo4A9jIAQGHLli17ZkQcX7qD/fzrxMTETaUjAJiZqamp6yIil+5gf61W6wWlG4C9DABQnuP/DZNzfl/4AAnQcbZs2XJLRGwv3cEBPAcAGsIAAIW5/795HCEF6Gj+DG+eF4yOjrrugAbwgwgFbdiwYUFEPLd0B/vZs3DhwveXjgDg6BhxG+mkm2++eXnpCMAAAEXdc889z4iIpaU72M8nr7zyyh+WjgDg6Jxwwgn/GF4H2DjT09OeAwANYACAguq6dk9cw+ScffsP0MH2vQ7ww6U72F9K6XmlGwADAJRmAGiYnPN7SjcAcGxSSu8u3cABnl86ADAAQGnnlw5gP3ece+65XywdAcCxmZ6e/mDpBg5wZrvdfkTpCOh1BgAoZGBg4HERcVrpDvbzodHR0bp0BADHZmJi4hsR8a3SHRzgOaUDoNcZAKCQlJJfgg2TUrqhdAMAsyOl9KHSDewv5+zkIxRmAIByDAANMz09fUPpBgBmR87ZANAwKaVnl26AXmcAgEKcAGicWycmJiZLRwAwO6anpw0AzXPeypUr+0tHQC8zAEAB69ate1hEnFu6gwflnD8cEbl0BwCzY8uWLbdExD+X7mA/x5966qnnlI6AXmYAgAJ27dp1Xvj5axT3/wN0H7cBNI/bAKAsFyBQhuP/DdNqtW4o3QDA7Gq1WgaAhvEgQCjLAAAFuP+/cb4/Njb2ldIRAMyuqampG8LtXU3jBAAUZACAeTY6OtoKJwAaZd/xfx8QAbrMli1bvhcRXy3dwX6esHbt2hNLR0CvMgDAPLvpppseHxF+8TVIXdc3lG4AYM64DaBZ0tTU1LNKR0CvMgDAPOvr63PvW8P09fV9pHQDAHPmw6UD2F9d1+eVboBeZQCA+ef4f7P8wP3/AN2rr6/vo6Ub2J83AUA5BgCYZzlnv/Sa5WPh/n+ArrVp06bvRsQ3S3ewH6choRADAMyjdrt9XESsKN3Bg3LOHy/dAMDcyjl/rHQD+zml3W6fWToCepEBAObXUyOiv3QED0opGQAAut8nSgdwgGeUDoBeZACAeZRzfmbpBvaze8mSJZ8tHQHA3DL2NpIBAAowAMA8arVaBoBm+fwVV1yxs3QEAHPupoi4p3QE+zEAQAEGAJhHTgA0jm+EAHpAVVXTEfHp0h3sx2ciKMAAAPPkkksuWRYRTyzdwX7cEwrQI9wG0DinjIyMPKp0BPQaAwDMk8WLFz8t/Mw1Sl9fnw+DAL3D6NswdV27DQDmmYsRmCeO/zfOt/a9GxqAHrBgwYJPRMR06Q72YwCAeWYAgPnjl1yz+PYfoIdceeWVP4yIydIdPCjn7LMRzDMDAMwfJwAaxL2gAL0n5/yx0g3sxwAA88wAAPNg3bp1D4uIx5bu4EEpJU+DBugxrVbrM6Ub2M9pIyMjZ5SOgF5iAIB5sHv37meGn7cm2VXX9RdLRwAwv4y/zTM1NXVe6QboJS5IYB54AGDjfKmqqt2lIwCYX3Vd3xwR95XuYD9uA4B5ZACA+fHU0gE8KKX0+dINAMy/qqqmI+ILpTt4UErpKaUboJcYAGAepJSeVrqBB+Wc3QMK0KNyzm4DaBZfksA8MgDAHFu/fv2SiHhc6Q4e1Gq1Plu6AYBiPlc6gP2cuXbt2hNLR0CvMADAHLv//vvPiYi+0h38yAO33nrr9tIRAJTR19fnFFjDTE1NnVu6AXqFAQDmWErJ0bZm+cINN9wwVToCgDLGxsa+FhF3l+7gQXVdew4AzBMDAMwxD7dplpSS4/8AvS1HhIfBNkir1Xpy6QboFQYAmHtOADSLez8BepwxuFlyzgYAmCcGAJhDo6OjrYjwS61BpqenfegD6HF1Xftd0Cznttttz0uCeWAAgDl08803PzYilpTu4EfuPffcc28uHQFAWU4ANM5xEfHY0hHQCwwAMIemp6fd/98sXxgdHa1LRwBQVlVV34yI20t38CC3AcD8MADAHPJQm2ZJKX2hdAMAjfHF0gHsx6sAYR4YAGAO5ZyfVrqBB9V1fWPpBgAaw++EBvHaZJgfBgCYW36ZNUjO2QkAACIiIufsBECzuG0S5oEBAObIZZdddkpE/ETpDn5kd6vV2l46AoBmMAo3zplr1649sXQEdDsDAMyR6elp97I1y1erqtpdOgKAZrjjjju+GhE7S3fwoD179qwo3QDdzgAAc8TTbJsl5/z50g0ANMcNN9wwFRE3le5gP748gTlmAIA5knO2YjdIq9VyrycA+3EbQLP47ARzzwAAcySldE7pBvbjQx4A+zEON0tKyQAAc8wAAHMjRYQBoEE87RmAH+d3Q+P47ARzzAAAc2DNmjVnRsSy0h38yLerqrqzdAQAzbJr164vRkRduoMfOWX16tWnlY6AbmYAgDnQ19dnwW4Wx/8BOMC2bdvujYhvlO7gQQsWLHAbAMwhAwDMAff/N44BAIBD8TuiQeq69hkK5pABAOaAp9g2i3s8ATgUvyOapdVq+QwFc8gAAHPDL68GyTl7zzMAh+J3RIPknJeXboBuZgCAWbZy5cr+MAA0yX3nnnvu10tHANBMKaUvlW5gP+eWDoBuZgCAWXbyySc/NiIWle7gR24eHR31hGcADqqqqm9FxL2lO/iRE0ZGRs4oHQHdygAAs6zVanl4TYPknLeXbgCg0XJE3Fw6ggdNTU35LAVzxAAAs8wbAJolpWQAAOCwcs5fLt3AgzwIEOaOAQBmWV3XTyrdwIMMAAAcgcnSATzIZymYOwYAmGUpJU+vbZBWq+XpzgA8FL8rGiSlZACAOWIAgFnUbrf7IuJxpTv4kbs3bdp0S+kIAJqtv7/fLQDN8sTSAdCtDAAwux4T3gDQJJOx9+FOAHBImzZt+m5E3Fm6gx85ZfXq1SeXjoBuZACAWZRztlg3iDcAADADfmc0yIIFC3ymgjlgAIBZ1Gq1/LJqEA8ABGAG3AbQLE8oHQDdyAAAs8gJgGbxWicAjpTRuHEMADAHDAAwuwwADeLDHABHymjcLL5UgblhAIDZ5bU1zXF7VVXfLx0BQMfwKsBmcQKA/8fevUfdedZ1/v9eez9p2qYFSikgKMdyaJIOKog4gFZQnIotTdM76cE6OOPE06jjrDn81Pm5HmfUER1n1Bn9aRmdaC1tspO0Uofo4CEqqIiAUvq0lFJEKNCWFrC0zenZ1++PZhLSnJ7z99p7v15ruZb/sHivRZJ778++7vtmGRgAYIlcddVVT4uIp2Z3cNiHswMAGB2DweChiLg/u4PDXrBly5ZV2REwbgwAsERmZ2fXZjdwRK31juwGAEbOndkBHLbqwQcffGF2BIwbAwAsEfeqNccJAADmywDQkH6/77MVLDEDACwd96q1xQAAwHy5drTFZytYYgYAWDpW6oaUUvyKA8B8GQDaYgCAJWYAgKXjDQDt2BcRH8uOAGDkGAAa4vZKWHoGAFgCl1xyyZkR8dzsDg776GAwmM2OAGDkfCweH5FpgxMAsMQMALAEzjzzzBeFv08t8QsOAPN2aDy+O7uDw57add152REwTnxhgSUwHA4dUWuI+/8BWAQjckPcBgBLywAAS8DFqTk+vAGwILVWI3JDer2ez1iwhAwAsARcnNpSSjEAALBQriFt8RwAWEIGAFgCTgC0Zd++fX69AWBBaq0GgIbUWg0AsIQMALBI09PTvbBOt+T+W2655fPZEQCMptnZWQNAW/zIAkvIAACLdOeddz4nIs7I7uAwv/4DsGCHRuT7sjs47PkXX3zx6uwIGBcGAFik2dlZy3RDHN0EYAkYk9vRP/PMM8/PjoBxYQCARXL/f3MMAAAslmtJQ0opbrWEJWIAgEXyBoC2lFL8agPAYhkAGuKzFiwdAwAskhMAzfGhDYBFMSY3xwkAWCIGAFg8A0A79kXEx7IjABhtpRRjckO8ChCWjgEAFuGyyy57SkQ8I7uDw+4ZDAaz2REAjLb77rvv4xGxP7uDw16cHQDjwgAAi9Dv9y3SbbkjOwCA0bdnz56DEfGR7A4OO2fDhg1Pz46AcWAAgEXo9/svym7gCEc2AVhCngPQkFWrVvnMBUvAAACLUGt1MWqLAQCAJVFrdU1piM9csDQMALAILkZtcQIAgCXkmtIQn7lgaRgAYBFKKS5GDdm3b5/jmgAsCa8CbEuv1/OZC5aAAQAWx8WoHffdcsstn8+OAGBsOAHQECcAYGkYAGCBDj2N9snZHRzmgxoAS2YwGHwhIj6T3cFh50dEyY6AUWcAgAXyNNq2eFgTAMvAtaUdZ11++eXPzI6AUWcAgAVyFK05PqQBsKQ8B6AtU1NTPnvBIhkAYOHOzw7giF6vd1d2AwDjZTgcfiS7gaP47AWLZACABSqlvDi7gSNmZ2d9SANgSZVSXFsaMhwOffaCRTIAwAK5BaAps48++ujHsiMAGDt3ZwdwhNcvw+IZAGBhSjiG1pJP7t69e192BADjZc2aNfdExDC7g8MMALBIBgBYgENPoT0ru4PD/EIDwJLbunXr3oi4N7uDw86fnp72/QUWwV8gWABPoW3OR7MDABhbRuZ2nPHBD37wWdkRMMoMALAA7v9vS63VAADAsqi1GgAa4kcYWBwDACyAAaA5PpwBsCx6vZ6RuSE+g8HiGABgATyFti1+nQFgGbnGNMQAAItjAICF8R7adtQzzzzTrzMALAu3mbXFjzCwOAYAmKdDT599YXYHh33m+uuvfyQ7AoCxdXdE1OwIDjMAwCIYAGCe7rzzzmdHxBnZHRzmaCYAy2YwGHwxIu7L7uCwF3Zd18+OgFFlAIB5mp2dtTy3xdFMAJabsbkdq2dnZ788OwJGlQEA5snDZ9ri3kwAlptrTVu8ChAWzgAA89Tr9Vx02uJXGQCWlVcBtsWPMbBwBgCYJxedtngFIAArwLWmIT6LwcIZAGD+XHQaMjs760MZAMuqlOJa0xCvAoSFMwDAPBx66uwLsjs47MFbbrnl89kRAIy3ffv2fSS7gaMYAGCBDAAwD/1+/ysiYnV2B4f5RQaAZXdobH4ou4PDnn/RRRdNZUfAKDIAwDx4BWBbaq33ZDcAMDE8CLAdpz3zmc/0KkBYAAMAzEOt9aXZDRxRSnEkE4CV4prTkIMHD74wuwFGkQEA5sErANvivcwArCC3nTWk1+t5JhMsgAEA5qHW+uLsBo7iwxgAK8Lo3JznZwfAKDIAwPwYABqyatUqH8YAWBG9Xs81pyG1VicAYAEMADBHb37zm0+PiOdmd3DYwzfeeON92REATIZ+v+/UWVsMALAABgCYo8cee+z88HemJX6JAWDFHBqdH87u4DADACyALzMwR7Ozs47/t8UvMQCsNNeedpx72WWXPSU7AkaNAQDmqJRiAGiLD2EArDSnzxrS7/c9CBDmyQAAc1Rr9QrAhngaMwAJjM8N6ff7bgOAeTIAwBw5AdAcH8IAWFHG57Z4EwDMnwEA5u4l2QEcMTU15UMYACvN+NwWtwDAPBkAYA4OPWTmvOwODtv70pe+9N7sCAAmi/G5OQYAmCcDAMxBv9/3639bPjY9PT3MjgBgstx0002fjIjHsjs47IXZATBqDAAwB71ez/3/bfELDAAZakT8XXYEhz2v67p+dgSMEgMAzIE3ADTHAABAFtegdqyanZ398uwIGCUGAJgbtwA0xFOYAchSa70nu4EjpqamvAkA5sEAAHPgFYBtKaX48AVAil6vZ4RuiFcBwvwYAODUSkS4BaAhw+HQhy8AUgyHQyN0W7wJAObBAACncPnllz87ItZkd3DY8NFHH/1YdgQAk6nf7xuhG+IEAMyPAQBOod/vO/7flnt37969LzsCgMl0xhlnfCwivIq2EaUUAwDMgwEATsH9/83xywsAabZu3bo3Ij6V3cFhBgCYBwMAnMJwODQANMTTlwFogGtRO8679NJLz86OgFFhAIBTcAKgLZ6+DEC2UoprUUNWrVrlQYAwRwYAODUDQENqrT50AZDKtagt/X7fbQAwRwYAOIktW7asCq+XaUqv13PsEoBUpRTXooZ4EwDMnQEATuJzn/vcCyJiKruDI4bDD0qk5AAAIABJREFUoV9dAEjlBEBz/FgDc2QAgJNw/39zPjcYDB7KjgBgsh08eNAA0BYnAGCODABwEt4A0BxHLgFId/PNNz8YEZ/P7uAwAwDMkQEATsIJgLY4cglAQz6WHcBhz5uenva9BubAXxQ4OQNAQ7wCEICGuCa14/QPfvCDz8qOgFFgAICTMwA0ZDgcugUAgCY4ldaWqakptwHAHBgA4AQuvfTSsyPCmtwQJwAAaIVXAbbFqwBhbgwAcAJnnHHGi7IbOJpfWwBohWtSc7wKEObAAAAnUGt9SXYDR9m3bt26T2ZHAECEEwCtcQIA5sYAACfgFYDN+fj09PQwOwIADvn7iNifHcHjSikGAJgDAwCcQK/XcwtAWxy1BKAZg8FgNh4fAWiDAQDmwAAAJ1BrNQA0pNbqqCUArXFtasczLrnkkjOzI6B1BgA4vhIRF2RHcJS7swMA4AmcTmtHOe20087PjoDWGQDgOLque1ZEnJ3dwREetgRAa7wJoC29Xs/zm+AUDABwHLXWl2Y3cLThcOhDFgBNMU63xe2bcGoGADiOXq9nAGhL7fV6PmQB0BTjdFs8wBlOzQAAx/eS7ACO8unBYPBYdgQAfKlD43TN7uBxtVa3AMApGADgOGqtBoC2+PUfgOYMBoMvRsQD2R0c5iGAcAoGADg+bwBoSK31ruwGADgB16h2POOyyy57SnYEtMwAAE/Qdd1ZEfHl2R0cUUr5SHYDAByPa1Rb+v2+UwBwEgYAONZLIqJkR3CED1cAtGo4HLpGNcSrAOHkDABwLPf/N2Z2dtaHKwBadXd2AEd4FSCcnAEAjmUAaEvdv3+/D1cANMkptbZ4FSCcnAEAnqDW+tLsBo7yqVtvvfXR7AgAOIG7w6sAm+FVgHByBgB4glKKAaAtflkBoFmHXgX4mewODnMCAE7CAABfouu6fkRYjhtSazUAANA616p2PKXruvOyI6BVBgD4EsPh8LkRcXp2B0e4txKAEeBa1RAPAoQTMwDAl+j3+47/N8YAAEDrXKvaUkpxmhNOwAAAX8IDANvjFYAAtG44HLpWNcQJADgxAwAczSsA2zI8++yzP5odAQAn4wRAW7wKEE7MAABHMwC05d6tW7fuzY4AgJM5/fTT7wmvAmyGEwBwYgYAONr67ACOcld2AACcyvXXX/9IRNyb3cFhLz30ZifgCQwAcMiGDRueHhHnZndwRCnl7uwGAJgj16x2nB4Rz8mOgBYZAOCQqakpv/6358PZAQAwF7XWO7MbOKLWui67AVpkAIBDXCjaMxwOfZgCYFQYrduyNjsAWmQAgCNcKBpTa/VhCoBR4ZrVkFLKBdkN0CIDABxSSnECoC17L7zwwr/LjgCAuSilOLXWFgMAHIcBAI7wDIC23D09PT3MjgCAuVi3bt3HI+Kx7A4OuyAiSnYEtMYAABHRdd0zI+Kc7A6O4pcUAEbGodHamwDa8aSu656VHQGtMQBAeABgo9xLCcBIcRtAczzfCZ7AAACPc4FojwEAgJHi7TVt8SBAOJYBACKi1+s5AdCYXq/nQxQAo8Z43ZDhcGgAgCcwAEC4BaBFw+HwruwGAJgPr69tSynFCU94AgMAPM4A0JZPDwaDL2RHAMB8HDhw4MMRUbM7OMwJAHgCAwATzxsAmuQXFABGztvf/vaHI+JT2R0cdt5VV131tOwIaIkBgInn+H97aq3u/wdgVBmxG3LgwAGnAOBLGACYeB4A2CQfngAYSV4F2BzPAYAvYQAAF4YWGQAAGFWuYQ3xKkA4mgGAiVdrNQA0pt/vewMAACOp1uoa1paXZgdASwwA4A0ArXn0ggsu+Fh2BAAs0Ex2AEfxQw98iZIdAJm6rntORHw8u4OjvG8wGLwiOwIAFqrrus9HxJOzO3jc1NTUeTfeeONnszugBU4AMNFKKS/LbuBopZTbsxsAYJHuyA7giNnZ2QuzG6AVBgAm2nA4NAC0x9FJAEadMbshtdZ/lN0ArTAAMNGcAGjPcDj0oQmAUWfMbosTAHCIAYBJZwBoTK3VhyYARp1rWVt83oNDDABMrK7rzoqIF2Z3cJRHLrzwwr/LjgCAxej3+06ztWVd13X97AhogQGAidXr9daHvwOtuXN6enqYHQEAi3HTTTd9MiK+kN3BYWcMh8MXZUdAC3z5YWLNzs46DtYYbwAAYEzUiLgzO4Ij+v2+BwFCGACYYB4A2CT3TAIwFmqtRu2GeBMAPM4AwCQzALTHAADAuHBNa4sBAMIAwISanp7uhVfCNGd2dtavJQCMCwNAWwwAEAYAJtQdd9zx/Ig4O7uDo3gDAABjw3NtmvOcq6+++pzsCMhmAGAieQBgk7wBAICxMRgMPhERD2d3cFg5ePCg059MPAMAE6nX6zkG1h5HJQEYJzUi7siO4AgPAgQDABPKBaBJBgAAxorbANpSSlmf3QDZDABMqq/MDuAYf5MdAABLqdb6t9kNHFFr9fmPiWcAYOJ0XffkiHhedgdHm52d9SEJgLFiAGjO+kNvgoKJ5S8Ak+jCiCjZERzl/l27dn06OwIAllIp5YPZDRxlzW233fbC7AjIZABgEjn+1R73SAIwdgaDwUMRcW92B0f0ej1vgmKiGQCYRK/MDuAYH8gOAIBl4hk3Dam1fm12A2QyADCJviY7gGPclh0AAMvBbQBtKaX4HMhEMwAwUS677LKnRMRLsjs42nA49JAkAMbScDg0ALTl5R4EyCTzh5+Jctppp31VeABgaw48+uijM9kRALAcnABozll33HGHH4OYWAYAJkqt9RXZDRzjrt27d+/LjgCA5fDAAw/cFRF7szs4YnZ21m0ATCwDABPFfV9NcvwfgLG1Z8+eg+FtN03xeZBJZgBgotRa/YPfGEcjARh3rnXN8XmQiWUAYGJ0XXdeRDwvu4OjeTgSAOPOta45L+u67rTsCMhgAGCSvDw7gGNNTU25BQCAsdbr9Vzr2nJ6r9dbnx0BGQwATAz3ezXpgZtuuulT2REAsJxqrQaAxgyHQw+GZiIZAJgYtVYnANrzoewAAFhug8HgoYgweLfF50ImkgGASfK12QEcrZTy/uwGAFghrnlt8bmQiWQAYCJ0XffsiHhmdgfHeF92AACshFKKa15b1l977bVrsiNgpRkAmAju/2+TD0MATIpaqxMAbek/9thjL8uOgJVmAGAi1Fo96KU9X9i2bdtHsiMAYIUYvRvjByImkQGASeEf+Pb8bUTU7AgAWAmDweDeiPhMdgdH+IGISWQAYBKUiPAPfGNqrX4JAWDSuA2gIU4AMIkMAIy9ruueFxFPze7gaKWUD2Q3AMAKc+1ry4u6rntydgSsJAMAY6/W+trsBo41HA7fm90AACuplPLX2Q0cpVdKeXV2BKwkAwBjzz/sTXr4wgsvvCs7AgBWUq/Xc/tbY4bDoc+JTBQDAJPgNdkBHONvp6enh9kRALCSbrrppk9ExAPZHRxRSnFSlIliAGCsbdiw4dyIuCC7g2P4BQSASeVBgG155Zvf/ObTsyNgpRgAGGurVq36x/H4WwBoiwEAgInkLTjNWf3oo4++PDsCVooBgLHmvq42DYdDv34AMKkMAI3xwGgmiQGAsVZKcf9/ex7p9Xp3ZkcAQIapqSkjeHv8YMTEMAAwtg7dz/WK7A6O8beDwWA2OwIAMtx0001/FxEPZndwlFdPT0/7XsRE8AedsfXFL37xqyNidXYHx/DLBwCT7gPZARzlnNtuu81Do5kIBgDGVinl67MbOFat9S+zGwAgU631L7IbOFqv1/O5kYlgAGCcuZ+rQf1+3wAAwEQrpbwnu4FjeG4UE8EAwFg6dB+XAaA9923btu2j2REAkOngwYN/GRE1u4OjGACYCAYAxtIdd9yxNiLOye7gGH+VHQAA2W6++eYHI+Lu7A6O8pyu656THQHLzQDAWJqdnfXrf5sceQSAiCileA5AY2qtr81ugOVmAGAslVIMAA3yAEAAeNxwODSKN8bnRyaBAYBx5T6u9szu37/fLQAAEB6K2ygnABh7BgDGzuWXX/7lEfH87A6OMfP2t7/94ewIAGjBfffd98GIeCS7g6Os67ruqdkRsJwMAIydXq/3ddkNHKvW+t7sBgBoxZ49ew5GxAeyOzhKKaW8KjsClpMBgLFTSvnG7AaOVUr58+wGAGhJrfXd2Q0crdb6+uwGWE4GAMbR67IDONZwOHSvIwB8iVKKBwG2xwDAWDMAMFYO3f//kuwOjvGFCy+88I7sCABoyezsrHG8Pf/oqquuekZ2BCwXAwBjpd/vO/7fpr+anp4eZkcAQEt27dr16Yj4eHYHRykHDx68KDsClosBgHHj+H+Daq1+4QCA43ONbIznADDODACMG/9gN8g9jgBwfEby9pRSvim7AZaLAYCxsXHjxhdExFdkd3CMGhF/lR0BAC0ykjfp+ZdffvlzsyNgORgAGBu9Xs9a26aZwWDwQHYEALTogQceeG9EfDG7g6NNTU29IbsBloMBgLFRa70ou4FjlVLeld0AAK3as2fPwYh4b3YHRxsOhx4szVgyADAWpqene6UUS22b/iQ7AABaVmt1rWxMKeUNXdf1sztgqRkAGAu33XbbV0fEudkdHKvW+qfZDQDQsl6v51rZnnOHw+ErsiNgqRkAGAu9Xu9bshs4rnsGg8G92REA0LJDbwLYn93B0fr9/sXZDbDUDACMCwNAg2qtf5bdAACtGwwGj0XE+7I7OFqt9Z9kN8BSMwAw8rque3JEfF12B8cqpRgAAGAO3DLXpK/puu687AhYSgYARt6hp/9PZXdwrOFw6MMMAMyB0bxJvVKK10wzVgwAjLxSiuP/bfrUzp07P5IdAQAj4l0RMZsdwTHcBsBYMQAwDvzD3KBa67uyGwBgVAwGgy9ExIeyOzharfVbIqJkd8BSMQAw0jZu3PiCiHh+dgfH6vV6785uAIBRUkpx7WzPM7que1l2BCwVAwAjrdfrXZLdwPGVUv4kuwEARslwONyT3cBxXZodAEvFAMCoe2N2AMf10AUXXHBbdgQAjBIPAmyWH5wYG+5nYWRdeumlZ69evfqzEXFadgvH+N3BYOBiCQDz1HXdXRHxouwOjlJnZ2efs2vXrk9mh8BiOQHAyDr99NPfEL78N6nW6hcMAFgYr9BtT+n3+9+aHQFLwQDAyKq1XpzdwPHVWt3/DwALUGs1ALTJAMBYMAAwkqanp3vhfqxWPdTr9f46OwIARtGqVat+PyJqdgfHeMO11167JjsCFssAwEi64447XhkRT8/u4Lj+eDAYzGZHAMAouvHGG++LiNuzOzjGGXv37n19dgQslgGAkVRr9fT/RpVS/iC7AQBGWa31ndkNHKuU4vQpI88AwEiqtboPq1GllD/KbgCAUdbr9f44u4FjHXr+lLeoMdIMAIycjRs3viAivjq7g+P62LZt2+7KjgCAUbZ69eo/ioh92R0c49mbNm36x9kRsBgGAEZOr9e7LLuB46u1Ov4PAIt0/fXXPxIR78nu4FjD4XBjdgMshgGAUbQhO4Dj6/V6BgAAWAKeqdOmUsrl4TYARpgBgJHSdd0zI8LRqzYNDxw48IfZEQAwDpyqa9ZzN27c+PLsCFgoAwCj5tLw57ZVf3PzzTc/mB0BAOPggQceeG9EfCG7g2P1ej23ATCyfJFi1Dj+3yhHFQFg6ezZs+dgROzJ7uC4DACMLAMAI+Pqq68+JyJen93B8TmqCABLzrW1TS/quu7C7AhYCAMAI+PAgQMXR8Sq7A6O67E1a9b8WXYEAIyZd2YHcHylFKcAGEkGAEZGrfVN2Q2c0F9u3bp1b3YEAIyTwWDw4Yi4N7uDY9VaL89ugIUwADASuq57cinl0uwOTuj/ZAcAwDgqpbjGtunCzZs3vyw7AubLAMCoeGNEnJ4dwfH1ej2v/wOA5fFH2QEc3+zs7KbsBpgvAwCj4prsAE7oU9u2bfvr7AgAGEe11ndExMHsDo5VSrl2enra9ylGij+wNO+qq656WkR8c3YHJ7Q7Imp2BACMo8Fg8FBEvCe7g+P6ipmZmddkR8B8GABo3oEDBzaGp/+37H9nBwDAOKu1utY2ajgcXpXdAPNhAKB5pZQrsxs4oX3hFUUAsKxKKb+b3cDxlVI2dV13WnYHzJUBgKZ1XffsiPj67A5O6E8Hg8EXsyMAYJwNBoPbIuLj2R0c11NLKd+SHQFzZQCgaaWUTeHPacscSQSAlfGO7ABO6OrsAJgrX6xoWq3V8f+G9Xq93dkNADAhfi87gOOrtV5y6aWXnp3dAXNhAKBZmzdvXh8Rr8zu4IQ+vG3btruyIwBgQrwzIh7NjuC41px++ul+tGIkGABo1nA4vCa7gRPzQCIAWDmDweCxiPjj7A6Or9b6T7MbYC4MADSp67p+RFyb3cFJuf8fAFaWa2+7Xr1x48aXZkfAqRgAaFIp5Rsj4tnZHZzQ55/ylKe8KzsCACZJv993+q5hvV7v27Mb4FQMALTKr/8NK6W887rrrjuQ3QEAk+Smm276RER8KLuDE3rzoVOs0CwDAM3puu6sWuvG7A5OyhFEAMjhFEC7nh0Rr8uOgJMxANCcWuvlEbEmu4MTGtZavYsYAHIY4dv25uwAOBkDAM0ppXj6f9veNxgMHsiOAIBJ9MADD/xlRHw+u4MTetM111zzpOwIOBEDAE258sornxcR35TdwYmVUm7NbgCASbVnz56DEeEkXrvW7Nu3z8MAaZYBgKbMzs5+d/hz2bRSyrbsBgCYZLXW7dkNnFgp5V9GRMnugOPxRYtmdF13WkR8Z3YHJ3Xbtm3b7sqOAIBJdtZZZ/1+RPxDdgcndMGmTZtemx0Bx2MAoBm11jdFxDOyOzixWuvO7AYAmHRbt27dW0pxG0DDaq3fnd0Ax2MAoBmllC3ZDZxcv983AABAA4zyzbtiw4YNT8+OgCcyANCEjRs3vigiXp/dwUnduW3btg9lRwAAEXv37n1HRDyS3cEJnbZq1Sq3ttIcAwBNKKX88/CwlNb5pQEAGnHrrbc+GhG/l93BidVat0xPT/u+RVP8gSRd13WnlVLenN3ByQ2HQwMAADSklOLa3LYXzMzMfHN2BHwpAwDpPPxvJPzdzp07/yY7AgA4otb6jojYl93BidVavye7Ab6UAYB0pZQfzm7g5Eop2yOiZncAAEcMBoMvhNsAWvemrutekh0B/5cBgFSbN2/+moj4uuwOTs6ThgGgWa7RbSullO/PjoD/ywBAqlrrv8xu4JQ+PhgM3psdAQAc68CBA7dGxP7sDk6s1vqdXdc9ObsDIgwAJLrqqqueUWu9MruDk6u17grH/wGgSbfccsvnI+IPsjs4qbMi4p9nR0CEAYBEs7OzWyLitOwOTq7X6zlaCAAN8zaAkfCDXdf1syPAAECKLVu2rKq1fm92B6f0qbVr1/5FdgQAcGIHDhz4nYg4kN3BST330JuvIJUBgBSf+9zn3hQRX5bdwSn9zvT09DA7AgA4sZtvvvnBiPjT7A5OzsMAaYEBgCw/lB3AnLwtOwAAOLVSimt2+17Xdd1XZkcw2QwArLgrrrjitRHxmuwOTumuwWDwruwIAODUVq9evS0ivpjdwcmVUn40u4HJZgBgxZVS/l12A6dWa/VLAgCMiOuvv/6RiHh7dgcnV2vduHnz5hdndzC5DACsqM2bN6+PiDdmd3BKtd/v/3Z2BAAwd7VW1+729WZnZ/9NdgSTywDAijr0D17J7uCU/mLbtm0fzY4AAObus5/97Dsj4jPZHZxcKeU7uq57dnYHk8kAwIrpuu45pZSrszuYE78gAMCI2bNnz8FSyk3ZHZzS6lrrv8qOYDIZAFgxpZQfjIhV2R2c0r6I2JYdAQDMn9sARkMp5buvvvrqc7I7mDwGAFbEZZdd9pRa65bsDuZk92AweCg7AgCYv8Fg8L6I+FB2B6d09v79+78/O4LJYwBgRUxNTW2JiLOzOzi1UsqN2Q0AwMKVUrZnN3BqpZTv77rujOwOJosBgGV36aWXnu3VfyPjwVrrLdkRAMDC1Vp/MyKG2R2c0jMP3SILK8YAwLI7/fTTfyAizs3uYE52DgaD/dkRAMDCDQaDv4+IP8vu4NRqrf/2mmuueVJ2B5PDAMCyuuaaa55Ua/3X2R3M2fXZAQDA4nkY4Mg4d9++fU4BsGIMACyr/fv3+/V/dNwzGAzenR0BACze6tWrt0fEY9kdnFop5d94IwArxQDAsjl0nMmv/yOi1npDRNTsDgBg8W644YZ/KKX8bnYHc/Lk/fv3/3B2BJPBAMCyOXSc6anZHcxJLaX8VnYEALCk3No3IkopP9x13XnZHYw/AwDLouu6s0opP5TdwZy9ZzAY3J0dAQAsnVrr70fE/dkdzMlZ3gjASjAAsCxqrT8QEU/L7mBuaq3XZTcAAEtrMBjsL6Vsze5gbmqtP+QUAMvNAMCS27Bhw9NLKT+a3cGcPVRKuSk7AgBYerXWX42IYXYHc3J2RPxEdgTjzQDAklu1atWPRMRZ2R3MTa31tweDgacEA8AYGgwGH4uIP8juYM7+xebNmy/IjmB8GQBYUhs3bnxBrfX7sjuYu36//6vZDQDA8imluNVvdEwNh8P/lB3B+DIAsKR6vd50RJyW3cGc/fm2bdvuyI4AAJbP/fff/zsR8ansDuZs46ZNm16dHcF4MgCwZDZu3PhVEXFNdgfz8tbsAABgee3Zs+dgKeU3szuYu1rrz2Q3MJ4MACyZXq/3k+HP1Cj5XERsy44AAJZfrfWt4WGAo+Q1Xdddmh3B+PFljSXRdd3rIuJbszuYlxs8/A8AJsOhhwH+YXYH8/KzF1100VR2BOPFAMBSKBHxH7MjmJ/hcPgb2Q0AwIr69ewA5uUlT3/6078jO4LxYgBg0TZt2vQdEeFBJaPlL3bu3PmB7AgAYOU88MADOyPi09kdzF2t9ec2bNhwbnYH48MAwKJ0XffkWutbsjuYn0P3AQIAE2TPnj0HI8LDAEfLU6empqazIxgfBgAWpZTyoxHxjOwO5uVzpZSbsiMAgJU3HA49DHD0fO/mzZtflh3BeDAAsGBd172k1vqvsjuYn1rr2zz8DwAm086dO+8JDwMcNf3hcPjL8fhzt2BRDAAsxs9HxGnZEcxPrfW67AYAII9bAUfSq7uuuyo7gtFnAGBBNm3a9E0R8cbsDubtr3bu3PnB7AgAIM8jjzzy9oi4L7uDefvPl1xyyZnZEYw2AwDzdvHFF6+utf5/2R0syH/NDgAAcu3evXtfRPxKdgfz9pzVq1f/eHYEo80AwLydddZZ3x8R52d3MG+fjoibsyMAgHyzs7NvjYj92R3MTynlhzZv3vzi7A5GlwGAedm8efMLI+InszuYv1LK/xgMBi70AEDs2rXr07XWG7M7mLfTh8Phb05PT/sex4L4g8O8DIfDX4mIM7I7mLfH+v2+h/8BAIfVWn8xu4EFedXMzMyW7AhGkwGAOeu67uqIeEN2BwvythtvvPGz2REAQDt27tz5gYj4s+wO5q/W+pau656d3cHoMQAwJ1dfffU54QFyo6r2er1fyI4AAJr0S9kBLMiTIsIJDubNAMCcHDhw4Kci4hnZHSzIu7Zt2/ah7AgAoD3nnHPO70TEvdkdLMjGTZs2fWt2BKPFAMApdV33uoj4nuwOFqbW+rPZDQBAm6677roDtdb/lt3BwtRa/+dll132lOwORocBgJPasmXLqoj4hYgo2S0syEfWr1//juwIAKBdBw8e/PWIeDi7gwX5sqmpqR/PjmB0GAA4qc9//vM/EREXZnewMKWUn5uenh5mdwAA7brllls+X2v9tewOFqaU8kObNm36xuwORoMBgBPauHHj19Za/112Bwv2mYcffvi3siMAgPaVUn4hIvZnd7AgvVrrb1xzzTVPyg6hfQYAjqvrujN6vd5vRkQ/u4WFKaX8yu7du/dldwAA7RsMBvfWWrdnd7Bgzztw4MDPZ0fQPgMAJ/KTEfGS7AgW7JFa6y9nRwAAo6PW+nMRUbM7WJha63d1XffG7A7aZgDgGF3XfUNE/KvsDhaulPKbg8HgoewOAGB07Ny584MR8YfZHSzKWzds2HBudgTtMgBwlK7rzoiIXw1/NkbZsNb6S9kRAMDoKaV4JeBo+7KpqSn/G3JCvuTxRD8bES/NjmDhaq3bBoPBh7M7AIDRs3379ndExF9nd7Ao13Zdtzk7gjYZADjs0OtDvi+7g0Wph+7fAwBYqP+SHcCi/dLll1/+ZdkRtMcAQEREXHnllc+qtW4LfyZG3e/u3LnzA9kRAMDoGgwG2yPi9uwOFuXp/X5/15YtW1Zlh9AWX/aIruv6s7Ozb4uI87JbWJzhcPhT2Q0AwMirtdafzY5g0V710EMPTWdH0BYDAFFK+dGI+IbsDhbtj3fu3Pme7AgAYPR99rOffVtEfCy7g8Uppfw/mzZt+pbsDtphAJhwXde9rtY6nd3B4pVSfjq7AQAYD3v27DlYa/UsgNHXq7Vef+WVVz4rO4Q2GAAm2NVXX31ORPxG+HMwDt6/ffv2P8iOAADGx759+7ZGxP3ZHSzaebOzs/9renraZ3588Ztg5cCBAzdExHOzQ1gSP54dAACMl1tvvfXRUsrPZHewJN4wMzPj8yIGgEnVdd0PRsTF2R0siQ8MBoN3ZEcAAONn9erV14VTAGOh1vpjmzZt+vrsDnIZACbQFVdc8YaI+PnsDpZGKeU/RETN7gAAxs/111//SER4ztB4mKq13tx13fOzQ8hjAJgwV1555fNKKW+LiH52C0viPdu3b/frPwCwbNasWfNrEXFvdgdL4qkRseuSSy45MzuEHAaACdJ13Rmzs7O7IuLc7BaWRq31J7IbAIDxtnXr1r211rdkd7BkvnL16tW/lh1BDgPABKm1/mJEfFV2B0vmPTt27NidHQEAjL9HHnnkuoj4ZHYHS6OU8u1XXHHF92V3sPIMABPiiiuu+K5Syr/I7mDyPH34AAATeUlEQVRJTWcHAACTYffu3fu8EWC8lFJ+wUMBJ0/JDmD5dV33lRHx5xFxRnYLS6ZGxAfCw/8AgJWzOiLWZ0ewpD558ODBl998883e9DAhDABjbsOGDedOTU29NyI87RMAAHiiPznnnHO++brrrjuQHcLycwvAGLv22mvXTE1N/V748g8AABzfNzz00EO/HX4cngheBTempqene5/+9KdvjIjXZ7cAAADtKqWsW7du3dTMzMwfZbewvAwAY+ppT3vaz5ZS/nl2BwAAMBK+fv369ffdfvvtf50dwvJxzGMMbdq06ftrrf8juwMAABgpByLijYPB4J3ZISwPA8CY6bru0ojYFU53AAAA8/cPw+HwtTt37vxgdghLzwAwRg697u9PI+Ls7BYAAGBk3Ts7O/uqXbt2fTI7hKXlLQBj4sorr3xWRNwcvvwDAACL8+x+vz+49tpr12SHsLScABgDXdc9MyL+LCLOz24BAADGxp+ffvrpb7j++usfyQ5habhPfMRdffXV5wyHwz+MiAuyWwAAgLHyFQcPHnzFc5/73MHdd989mx3D4jkBMMKuvfbaNXv37v2DiHhVdgsAADC2dkXEpsFgYAQYcZ4BMKIuvvji1Xv37r0lfPkHAACW1+UR8T/DD8gjzy0AI+iiiy6aOuecc7ZFxBuzWwAAgInwlevWrXvKzMzM72WHsHAGgNFTXvGKV/xGKeXK7BAAAGCivGrt2rX7Z2Zm3pUdwsIYAEbMpk2b/n1E/JvsDgAAYPKUUl63du3av5+Zmfmb7BbmzwAwQrquuyIifi3cewMAAOQopZRL1q5de9fMzMyHsmOYH18kR8TGjRvX9Xq9v4iIs7NbAACAiXcgIjYMBoP/nR3C3HkLwAi4+OKLV/d6vd8OX/4BAIA2rIqIt23cuPGl2SHMnQFgBKxZs+bnI+IrszsAAAC+xJN6vd6tl1122VOyQ5gbA0DjrrjiijeUUr4vuwMAAOA4zl+1atWvh9vLR4KHADas67qzSim/HxFPzm4BAAA4gQvWrVv3uZmZmfdkh3ByTgA0rNb6UxHxFdkdAAAAp/Bzmzdv/prsCE7OMY1Gbdy48Wt7vd6fh5EGAAAYDXdExMsHg8Fj2SEcny+Xjer1em8J//sAAACj44Ja649kR3BiTgA0qOu6DRGxK7sDAABgnvb3er0Lt23bdld2CMfyC3NjtmzZsioifia7AwAAYAFOGw6HP58dwfEZABrz0EMPbYqIF2d3AAAALNC3bdq06RuzIziWAaAh09PTvVLKj2V3AAAALMahN5rRGANAQ2ZmZv5JRFyQ3QEAALBIX3fFFVe8PjuCoxkAGlJr/YHsBgAAgKVQSvFGgMZ4C0AjLr/88uf2+/17wigDAACMiV6v9/Jt27a9P7uDx/my2Yher/fm8L8HAAAwRobD4XdnN3CEL5yNKKV8e3YDAADAErvq0ksvPTs7gscZABqwcePGfxQR52d3AAAALLGzV69evTE7gscZABrQ7/cvz24AAABYJldkB/A4A0ADaq2XZDcAAAAsk9d3XXdWdgQGgHRXXXXV0yLiq7I7AAAAlsnppZRvyY7AAJBudnb2G8LrGAEAgDFWa319dgMGgHS11tdmNwAAACyzr88OwADQgq/NDgAAAFhmF2zYsOHc7IhJZwDIVSJiXXYEAADAMutNTU19dXbEpDMAJOq67nkRcXZ2BwAAwApYmx0w6QwAufwFAAAAJsVLsgMmnQEg13OyAwAAAFbIi7MDJp0BINezswMAAABWyDOzAyadASBRKeVZ2Q0AAAAr5LzsgElnAEhUa31adgMAAMAKeWo8/iY0khgAcp2RHQAAALBCpi655BLfgRIZAHKdmR0AAADAZDAA5Do9OwAAAIDJYADIdTA7AAAAYKWce+65w+yGSWYAyPVYdgAAAMAKeWzr1q17syMmmQEg177sAAAAgBXy2eyASWcAyPVwdgAAAMAKeTA7YNIZABLVWj+T3QAAALBCPpEdMOkMAIlKKZ/ObgAAAFgJpZQPZTdMOgNALicAAACAiVBrvSO7YdIZAHLdnR0AAACwEobDoRMAyQwAiQ4ePOgvAAAAMAk+d+GFF/5tdsSkK9kBk67ruvsi4unZHQAAAMvo7YPB4E3ZEZPOCYB8TgEAAADj7k+yAzAApCul/Fl2AwAAwDKqw+HwluwIDADpaq3vzm4AAABYRu/duXPnPdkRGADSnXbaae+JiNnsDgAAgOVQShlkN/A4A0CyG2644R8i4j3ZHQAAAMvgQK31xuwIHmcAaMOt2QEAAABLrZRy42AwuDe7g8cZABrQ6/V+N7sBAABgidVa63/JjuAIA0ADtm3bdntEfDS7AwAAYAm9ezAY3JYdwREGgDbUWut/yI4AAABYKqWUn89u4GgGgEbs2LFjW0S8L7sDAABgCdyzdu3at2dHcDQDQDtqKeXHsiMAAACWwK9OT08PsyM4mgGgIdu3b/99r8gAAABG3CfWrFnz37MjOJYBoDGrVq364Yj4XHYHAADAQpRSprdu3bo3u4NjGQAac+ONN95XSvnR7A4AAIAFuOP+++//rewIjq+fHcCxbr/99r9et27dV0fES7JbAAAA5mh2OBxeunv37k9kh3B8TgC067si4jPZEQAAAHNRa/3lnTt3vie7gxMzADRqMBg8UGv9noio2S0AAACn8PHVq1f/v9kRnJxbABo2MzPz4XXr1h2MiNdltwAAAJzAo8Ph8Ju2bdv299khnJwBoHEzMzPvWrt27YtLKRdmtwAAADxRrfU7d+7c+QfZHZyaWwDaV0spWyLi/dkhAAAAT3Ddjh07bsiOYG4MACNgMBh88eDBg2+IiDuzWwAAAA7ZuW7duu/NjmDuSnYAc3f55Zd/eb/f//OI+IrsFgAAYKK9a82aNd+8devWvdkhzJ0BYMR0XXdhRLwzIp6R3QIAAEyk9x08ePBbbr755gezQ5gftwCMmMFgcFu/339VRNyT3QIAAEycPzz99NO/wZf/0eQEwIjavHnzC4fD4e9FxPnZLQAAwER4Z0RcPhgMvpgdwsIYAEbYpZdeevbq1avfFhHflt0CAACMrVpK+Y/bt2//iYio2TEsXD87gIX78Ic/vP81r3nNjscee+yZpZSXZ/cAAABjZ1+t9XsHg8F/zQ5h8ZwAGBObNm26rNb66xHx1OwWAABgLLx/OBxes3PnTq8jHxMeAjgmtm/ffkuv13tlRPxVdgsAADDSaq31l9asWfNqX/7HixMA46d0XfcvIuLnI+Ks7BgAAGCkvDcitgwGg7/JDmHpGQDGVNd1L4mIt0bEa7NbAACA5j1aa/3PpZSfHQwG+7NjWB4GgDG3adOmb6q1/mxEfFV2CwAA0JxHa63//dAX/4eyY1heBoAJcNFFF02dd955/zQi/n1EvCi7BwAASPdIRPzW7OzsW3bt2vXx7BhWhgFggkxPT/dmZmY21Fr/bUR8bXYPAACw4j4ZEb8cEdf5xX/yGAAmVNd1zymlXFVr/a6IOD+7BwAAWDb31Vq3lVJ+azAYvC87hjwGgAnXdV2/1vqPe73et9Vavy0i1mY3AQAAi/aRiHhHKWX3ww8/vGf37t37soPIZwDgKFdeeeVXDIfDr4uIV9ZaXxmPPzPgmclZAADA8Q0j4r6IuKvW+t5er/fegwcPvsd9/RyPAYBTuvjii1c/6UlP+vJa67Mj4rSIePJwOOxldwEsRinlhohYld3BinhfrfUt2REAS6HX6x2IiC/WWvfOzs5+4mlPe9qnrrvuugPZXYwGAwAAE6nrur+LiOdmd7D8Sim/tn379u/J7gCAbH7FBWBS3ZsdwMqotX4iuwEAWmAAAGAilVIMAJPj77MDAKAFBgAAJpUBYHIYAAAgDAAATC4DwOQwAABAGAAAmFwGgMmw75xzzvlkdgQAtMAAAMBEmp2d/WB2Ayvi/V6PBQCPMwAAMJF6vd6dEfFIdgfLq9b6l9kNANAKAwAAE2kwGMxGxN9md7C8SinvyW4AgFYYAACYZO/PDmB5zc7OOgEAAIcYAACYWLVWA8B4+8yuXbs+nh0BAK0wAAAwsfr9vgFgvP1JdgAAtMQAAMDE2rZt2wcj4lPZHSybHdkBANASAwAAk6zWWn8vO4Jl8ejevXvfkR0BAC0xAAAw6f53dgDL4v/ceuutj2ZHAEBLDAAATLT9+/e/MyL2Z3ew5HZlBwBAawwAAEy0t7/97Q9HxLuzO1hSB8LJDgA4hgEAgIlXSrk1u4EltWswGDyUHQEArTEAADDxDhw48FsRsS+7gyXzi9kBANAiAwAAE+/mm29+sJRyc3YHS+KvB4PBX2RHAECLDAAAEBG11rdmN7B4tdZfyW4AgFYZAAAgIgaDwR9HxEeyO1iU+x955JG3ZUcAQKsMAADwuFpK2ZodwaK8dffu3Z7lAAAnYAAAgEMO3QbwSHYHC/JgRPxcdgQAtKyfHQAArZiZmXl03bp1Z0bE12e3MD+llB8ZDAZ/mt0BAC1zAgAAjvZfI+IfsiOYl4/WWn81OwIAWucEAAB8iZmZmcfWr1+/JpwCGBm11h/csWPH32R3AEDrnAAAgCfo9/u/GBEPZ3cwJ39TSrkpOwIARoETAADwBB/60IceXbt27WmllIuyWzipg71e75Lt27d/KjsEAEaBEwAAcByllP8cETPZHZxYKeWntm3b9v7sDgAYFQYAADiOwWCwPyK+OyJqdgvHdVut9aezIwBglLgFAABOYGZm5u/Xrl377FLKy7NbOMqB4XD4xh07dtybHQIAo8QJAAA4iVWrVv1oRHw2u4MjSin/befOnR/I7gCAUWMAAICTuPHGGz9ba/2+7A4O+6P777//x7IjAGAUuQUAAE5hZmZmZv369WdGxKuzWybcR1etWvXNt95666PZIQAwipwAAIA5qLX+aES8M7tjgj0yHA4vf9vb3va57BAAGFUGAACYg8FgMBsR3xkR92W3TKJa6w/s3Lnzg9kdADDKDAAAMEeDweDeUspVEXEwu2WS1Fr/044dO/5XdgcAjDoDAADMw/bt2/84IjZFxGx2yySotb5lx44dP57dAQDjwEMAAWCeZmZm7ly/fv3HI+JNEVGye8ZVrfVXd+zY8a+zOwBgXDgBAAALsH379t8spfxIdscYe9v69eu/PyJqdggAjAsnAABggW6//fZ3r1u37pyIeFV2y5jZGRHf8Su/8iuetQAAS8gAAACLMDMz8/vr168/IyJend0yDmqtv7x+/fp/5ss/ACw99y0CwBLouu7NEXFdRKxKThlVw1LKD2/fvv2XskMAYFwZAABgiXRd983x+PH1s7NbRszeUsq3b9++fWd2CACMMwMAACyhruteExG3RMS52S0j4jO11m/fsWPHH2aHAMC4MwAAwBLbsGHD06empn4zIv5Jdkvjbj148OB33nzzzQ9mhwDAJDAAAMDyKF3X/WBE/Fx4LsAT7Y+IfzcYDH4pvOYPAFaMAQAAltGmTZu+sdb62xHxrOyWRtxTSvmO7du3vzs7BAAmjdcAAsAyuv322//uZS972W/VWs+LiJfF5I7v+yPiZyLiqsFgcE92DABMokn9EAIAK67ruq+MiF+KiNdmt6ywdwyHwx/YuXOnL/4AkMgAAAAraHp6uvehD33on5VSfjoizsvuWWafqrX+yI4dO64P9/oDQDoDAAAkuOyyy55y2mmnfV+t9Qci4pnZPUvs3lrrW84666y3bt26dW92DADwOAMAACSanp7uzczMvLHW+mMR8bXZPYv0kVrrTz71qU+98brrrjuQHQMAHM0AAABtKF3XfWtEfF9EvCEippJ75qpGxLtLKf/r4YcfvmH37t37soMAgOMzAABAY7que3Kt9U2llGsj4vXR5vX67lLK/6y1/vZgMLg3OwYAOLUWP1AAAId0XfeSUspVtdZvioiviYjTEnM+FhG/V2u9pZTyh4PBYDaxBQCYJwMAAIyIruvOiIhXllK+vtb62oj4uog4axn/Kx+IiD+ttf7RoS/8H17G/y4AYJkZAABgdJUrr7zyy4fD4fkRcX5EnF9rfdGh//+pEfGUiFhzkv/8bER87tD//X1EfLSUck9E3FZr/VtH+wFgvBgAAGCMbdmyZdUXv/jFY04JlFJmb7jhhn/IaAIAAAAAAAAAAAAAAAAAAAAAAAAAAAAAAAAAAAAAAAAAAAAAAAAAAAAAAAAAAAAAAAAAAAAAAAAAAAAAAAAAAAAAAAAAAAAAAAAAAAAAAAAAAAAAAAAAAAAAAAAAAAAAAAAAAAAAAAAAAAAAAAAAAAAAAAAAAAAAAAAAAAAAAAAAAAAAAAAAAAAAAAAAAAAAAAAAAAAAAAAAAAAAAAAAAAAAAAAA4P9vDw4JAAAAAAT9f+0JIwAAAAAAAAAAAAAAAAAAAAAAAAAAAAAAAAAAAAAAAAAAAAAAAAAAAAAAAAAAAAAAAAAAAAAAAAAAAAAAAAAAAAAAAAAAAAAAAAAAAAAAAAAAAAAAAAAAAAAAAAAAAAAAAAAAAAAAAAAAAAAAAAAAAAAAAAAAAAAAAAAAAAAAAAAAAAAAAAAAAAAAAAAAAAAAAAAAAAAAAAAAAAAAAAAAAAAAAAAAAAAAAAAAAAAAAAAAAAAAAAAAAAAAAAAAAAAAAAAAAAAAAAAAAAAAAAAAAGwC+H+H2YvsntoAAAAASUVORK5CYII=;" parent="lZXBPZFwwAsZEzW5uLg--1" vertex="1">
          <mxGeometry x="604.25" y="99" width="27.5" height="27.5" as="geometry" />
        </mxCell>
        <mxCell id="lZXBPZFwwAsZEzW5uLg--21" value="" style="ellipse;whiteSpace=wrap;html=1;" parent="lZXBPZFwwAsZEzW5uLg--1" vertex="1">
          <mxGeometry x="110" y="160" width="380" height="70" as="geometry" />
        </mxCell>
        <mxCell id="lZXBPZFwwAsZEzW5uLg--22" value="Find a roommate" style="rounded=0;whiteSpace=wrap;html=1;" parent="lZXBPZFwwAsZEzW5uLg--1" vertex="1">
          <mxGeometry x="240" y="180" width="100" height="30" as="geometry" />
        </mxCell>
        <mxCell id="lZXBPZFwwAsZEzW5uLg--23" value="Find a Room" style="rounded=0;whiteSpace=wrap;html=1;" parent="lZXBPZFwwAsZEzW5uLg--1" vertex="1">
          <mxGeometry x="140" y="180" width="95" height="30" as="geometry" />
        </mxCell>
        <mxCell id="lZXBPZFwwAsZEzW5uLg--24" value="My Posts" style="rounded=0;whiteSpace=wrap;html=1;" parent="lZXBPZFwwAsZEzW5uLg--1" vertex="1">
          <mxGeometry x="352.5" y="180" width="95" height="30" as="geometry" />
        </mxCell>
        <mxCell id="lZXBPZFwwAsZEzW5uLg--25" value="" style="ellipse;whiteSpace=wrap;html=1;" parent="lZXBPZFwwAsZEzW5uLg--1" vertex="1">
          <mxGeometry x="555.5" y="160" width="120" height="70" as="geometry" />
        </mxCell>
        <mxCell id="lZXBPZFwwAsZEzW5uLg--26" value="Create a Post" style="rounded=0;whiteSpace=wrap;html=1;fillColor=#dae8fc;strokeColor=#6c8ebf;" parent="lZXBPZFwwAsZEzW5uLg--1" vertex="1">
          <mxGeometry x="568" y="180" width="95" height="30" as="geometry" />
        </mxCell>
        <mxCell id="lZXBPZFwwAsZEzW5uLg--27" value="&lt;div&gt;landpage banner&lt;br&gt;&lt;/div&gt;" style="text;html=1;strokeColor=none;fillColor=none;align=center;verticalAlign=middle;whiteSpace=wrap;rounded=0;" parent="lZXBPZFwwAsZEzW5uLg--1" vertex="1">
          <mxGeometry x="85" y="140" width="110" height="30" as="geometry" />
        </mxCell>
        <mxCell id="lZXBPZFwwAsZEzW5uLg--28" value="" style="sketch=0;pointerEvents=1;shadow=0;dashed=0;html=1;strokeColor=none;fillColor=#505050;labelPosition=center;verticalLabelPosition=bottom;verticalAlign=top;outlineConnect=0;align=center;shape=mxgraph.office.concepts.home;" parent="lZXBPZFwwAsZEzW5uLg--1" vertex="1">
          <mxGeometry x="469.5" y="310" width="51" height="50" as="geometry" />
        </mxCell>
        <mxCell id="lZXBPZFwwAsZEzW5uLg--29" value="" style="rounded=0;whiteSpace=wrap;html=1;" parent="lZXBPZFwwAsZEzW5uLg--1" vertex="1">
          <mxGeometry x="440" y="394" width="110" height="80" as="geometry" />
        </mxCell>
        <mxCell id="lZXBPZFwwAsZEzW5uLg--30" value="&lt;font style=&quot;font-size: 10px;&quot;&gt;City, Province, Country&lt;/font&gt;" style="rounded=0;whiteSpace=wrap;html=1;" parent="lZXBPZFwwAsZEzW5uLg--1" vertex="1">
          <mxGeometry x="440" y="400" width="110" height="20" as="geometry" />
        </mxCell>
        <mxCell id="lZXBPZFwwAsZEzW5uLg--31" value="&lt;font style=&quot;font-size: 10px;&quot;&gt;Location&lt;/font&gt;" style="rounded=0;whiteSpace=wrap;html=1;" parent="lZXBPZFwwAsZEzW5uLg--1" vertex="1">
          <mxGeometry x="440" y="420" width="110" height="10" as="geometry" />
        </mxCell>
        <mxCell id="lZXBPZFwwAsZEzW5uLg--32" value="Description" style="rounded=0;whiteSpace=wrap;html=1;" parent="lZXBPZFwwAsZEzW5uLg--1" vertex="1">
          <mxGeometry x="440" y="450" width="110" height="24" as="geometry" />
        </mxCell>
        <mxCell id="lZXBPZFwwAsZEzW5uLg--33" value="&lt;font style=&quot;font-size: 8px;&quot;&gt;Nº Rooms -Square metres&lt;/font&gt;" style="rounded=0;whiteSpace=wrap;html=1;" parent="lZXBPZFwwAsZEzW5uLg--1" vertex="1">
          <mxGeometry x="440" y="430" width="110" height="20" as="geometry" />
        </mxCell>
        <mxCell id="lZXBPZFwwAsZEzW5uLg--34" value="&lt;font style=&quot;font-size: 8px;&quot;&gt;Shared&lt;/font&gt;" style="rounded=0;whiteSpace=wrap;html=1;" parent="lZXBPZFwwAsZEzW5uLg--1" vertex="1">
          <mxGeometry x="520" y="387" width="30.5" height="10" as="geometry" />
        </mxCell>
        <mxCell id="lZXBPZFwwAsZEzW5uLg--35" value="" style="triangle;whiteSpace=wrap;html=1;" parent="lZXBPZFwwAsZEzW5uLg--1" vertex="1">
          <mxGeometry x="540" y="340" width="10" height="10" as="geometry" />
        </mxCell>
        <mxCell id="lZXBPZFwwAsZEzW5uLg--36" value="" style="triangle;whiteSpace=wrap;html=1;rotation=-180;" parent="lZXBPZFwwAsZEzW5uLg--1" vertex="1">
          <mxGeometry x="440" y="340" width="10" height="10" as="geometry" />
        </mxCell>
        <mxCell id="lZXBPZFwwAsZEzW5uLg--37" value="" style="ellipse;whiteSpace=wrap;html=1;" parent="lZXBPZFwwAsZEzW5uLg--1" vertex="1">
          <mxGeometry x="460" y="370" width="10" height="10" as="geometry" />
        </mxCell>
        <mxCell id="lZXBPZFwwAsZEzW5uLg--38" value="" style="ellipse;whiteSpace=wrap;html=1;" parent="lZXBPZFwwAsZEzW5uLg--1" vertex="1">
          <mxGeometry x="480" y="370" width="10" height="10" as="geometry" />
        </mxCell>
        <mxCell id="lZXBPZFwwAsZEzW5uLg--39" value="" style="ellipse;whiteSpace=wrap;html=1;" parent="lZXBPZFwwAsZEzW5uLg--1" vertex="1">
          <mxGeometry x="500" y="370" width="10" height="10" as="geometry" />
        </mxCell>
        <mxCell id="lZXBPZFwwAsZEzW5uLg--40" value="" style="ellipse;whiteSpace=wrap;html=1;" parent="lZXBPZFwwAsZEzW5uLg--1" vertex="1">
          <mxGeometry x="520.5" y="370" width="10" height="10" as="geometry" />
        </mxCell>
        <mxCell id="lZXBPZFwwAsZEzW5uLg--41" value="" style="shape=image;verticalLabelPosition=bottom;labelBackgroundColor=default;verticalAlign=top;aspect=fixed;imageAspect=0;image=data:image/png,iVBORw0KGgoAAAANSUhEUgAAAjoAAAJSCAYAAADK72/3AAAABHNCSVQICAgIfAhkiAAAAAlwSFlzAAA2XwAANl8BwcvkVwAAABl0RVh0U29mdHdhcmUAd3d3Lmlua3NjYXBlLm9yZ5vuPBoAAAAddEVYdFRpdGxlAG15IHJlZCBjaGVjayBtYXJrIC0gcG5npftX4AAAIABJREFUeJzt3XmUpGV5v/HrHoYdRFFkERWjiCvIJqiACyIGd+ICAQFBFjEswRU0aNxNEEWNO2IAETRKDBqNgIoSBJQdyQ8hUZBFkEUYtoFh7t8f1QwzMN1dXV1V9/tWXZ9zOJIEuq/kBOY7z/N2vZGZSJIkzVZELAOsDjxmmj9WAeYCy07853R/3AL8YZI/rsvMhZM2OXQkSdJUIiKAdYH1gacAfwWswcMHzKOAGHLefcD5wDeBkzLzxsX/hw4dSZL0wJh5HA+OmfUX+/MnAyvW1XXtfuCLwHsy8y5w6EiSNFYiYmljZn3aM2a6cQWwQ2Ze6dCRJGlERcSywCbAVhN/vIDOldM4+A3wfIeOJEkjIiJWBLbmwWGzBbBSaVStg+ZWF0iSpN5FxOrAK4DXAtsDK9cWNcp2nuhIktQyEfEEOsPmtXROcDy4WLo/+38YSZJaICIeAewM7AVsXpzTFuHQkSSpwSLi+cBbgTfitdRM3ebQkSSpYSLiMcBudAbO04tz2uw6h44kSQ0REX8FvBvYA1i+tmYknObDyJIkFYuIZwKHAjsByxTnjJItHDqSJBWJiOcChwGvZvjviBp1NwDreHUlSdKQRcSWwEeAbatbRtjnMnOhJzqSJA1JRKwFfBJ4M57gDNI84AmZ+RdPdCRJGrCJd04dBBwOrFqcMw6+nJl/Ad9eLknSQEXEy4HPABtUt4yJe4EnZeZ14EdGS5I0EBHxZODTwKuqW8bMsQ+MHPBER5KkvoqIlen8JNU78LNwhm0h8LTMvOKB/4YnOpIk9UlE7Az8M/C46pYx9b3FRw54oiNJ0qxFxEbA5+i8SVw1EtgsM89f/L85pyhGkqTWi4hHR8QXgPNw5FQ7+qEjBzzRkSRpxiIigP3ofOjf6sU5gpuBDTLz5of+D3xGR5KkGYiIJwHfALYpTtGD3ru0kQOe6EiS1LWI2I/Ow8arVLdokbOB5+ckg8ahI0nSNCJiXeDrwHbVLVrC/cDmmXnBZH+BDyNLkjSFiNgDuBRHThN9YaqRA57oSJK0VBMv4PwKfrJxU91A5wHk26b6izzRkSTpISLiTXROcRw5zfXO6UYOeKIjSdIiEfEY4AvAG6pbNKUzMvNF3fyFDh1JkoCIeAVwNLBmdYumdB/wnMy8rJu/2KsrSdJYi4hlI+II4BQcOW3wj92OHPBER5I0xiJiPeBEYIvaEnXpV8DWmXl/t3+DQ0eSNJYi4nV0PhvnkdUt6sqddK6srpzJ3+TVlSRprETE8hHxOeB7OHLa5JCZjhzwREeSNEYi4inAScAm1S2akR9m5it7+RsdOpKksRARO9H5AMBVq1s0IzcBz87MP/XyN3t1JUkaaRM/VfVF4Fs4ctpo315HDsDcfpZIktQkEbEa8F1g2+oW9eRfM/N7s/kCXl1JkkZSRDwJ+CHw9OoW9eQqYMPMvH02X8SrK0nSyImILYGzceS01UJg99mOHHDoSJJGTES8AfgZ8NjqFvXsyMw8ox9fyKsrSdLIiIj3Ah8DorpFPbsU2Cwz5/fji3miI0kaCRFxGPBxHDltdi+wa79GDjh0JEkjICL2Aj5a3aFZOzwzL+rnF/TqSpLUahHxSDo/ofOI6hbNypnACzNzYT+/qCc6kqS22xtHTtvNA3br98gBh44kqcUiYg6wf3WHZu3gzPz9IL6wQ0eS1GavANarjtCsfD8zvz6oL+4zOpKkVoqIZYBfAZtXt6hnNwLPysw/D+obeKIjSWqrd+DIabu9BzlywBMdSVILRcQGwIXACtUt6tnXMnPvQX8Th44kqVUmHkA+E3hedYt6dgmwZWbeNehv5NWVJKltDsKR02bzgNcPY+SAJzqSpBaJiKfSubJasbpFPXtjZn5nWN/MEx1JUitExMrAd3HktNlRwxw54ImOJKklIuIk4I3VHerZ2cA2mXnfML+pJzqSpMaLiHfjyGmzm+hcWQ115IAnOpKkhouIlwI/BpapblFPFgJ/nZk/qfjmnuhIkhorItYDTsSR02Yfrho54ImOJKmhImJF4CzgOdUt6tlP6Jzm9P2t5N3yREeS1FRfwZHTZpfReS6nbOSAQ0eS1EARcRCwa3WHenYj8IrMvK06xKsrSVKjRMQLgdOAudUt6sk9wIsz8+zqEPBER5LUIBGxLvBtHDltlcBuTRk54NCRJDVERCwPfA94bHWLenbYsD/5eDoOHUlSU3wB2Lw6Qj37emZ+ojrioXxGR5JULiLeRmfoqJ1+Bmxf8cnH03HoSJJKRcTzgZ8DyxanqDdXAFtm5i3VIUvj0JEklYmItYHzgLWrW9STW+mMnN9Vh0zGZ3QkSSUmHj4+GUdOW90HvL7JIwccOpKkOl8BtqiOUM/enpk/rY6YjkNHkjR0EXEIsFt1h3p2ZGZ+tTqiGz6jI0kaqojYHvghvpG8rX4AvKb6HVbdcuhIkoYmIp4KnAM8srpFPbkYeEFm3lEd0i2HjiRpKCJiNeBs4GnVLerJDcBzM/Pq6pCZ8BkdSdLARcQc4AQcOW11D53rqlaNHHDoSJKG4+PADtUR6tlbMvOc6oheOHQkSQMVEbsA767uUM8+mJknVkf0ymd0JEkDExGbA78AVqhuUU++lZl/Wx0xGw4dSdJATLze4dfA46pb1JOzgRdn5j3VIbPh1ZUkqe8We72DI6edrgZe2/aRAw4dSdJgfBlf79BW84BXZuYN1SH94NCRJPXVxOsddq/uUE8WAjtn5iXVIf3iMzqSpL7x9Q6td0hmfro6op8cOpKkvoiI9YFz8fUObfXVzNynOqLfHDqSpFnz9Q6tdzbwwsy8tzqk33xGR5I0K77eofVuBF4/iiMHHDqSpNnz9Q7ttQB4Y2ZeWx0yKA4dSVLPfL1D6707M8+ojhgkn9GRJPXE1zu03omZuXN1xKA5dCRJM+brHVrvUmDLzLyzOmTQvLqSJM3IxOsdvocjp61uA143DiMHHDqSpJn7MrBldYR6ksCbM/PK6pBhcehIkroWEW/D1zu02Ucy85TqiGHyGR1JUlci4rnAL4HlqlvUkx/ReVnnwuqQYXLoSJKmFRGPBs4HnlDdop78H7BZZt5aHTJsXl1Jkqa02CcfO3La6W5gx3EcOeDQkSRN74PAy6oj1LN9MvOi6ogqXl1JkiYVETsAPwCiukU9+VxmHlgdUcmhI0laqohYDzgPWL22RD06E3hJZt5XHVLJoSNJepiJDwX8b2DT6hb15Hpgk8z8U3VINZ/RkSQtzedw5LTVfcAbHDkdDh1J0hIi4i3A3tUd6tkhmfnf1RFN4dWVJGmRiHgO8Ct8I3lbHZeZu1VHNIlDR5IEQEQ8ks7Dx39V3aKeXAg8PzPvrg5pEq+uJElERADH4shpq1vpfCigI+chHDqSJIBDgVdVR6gnC4G/zczfV4c0kUNHksZcRGwLfKi6Qz37YGb+uDqiqXxGR5LGWESsS+dlnWtUt6gnpwCvSX8xn5RDR5LGVEQsC/wC2LK6RT25Atg8M2+rDmkyr64kaXwdiSOnre6k8/CxI2caDh1JGkMRsTPwd9Ud6tlemXlpdUQbeHUlSWMmIp4JnAOsXN2inhyZme+ojmgLh44kjZGIWBX4NbBBdYt68nNgu8xcUB3SFl5dSdJ4+TqOnLa6FniTI2dmHDqSNCYi4hDg9dUd6sm9wN9k5o3VIW3j1ZUkjYGI2Br4KTC3ukU92S8zv1wd0UYOHUkacRGxFp0PBVy7ukU9OSYz96yOaCuHjiSNsIiYC5wGvLC6RT05D9gqM++pDmkrn9GRpNH2cRw5bXUznedyHDmz4ImOJI2oiNgR+G51h3qyEHh5Zp5aHdJ2nuhI0giKiKcCx1R3qGfvc+T0hyc6kjRiImIlOp98/KzqFvXk5MzcsTpiVHiiI0mj5ys4ctrqcmD36ohR4tCRpBESEfsDu1R3qCd3AK/LzHnVIaPEqytJGhERsQXwC2C56hb15PWZ6cPjfeaJjiSNgIh4NPAdHDlt9U+OnMHwREeSWi4iAvgBsEN1i3pyOrB9Zt5fHTKKPNGRpPZ7F46ctvojsJMjZ3A80ZGkFouIFwA/x5d1ttF8YOvM/HV1yCjzREeSWmriuZwTceS01d85cgbPoSNJLTTxXM5xwLrVLerJVzPza9UR48ChI0nt9B7gr6sj1JNzgQOqI8aFz+hIUstExFbAz/DKqo3+DGyamX+sDhkXnuhIUotExGPwuZy2up/OT1g5cobIoSNJLbHYczmPq25RT96bmT+tjhg3Dh1Jao/3Ai+vjlBPvpOZR1RHjCOf0ZGkFoiIrek8l7NMdYtm7DJgi8y8ozpkHDl0JKnhImIN4AK8smqj24HnZubl1SHjyqsrSWown8tptQR2d+TUcuhIUrMdCmxfHaGefDwz/706Ytx5dSVJDRUR2wA/xedy2ugHwGsyc2F1yLhz6EhSA008l3MhsE51i2bsQjov6/Th4wbw6kqSGiYi5gDH48hpo+uAVzpymsOhI0nNcxjwsuoIzdidwKsy89rqED3IqytJapCIeCFwOj6X0zYLgddl5n9Uh2hJnuhIUkNExGOBb+HIaaN3OXKayaEjSQ0w8VzON4G1q1s0Y1/KzCOrI7R0Dh1Jaob3AS+tjtCM/QQ4oDpCk/MZHUkqFhEvBk7FK6u2+S3w/My8vTpEk3PoSFKhiFiTzueurFXdohm5gc6LOq+qDtHUvLqSpCKLPZfjyGmXu+l86rEjpwUcOpJU5x+AbasjNCMPvKjznOoQdcerK0kqEBEvofNcjr/hbJfDMvPj1RHqnkNHkobM53Ja65jM3LM6QjPj0JGkIZp4LudU4CXVLZqRnwHbZ+Z91SGaGY9MJWm4DseR0za/A/7GkdNOnuhI0pBExLZ0PmDO32S2xy3Alpl5RXWIeuPQkaQhiIi16DyXs2Z1i7p2H7BdZp5RHaLe+bsKSRqwiedyTsCR0zb7OnLaz6EjSYP3AeDF1RGakU9m5jHVEZo9r64kaYAi4qXAf+FvLNvkZDoPH/sL5Ahw6EjSgETE2nSey3lsdYu6dh6wTWbeVR2i/vB3GJI0ABGxDJ3nchw57XEt8GpHzmhx6EjSYHwQeFFxg7p3J/CqzLyuOkT95dWVJPVZRGwH/Bh/M9kmO2bmydUR6j//IZSkPpp4Lud4/Pdrm/yLI2d0eaIjSX3ie6xa6bfAZpl5T3WIBsPfcUhS/xyGI6dN7gF2duSMNk90JKkPImIr4OfAMsUp6t6Bmfm56ggNlkNHkmYpIlan83k5j69uUdf+MzNfUR2hwfPqSpJm7+s4ctrkBuAt1REaDoeOJM1CRBwAvKa6Q11LYI/MvLE6RMPh1ZUk9SgiNgZ+BSxf3aKuHZWZB1dHaHgcOpLUg4hYBTgfWL+6RV27GHhuZs6vDtHweHUlSb35Io6cNrmbzo+SO3LGjENHkmYoInYHdq3u0Iy8MzMvq47Q8Hl1JUkzEBEbAOcBK1e3qGunZOarqyNUw6EjSV2KiOWBc4CNqlvUteuBDTPzpuoQ1fDqSpK6dySOnDZJYHdHznhz6EhSFyLidcD+1R2akSMz89TqCNXy6kqSphERTwQuAB5V3aKuXUTnR8nvrQ5RLU90JGkKETEX+BaOnDaZD+zqyBE4dCRpOh8CnlcdoRk5LDMvrY5QM3h1JUmTiIjtgP8CorpFXfsp8NL0FzdNcOhI0lJExJp0nvNYs7pFXfsLnR8l/2N1iJrDqytJeoiICOA4HDlt83ZHjh7KoSNJD/ceYLvqCM3IiZl5QnWEmserK0laTEQ8D/gFMLe6RV27hs6V1a3VIWoeT3QkaUJEPJLOj5I7ctojgT0cOZqMQ0eSHnQ08MTqCM3IUZl5enWEmsurK0kCImJ/4F+qOzQjvwU2y8x7qkPUXA4dSWMvIjYCzgZWqG5R1+4FtsjMC6tD1GxeXUkaaxGxMnAijpy2OdyRo244dCSNu88DT6uO0Iz8Evjn6gi1g1dXksZWROxK54MB1R63Axtl5h+qQ9QODh1JYyki1gfOB1apblHXEvibzDy5OkTt4dWVpLETEcsBJ+HIaZtPOnI0Uw4dSePon4GNqyM0I6cD76+OUPt4dSVprETEq4HvV3doRv4IbJKZN1WHqH0cOpLGRkQ8HrgQWL26RV2bD2yTmedWh6idvLqSNBYiYhngBBw5bXOgI0ez4dCRNC4+CGxVHaEZOSYzv1IdoXbz6krSyIuIlwCn4m/u2uQ8YCvfY6XZcuhIGmkRsQZwEbB2dYu6dh3w3My8tjpE7efvbiSNrIgI4FgcOW1yN/AaR476xaEjaZS9E3h5dYS6lsDumfmb6hCNDq+uJI2kiHgucCawbHWLuvaBzPxQdYRGi0NH0siJiNWAC4AnVbeoaydm5s7VERo9Xl1JGkVfxpHTJucCb6mO0Ghy6EgaKRHxFuBN1R3q2jXAa/0xcg2KV1eSRkZEPBU4H1i5ukVduYvOZ+VcUB2i0eWJjqSREBHLAd/CkdMWCbzZkaNBc+hIGhUfAzapjlDX3p+Z36uO0Ojz6kpS60XEy4AfA1Hdoq58MzN3rY7QeHDoSGq1iVc8XAysVd2irvwKeHFmzq8O0Xjw6kpS230DR05bXA28zpGjYXLoSGqtiDgI2KG6Q125G3h1Zt5QHaLx4tWVpFaKiI2Ac4Dlq1vUlT0z85jqCI0fT3QktU5ErETnR8kdOe1wjCNHVRw6ktro08DTqyPUlUuAt1dHaHx5dSWpVSJiR+C71R3qyjxgs8z8XXWIxpcnOpJaIyIeD3ytukNd29uRo2oOHUmtEBFzgOOBR1W3qCv/kpknVUdIDh1JbfE+YJvqCHXlN8Ah1RES+IyOpBaIiOcBvwDmVrdoWrcCm2TmH6pDJPBER1LDRcRqwAk4ctoggT0cOWoSh46kpvsSsF51hLpyRGb+R3WEtDivriQ1VkTsAfhBc+1wJp2XdS6oDpEW59CR1EgRsT5wPrBKdYum9Wdg48y8tjpEeiivriQ1TkQsS+cVD46c5lsI7OLIUVM5dCQ10UeBTasj1JUPZ+ap1RHSZLy6ktQoEbEd8F9AVLdoWqcB22fmwuoQaTIOHUmNERFrABcDa1W3aFrX0Xku58bqEGkqXl1JapJjcOS0wQJgJ0eO2sChI6kRIuJA4BXVHerK+zLzl9URUje8upJULiI2BM4Flq9u0bROAV6T/uKhlnDoSCoVESvSeQnkM6pbNK0/0HmP1a3VIVK3vLqSVO3TOHLa4F7gjY4ctY1DR1KZiHgdsG91h7ryjsz8dXWENFNeXUkqERHrAhcBq1e3aFrfzsw3VUdIvXDoSBq6iJgD/BR4YXWLpvU7YLPMnFcdIvXCqytJFQ7FkdMGdwNvcOSozTzRkTRUEbEl8EtgbnWLprVXZn69OkKaDYeOpKGJiEcAFwJPqm7RtL6RmW+pjpBmy6srScP0JRw5bXApsH91hNQPDh1JQxERuwM7V3doWnfR+bycu6tDpH5w6EgauIh4CvD56g515aDM/J/qCKlffEZH0kBFxLLAWcBm1S2alp+Xo5HjiY6kQfsIjpw2+AOwT3WE1G+e6EgamIh4KfATIKpbNKUFwNaZeXZ1iNRvnuhIGoiIeDTwrzhy2uAfHDkaVZ7oSBqIiPgusGN1h6Z1GvCy9BcDjSiHjqS+i4i3AH6ibvP9GdgwM/9UHSINikNHUl9FxJPpfPrxKtUtmlICr8jMH1WHSIPkMzqS+iYilgGOw5HTBp925GgcOHQk9dP7gOdVR2ha59F5g7w08ry6ktQXEbEFcCa+lbzp5gGbZOaV1SHSMHiiI2nWImJl4HgcOW2wvyNH48ShI6kfPgM8pTpC0zouM4+vjpCGyasrSbMSEa8FTq7u0LSuoHNldUd1iDRMDh1JPYuItYBLgMdUt2hK9wLPy8zzq0OkYfPqStJsHIMjpw3e68jRuHLoSOpJRBwAvLy6Q9P6TzrPUEljyasrSTMWEc+g81ksK1S3aErXAxtl5p+rQ6QqnuhImpGIWA74Jo6cplsIvNmRo3Hn0JE0Ux8BnlMdoWl9MjNPr46Qqnl1JalrEfEi4HT8TVLT/QrYJjMXVIdI1Rw6kroSEY8ELgYeX92iKd0GPCcz/1AdIjWBvyuT1K0v4shpg70dOdKDHDqSphURuwA7VXdoWl/NzO9UR0hN4tWVpClFxBOBi4DVqls0pcuAzTPzruoQqUk80ZE0qYiYAxyLI6fp7gF2cuRID+fQkTSVdwPbVEdoWu/IzEuqI6Qm8upK0lJFxCbA2cCy1S2a0r9n5uuqI6SmcuhIepiIWBE4H3hadYum9Ec6P0p+S3WI1FReXUlamiNw5DTd/cAujhxpag4dSUuIiB2A/as7NK0PZeYvqyOkpvPqStIiEbEGcAmwZnWLpvQL4CWZeX91iNR0nuhIWtzXcOQ03S10rqwcOVIXHDqSAIiIfYBXV3doWntm5jXVEVJbeHUliYhYH7gAWLm6RVP6fGYeUB0htYlDRxpzETEXOAvYvLpFU7oI2CIz51eHSG3i1ZWkD+DIabq76LziwZEjzZAnOtIYi4gXAGcAy1S3aEpvzcyjqyOkNnLoSGMqIlalcx3ypOoWTemkzNypOkJqK6+upPH1ORw5Tfd7YJ/qCKnNHDrSGIqI1wO7V3doSguAnTPz9uoQqc0cOtKYiYjHAV+u7tC03p+Z51RHSG3nMzrSmImIHwPbV3doSqcBL0v/BS3Nmic60hiJiH1x5DTdjcCbHTlSf3iiI42JiHgScDGwSnWLJpXADpn54+oQaVR4oiONgYgI4BgcOU13pCNH6i+HjjQeDgJeWB2hKf0GOLQ6Qho1Xl1JIy4iNqDzws4Vq1s0qXnAJpl5ZXWINGo80ZFGWEQsA3wDR07Tvc2RIw2GQ0cabe8CtqyO0JSOzcxvVkdIo8qrK2lERcSz6Tz3sVx1iyb1O2DTzLyjOkQaVZ7oSCMoIpYF/hVHTpPdS+cVD44caYAcOtJoej+wcXWEpvSezDy/OkIadV5dSSMmIjYFzgbmVrdoUj/MzFdWR0jjwKEjjZCIWB44H3hGdYsmdT2wYWbeVB0ijQOvrqTR8mEcOU22ENjVkSMNj0NHGhER8XzgHdUdmtInMvOn1RHSOPHqShoBEbEScBHwlOoWTepXwDaZuaA6RBonnuhIo+GTOHKa7C90fpTckSMNmUNHarmIeAnw9uoOTWnvzLyqOkIaR15dSS0WEasClwBPrG7RpL6SmftWR0jjyhMdqd2OxJHTZJcBB1dHSOPMEx2ppSLir4H/rO7QpO4BNs/MS6tDpHHmiY7UQhHxKOBr1R2a0iGOHKmeQ0dqp88B61RHaFInZ+YXqyMkeXUltU5E7Ah8t7pDk/ojsFFm3lodIsmhI7VKRKwB/BZYo7pFS3U/8KLMPLM6RFKHV1dSu3wJR06T/aMjR2oWT3SkloiIXYDjqzs0qTOAl2TmwuoQSQ9y6EgtEBHrAJcCj6pu0VLdTOe5nGurQyQtyasrqR2+iiOnyfZ05EjN5NCRGi4i9gJ2qO7QpD6Xmf9RHSFp6by6khosItYG/gdYrbpFS3URsEVmzq8OkbR0nuhIzfZpHDlNdSewkyNHajaHjtRQEfEy4E3VHZrUgZn5/6ojJE3NqyupgSJiBTo/ZfXk6hYt1YmZuXN1hKTpeaIjNdNhOHKa6v+AfasjJHXHEx2pYSJiA+BiYLnqFj3MfcBWmXludYik7niiIzXPF3HkNNX7HTlSu3iiIzVIROwKHFfdoaU6Fdg+/Zem1CoOHakhIuJRwP8DHlvdooe5EdgwM2+oDpE0M15dSc3xcRw5TbWHI0dqJ090pAaIiC2Bs4CobtHDfD4zD6iOkNQbh45ULCLmAr8BNqpu0cNcBmyWmXdXh0jqjVdXUr2DcOQ00b3ALo4cqd080ZEKRcTj6ZwarFLdood5V2YeUR0haXY80ZFqfRZHThP9DPhUdYSk2fNERyoSEa8C/qO6Qw9zK50fJb+mOkTS7HmiIxWIiJWAz1V3aKn2c+RIo8OhI9X4APDE6gg9zLGZ+e3qCEn949WVNGQR8SzgAmBudYuW8Htgo8ycVx0iqX880ZGG7/M4cprmfmBXR440ehw60hBFxBuBF1Z36GE+lplnVUdI6j+vrqQhiYgV6by08wnVLVrCOcBWmbmgOkRS/3miIw3Pe3DkNM0ddK6sHDnSiPJERxqCiHgi8D/AitUtWsJbM/Po6ghJg+OJjjQcR+DIaZqTHTnS6PNERxqwiHgx8NPqDi3hOjqffnxzdYikwfJERxqgiFgGOKq6Q0tIYA9HjjQeHDrSYO0HPLs6Qks4KjNPrY6QNBxeXUkDEhGPBn4HrF7dokUuATbPzPnVIZKGwxMdaXA+jCOnSeYDuzhypPHi0JEGICKeC+xT3aElvDczL6mOkDRcXl1JfRYRq9B5aedTqlu0yKnA9um/8KSx44mO1H+fwZHTJDfT+SkrR440hnyD8kNExErACnRG4DIT//nAny8Abs3Mu+sK1WQRsSOwV3WHlrB3Zl5XHSGpxthdXUVEAOsAfwU8eeKPxf/8MV18mfnAX4BbgT8BvwLOAM7KzHkDyFYLRMQ6wMXAo6tbtMjRmfnW6ghJdUZ+6ETEqsDLgVcBm9IZNSsM6NvdD/wa+ERmfn9A30MNNDGgfwK8tLpFi1wJbJyZd1SHSKozkkMnIp5AZ9i8GngRsFxBxlnAezLzzILvrSGLiEOAT1V3aJEFwFaZeU51iKRaIzF0Jn43vRkPjpuNaouW8AXg73wQcnRFxIbAucDy1S1a5PDM/HB1hKR6rR46EbERnY/Yfw2wdnHOVL4B7JWZC6tD1F8RsQLwG+CZ1S1a5Cxgm8y8vzpEUr3W/dRVRMyhc2pzEJ1rqTbYA1guInbzX74j5+M4cppkHrCr/5xJekBrhk5ErAbsCRwAPKk4pxd/C9wF7F0dov6IiG3pDG41x99l5u/hlpj8AAAYJ0lEQVSrIyQ1R+OvriJifeBAOqciq9TW9MXrM/O71RGanYh4JJ0XRK5b3aJFvp2Zb6qOkNQsjR06EbEdcDDw10AU5/TTzcCGfoBZu0XECcDO1R1a5Bo6/1zdWh0iqVka9wqIiNg2Is6n85kkOzBaIwc6HyZ3zMRPiqmFImInHDlNksDujhxJS9OYoRMRT4+IHwCnARtX9wzYy4C3V0do5iJiXTofGaDm+FRm/rQ6QlIzlV9dRcRjgX+k85DuMqUxw3UL8FeZeVt1iLrjpx830oXAFpl5b3WIpGYqO9GJiBUi4lA6H9O+H+M1cgBWB95RHaEZORBHTpPcDeziyJE0laGf6Ez8rngX4GPA44f6zZvnDjqnOn+uDtHUIuIZwHkM7j1pmrkDMvPz1RGSmm2oJzoRsQ2dl14ehyMHOj8u/97qCE0tIpYFjseR0yQ/cuRI6sZQTnQiYiXgn/AB3KW5B1g/M6+pDtHSRcTHgEOrO7TIn4FnZ+YN1SGSmm/gJzoRsTlwPo6cyawA/EN1hJYuIl4AvKe6Q0vYy5EjqVsDO9GJiLnAYXR+EW/NqyaKLACenplXVofoQRGxKnAR7XzlyKj6cmbuVx0hqT0GcqIz8dqGM+n82LgjZ3pz6fzfSs3yGRw5TXI5cEh1hKR26fuJTkTsB3wKWKmvX3j0LQQ2ysxLq0MEEfFa4OTqDi1yH/C8zDyvOkRSu/TtRCci1oqI/wS+iCOnF3OAj1RHCCJiTeAr1R1awgccOZJ60ZcTnYh4GXACnfc4aXa2yMxzqyPGWUScAryyukOL/AJ4cWYurA6R1D6zPtGJiD2BH+LI6ZePVQeMs4jYBUdOk9wG7ObIkdSrWQ2diPggcDQ+cNxP20bEi6sjxlFErEHnAWQ1x/6ZeVV1hKT26mnoRMSyEXEM8IE+96jjo9UBY+oo4DHVEVrkhMw8oTpCUrvN+Bmdic8W+S6w3UCK9IAXZeYZ1RHjIiJeCZxS3aFFrgY2zMzbqkMktduMTnQiYh3glzhyhuHd1QHjIiIeQeenBdUMC4E3O3Ik9UPXQycingWcDWw0uBwtZoeIeHZ1xJj4JLBudYQW+WRm/qI6QtJo6OrqauJ9VacCqw28SIs7LjN3q44YZRGxDfBzIIpT1HEenQ8GvK86RNJomHboRMTjgF8Daw+lSItbADw5M6+uDhlFEbECnXdZPbW6RQDcBWySmZdXh0gaHVNeXUXEisD3ceRUmQv8fXXECPsAjpwmOcSRI6nfJj3RiYgATgLeMNQiPdSdwBMy85bqkFESERsD5+JnQDXFKZn56uoISaNnqhOdD+DIaYKVgf2rI0ZJRMzFD7pskhuAvaojJI2mpQ6diHgjcPiQWzS5AyeuEdUf7wQ2ro7QIm/JzD9XR0gaTQ8bOhGxKfAN/CmUJlkD2KM6YhRExFPxE72b5F8y80fVEZJG1xLP6ETEI4FLgceVFWky/wtskJn3V4e01cRzZ2cAW1e3CIDLgM0y8+7qEEmj66EnOh/EkdNUTwb+pjqi5fbDkdMU9wK7OHIkDdqiE52IeDpwMT6g2WTnZeZm1RFtFBHr0jlBWLW6RQC8OzP/uTpC0uhb/ETn0zhymm7TiNi2OqKlvoQjpyl+BhxRHSFpPERmPvAeq0uqY9SVUzPzZdURbRIROwMnVHcIgFvpvJX8muoQSePhgROdPSojNCPbTXzYnboQEY8BPlvdoUX2c+RIGqY5Ex+etmt1iGbk3dUBLXIU8JjqCAFwbGZ+uzpC0ngJ4AXAmdUhmpH7gfUz8/fVIU0WETsAP6zuEAC/BzbKzHnVIZLGyxzg6dURmrFlgHdURzRZRKxK5wFk1bsf2NWRI6nCHOBp1RHqyZ4Tz59o6T4BPL46QgB8LDPPqo6QNJ4cOu21InBAdUQTRcTWwNuqOwR03hD/oeoISeMrgCuAp1SHqCc3A0/IzLuqQ5oiIlYALgQ2qG4RdwAbZ+aV1SGSxtccYJXqCPXs0cBbqyMa5nAcOU1xsCNHUrUArgXWqQ5Rz64CnpKZC6pDqkXEc4Bf4yd8N8HJmbljdYQkzQFy2r9KTfZE4A3VEdUmPg/qaBw5TXA9sHd1hCRBZ+gsrI7QrB1UHdAA7wA2qY4QCeyemTdXh0gSeKIzKraIiOdWR1SJiPWBD1Z3CICjMvPU6ghJesAcYOyf7RgRB1YHVIiIAL4GrFDdIi4B3lsdIUmLm0PnYWS13xsiYq3qiAL7AttUR4j5wC6ZOb86RJIWN4fOO2jUfssB+1VHDFNEPAH4ZHWHAHhvZl5SHSFJD+XQGS37RcRy1RFD9DXgEdUR4lQ6b4mXpMZx6IyWNYE3VkcMQ0TsA2xX3SFuBvbITH+oQVIjzQH+UB2hvhr5h5Ij4onAEdUdAmCfzLyuOkKSJuOJzujZPCK2rI4YlImfsjoaWLW6RRydmd+rjpCkqcwBrgHuqw5RX43yqc6+wLbVEeJ/gYOrIyRpOpGZRMRvgWdUx6hv7gPWG7UrhYhYj85ntfgi2loLgRdm5pnVIZI0nTkT//mb0gr127KM2I+aT1xZfR1HThMc6ciR1BYOndG1b0QsXx3RR28DXlwdIS4D3l8dIUndcuiMrscCb6qO6IeIeBLwT9UdYgGwm59+LKlNHhg6F+I7r0ZR6x9KXuzKauXqFvGxzDyvOkKSZmIOQGbeTedIWqNl04h4QXXELL0deFF1hDgf+Eh1hCTN1JzF/vzXZRUapNae6kTEk4FPVHeI+cDumenHUEhqncWHjs/pjKYdI+Jx1REz5ZVVoxyemZdWR0hSLxw6o28usH91RA8OALapjhBn4es2JLVYPPAuvom3Xs8Dxunt1+PiJuDxmXlPdUg3IuIpwEXAStUtY+4u4DmZeUV1iCT1atGJTmbeC5xb2KLBeQywc3VENyJiDp0rK0dOvfc4ciS13ZyH/NenlVRoGNryUPJhwNbVEeJ04F+qIyRpthZdXQFM/CiyH+0+urbJzF9WR0wmIl5I5xfYZapbxtztwLMz8+rqEEmarYee6JxD5zkdjabGnupExGOBb+HIaYKDHTmSRsUSQyczFwBnFLVo8HaceNC3USaeyzkeWLu6RfwgM4+pjpCkfnnoiQ74nM4omwO8qzpiKd4HbFcdIW4G9q6OkKR+WuIZHYCIeAbw25ocDcF84EmZeX11CEBEvIjOuPbKqt5OmXlSdYQk9dPDTnQy8zKgEb8IaiCWB/6+OgIWPZdzAo6cJvi2I0fSKFra1RV4fTXq9ouIR1YGTDyX8018LqcJ/kQ7Pz1bkqbl0BlPq1L/C9v7gZcWN6hjn8y8uTpCkgbhYc/oAETEOsC1w8/REN0IrJeZdw/7G0fEi+mM6cmGtobnmMzcszpCkgZlqb/QZOZ1wP8MuUXD9Vhg6L/ARcSadJ7LceTUuxo4uDpCkgZpql9svL4afe+MiLnD+maLPZez1rC+pyaVwJ6ZeXt1iCQNkkNnvK0HHDDE7/cPwLZD/H6a3Bcy8/TqCEkatKU+owMQEY+g8wFiQ/sdv0rcATwjM/84yG8SEdsCP8Erqya4EtgoM++qDpGkQZv0F52JI+1zh9iiGqsAnx3kN4iIZwL/hiOnCRYCuztyJI2L6X7h8fpqPLw2Il49iC8cEesCPwZKP7dHixyRmWdVR0jSsEx6dQUQEVsDvxhejgpdTecK685+fcGJDyU8E3hmv76mZuW3wKaZOb86RJKGZboTnbPpPMOh0fcE4B/79cUiYnng+zhymmIBsJsjR9K4mXLoZOZ9eKIzTg6OiI1m+0Umfoz8eGCb2SepTz6SmedXR0jSsHXzcKjP6YyPZYCvTpzGzMZngNf3oUf9cR7w0eoISarQzdA5deAVapLNgWMjInr5myPiPQz3s3k0tQXAXpm5oDpEkipMO3Qy81I6bzfW+HgjcMRM/6aI2BX4eP9zNAufycyLqiMkqUq3n2viJ6iOn0Mi4qBu/+KI2A74OtDTSZAG4irgg9URklSp26Hjczrj6ciImPZZm4h4LXAysOzgkzQDb+/nxwVIUhs5dDSVOcBxEfHSyf6CiWdyvgesPLQqdeM7mfnD6ghJqtbV0MnMa4DLB9yiZloB+K+I+HhELDqxiYg1I+JY4BN4XdU0twFdXztK0iib8pORl/gLIz4PvH2wOWq46+i8mHMF4G/wqqqp3p6ZX6iOkKQmmMnQeTWdT7qV1FznAM/PzIXVIZLUBDMZOisDN9H53byk5llA511WF1eHSFJTdPswMhM/vfHTAbZImp0jHTmStKSuh86EUwZSIWm2/kAfX8oqSaNipkPnBwOpkDRb+2fmXdURktQ0Mxo6Ez9mfsGAWiT15tuZ+aPqCElqopme6IDXV1KT+Jk5kjQFh47Ubu/NTF+6K0mT6PrHyxf9DREBXAusPZAiSd36FfCCnOk/xJI0RmZ8ojPxL1UfSpZqLQD2deRI0tR6uboCr6+kap/KzEuqIySp6WZ8dQUQESvR+ZTkFfteJGk61wNPzcw7qkMkqel6OtGZ+LyO0/vcIqk7hzpyJKk7vV5dgddXUoXfAMdWR0hSW/R0dQUQEesA1wDR1yJJU9kqM/+7OkKS2qLnE53MvA44v48tkqZ2oiNHkmZmNldX4PWVNCx3A++pjpCktnHoSO1wRGZeXR0hSW3T8zM6i75AxDXA4/qTI2kprgU2yMw7q0MkqW1me6IDfkqyNGiHOnIkqTf9GDpeX0mDcy5wfHWEJLVVP66uVgBuBlbqS5GkByyg89LOc6tDJKmtZn2ik5n3AKf1oUXSkg535EjS7PTj6gq8vpL67SfAJ6ojJKntZn11BRARa9P5yRA/JVmaveuB52TmjdUhktR2fTnRyczr6byDR9LsLAR2ceRIUn/06+oKvL6S+uHDmfmz6ghJGhV9uboCiIjnABf05YtJ4+nnwLaZubA6RJJGRd+GDkBEXA08vm9fUBofNwEbTbwsV5LUJ/28ugI/JVnq1Z6OHEnqv34PHZ/TkWbus5npPzuSNAD9vrpans6nJK/cty8qjbYLgS0zc351iCSNor6e6Ez8y/rUfn5NaYTdCezkyJGkwen31RV4fSV164DMvLw6QpJGWV+vrgAiYk06n+zqpyRLkzsxM3eujpCkUdf3oQMQEWcDW/T9C0uj4f+AjTPz9uoQSRp1g7i6Aq+vpMncB+zsyJGk4XDoSMP1D5l5bnWEJI2LgVxdAUTEH4AnDuSLS+10KrB9DuofOknSwwzqRAf8lGRpcTcCuzlyJGm4Bjl0vL6SOhLYPTP/VB0iSeNmkEPnZ8AdA/z6UlscmZk/ro6QpHE0sKGTmfcCPxnU15da4jzgsOoISRpXgzzRAa+vNN7m0XnFw73VIZI0rgY9dH4I3D/g7yE11d9n5pXVEZI0zgY6dDLzz8CZg/weUkP9KDOPro6QpHE36BMdgO8N4XtITXIr8NbqCEnScIbOyXR+vFYaFwdm5nXVEZKkIQydzPwj8OtBfx+pIU7OzOOrIyRJHcM40QGvrzQebgL2q46QJD3IoSP1z9sy88bqCEnSg4YydDLzCuCSYXwvqciJmflv1RGSpCUN60QHPNXR6PoT8PbqCEnSwzl0pNnbJzNvqY6QJD3c0IZOZl4M+CmxGjXfyExfdSJJDTXMEx3wVEej5Rrg4OoISdLkHDpS7/bKzNuqIyRJkxv20DkXuHbI31MahC9l5k+qIyRJUxvq0MnMpPNKCKnNfg+8qzpCkjS9YZ/oAHy34HtK/ZLAWzLzjuoQSdL0KobOL+l8VL7URp/NzDOqIyRJ3Rn60MnM+4HvD/v7Sn3wO+DQ6ghJUvcqTnTA6yu1z/3A7pl5d3WIJKl7VUPndOD2ou8t9eKIzDy7OkKSNDMlQycz7wV+UPG9pR78FvhAdYQkaeaqTnTADw9UOywAdsvM+dUhkqSZqxw6PwJ83kFN99HMPL86QpLUm7Khk5l3AT+u+v5SFy4APlodIUnqXeWJDnh9pea6l85PWd1XHSJJ6l310DkF8BcSNdEHM/OS6ghJ0uyUDp2JNz+fVtkgLcU5wD9VR0iSZq/6RAfg+OoAaTF307myur86RJI0e00YOv8OzKuOkCa8LzMvr46QJPVH+dCZ+Omrf6vukOi8cPao6ghJUv+UD50J/1odoLF3J7BHZi6sDpEk9U9Ths4vgKuqIzTW3pWZ/1cdIUnqr0YMncxM4LjqDo2t04AvVUdIkvovOhujXkSsD/yuukNj53bg2Zl5dXWIJKn/GnGiA5CZVwBnV3do7Py9I0eSRldjhs4EH0rWMP0gM79eHSFJGpzGXF0BRMSjgOuB5atbNPJuAp6VmTdUh0iSBqdRJzqZeSvwg+oOjYV9HDmSNPoaNXQmHFsdoJH3jcw8uTpCkjR4jbq6AoiIZYFrgTWqWzSSrgI2zMzbq0MkSYPXuBOdzLwP+FZ1h0bSQjov7HTkSNKYaNzQmeD1lQbhyMw8ozpCkjQ8jbu6ekBE/BZ4RnWHRsYlwOaZOb86RJI0PE090QFPddQ/9wJvduRI0vhp8tA5ns4zFdJsHZ6ZF1VHSJKGr7FXVwAR8RNgu+oOtdovgRdlpqNZksZQk090wFdCaHbm0fkpK0eOJI2ppg+d7wB/qo5Qax2cmb+vjpAk1Wn00MnMe4HPV3eolb7vCzslSY1+RgcgIlYH/gisVN2i1rgReHZm3lgdIkmq1egTHYDMvAX4RnWHWmVvR44kCVpwogMQEU8BLqcFw0zljs7Mt1ZHSJKaoRVDByAiTgZeW92hRvs9sFFmzqsOkSQ1Q5tOSD5VHaBGWwjs5siRJC2uNUMnM88Ezq3uUGP988T/j0iStEhrhs4ET3W0NBcBh1dHSJKapzXP6ABExDLAlcB6xSlqjvnAZpl5aXWIJKl5WnWik5n3A0dVd6hR3ufIkSRNplUnOgARsSqdDxBcrbpF5c4AXuK7rCRJk2nViQ7AxE/VfKW6Q+Vuxxd2SpKm0bqhM+GzwILqCJU6MDOvqo6QJDVbK4dOZl4DnFTdoTLfy8x/rY6QJDVf657ReUBEbAycB0R1i4bqBuBZmXlTdYgkqflaeaIDkJkXACdWd2jo9nLkSJK61doTHYCIeAKdl32uUN2iofhKZu5bHSFJao/WnugAZObVwJHVHRqK/wUOqY6QJLVLq090ACJiFeAKYK3qFg3M/cDWmfmr6hBJUru0+kQHIDPvAN5f3aGB+qQjR5LUi9af6ABExBzgfGCj6hb13QXAFpl5X3WIJKl9Wn+iAzDx6bjvqO5Q390D7OrIkST1aiSGDkBmng6cUt2hvjo0My+rjpAktddIXF09ICI2AC4Blq1u0az9EHhVjtL/g0qShm5kTnQAMvNy4IvVHZq1q4DdHDmSpNkaqRMdgIhYHbgSeFR1i3pyL50fJT+3OkSS1H4jdaIDkJm3AB+q7lDP3unIkST1y8id6ABExLLAb4H1q1s0I9/OzDdVR0iSRsfInegATPw48sHVHZqR3wFvrY6QJI2WkRw6AJn5n8B3qjvUlbuB12fmvOoQSdJoGdmhM+Eg4LbqCE1r/8y8pDpCkjR6RnroZOb1wGHVHZrS1zPzG9URkqTRNJIPIy9u4j1YZwFbVLfoYS4GtszMu6tDJEmjaeSHDkBEbAicB8ytbtEi84BNM/OK6hBJ0uga6aurB2TmxcCnqzu0SAJvceRIkgZtLE50ACJiJTqfrbNecYrg4Mw8qjpCkjT6xuJEByAz7wL2r+4QH3HkSJKGZWxOdB4QEScBb6zuGFNfzEzHpiRpaMZx6KwN/A+wWnXLmDkJ+NvMXFgdIkkaH2NzdfWAic/WObS6Y8z8F/BmR44kadjGbuhM+BJwdnXEGPhfYC/glRPvH5MkaajG7urqARHxbOA3wHLVLSPocuCjwAmZeX91jCRpfI3riQ4T71Z6GnA04GnD7CWdT6D+W+AZmXmcI0eSVG1sT3QWFxHrAC8HtgO2BdaoLWqVc+g8aPxvmfnH6hhJkhbn0HmIiAhgIzqjZytgQ/yQwcUtpHPl9x3gO5l5VXGPJEmTcuh0ISJWA55NZwBtOPGfzwJWruwakjvoPLh9FvDfwNmZeXttkiRJ3XHo9GjirehP5sHhsyEPnv5EXdmszAOuAC6jM27+G7jEZ20kSW3l0OmziHgES57+PBNYF1gbWL4w7QHzgavo/GTU7xb74/KJzxiSJGlkOHSGZOLZn0cDj1vKH48FVpz4Y4VJ/nx5Oj8dNn8pf9y72J/fAtwA3Djxn0v8kZl/Gfj/spIkNcT/B+UL4fgm2GKcAAAAAElFTkSuQmCC;" parent="lZXBPZFwwAsZEzW5uLg--1" vertex="1">
          <mxGeometry x="540.4" y="400" width="9.6" height="10" as="geometry" />
        </mxCell>
        <mxCell id="lZXBPZFwwAsZEzW5uLg--42" value="" style="rounded=0;whiteSpace=wrap;html=1;" parent="lZXBPZFwwAsZEzW5uLg--1" vertex="1">
          <mxGeometry x="660" y="290" width="20" height="20" as="geometry" />
        </mxCell>
        <mxCell id="lZXBPZFwwAsZEzW5uLg--43" value="" style="verticalLabelPosition=bottom;verticalAlign=top;html=1;shape=mxgraph.basic.heart" parent="lZXBPZFwwAsZEzW5uLg--1" vertex="1">
          <mxGeometry x="660" y="290" width="20" height="20" as="geometry" />
        </mxCell>
        <mxCell id="lZXBPZFwwAsZEzW5uLg--44" value="" style="sketch=0;pointerEvents=1;shadow=0;dashed=0;html=1;strokeColor=none;fillColor=#505050;labelPosition=center;verticalLabelPosition=bottom;verticalAlign=top;outlineConnect=0;align=center;shape=mxgraph.office.concepts.home;" parent="lZXBPZFwwAsZEzW5uLg--1" vertex="1">
          <mxGeometry x="599.5" y="310" width="51" height="50" as="geometry" />
        </mxCell>
        <mxCell id="lZXBPZFwwAsZEzW5uLg--45" value="" style="triangle;whiteSpace=wrap;html=1;" parent="lZXBPZFwwAsZEzW5uLg--1" vertex="1">
          <mxGeometry x="670" y="340" width="10" height="10" as="geometry" />
        </mxCell>
        <mxCell id="lZXBPZFwwAsZEzW5uLg--46" value="" style="triangle;whiteSpace=wrap;html=1;rotation=-180;" parent="lZXBPZFwwAsZEzW5uLg--1" vertex="1">
          <mxGeometry x="570" y="340" width="10" height="10" as="geometry" />
        </mxCell>
        <mxCell id="lZXBPZFwwAsZEzW5uLg--47" value="" style="ellipse;whiteSpace=wrap;html=1;" parent="lZXBPZFwwAsZEzW5uLg--1" vertex="1">
          <mxGeometry x="620" y="370" width="10" height="10" as="geometry" />
        </mxCell>
        <mxCell id="lZXBPZFwwAsZEzW5uLg--48" value="" style="ellipse;whiteSpace=wrap;html=1;" parent="lZXBPZFwwAsZEzW5uLg--1" vertex="1">
          <mxGeometry x="640" y="370" width="10" height="10" as="geometry" />
        </mxCell>
        <mxCell id="lZXBPZFwwAsZEzW5uLg--49" value="" style="ellipse;whiteSpace=wrap;html=1;" parent="lZXBPZFwwAsZEzW5uLg--1" vertex="1">
          <mxGeometry x="603" y="370" width="10" height="10" as="geometry" />
        </mxCell>
        <mxCell id="lZXBPZFwwAsZEzW5uLg--50" value="" style="rounded=0;whiteSpace=wrap;html=1;fillColor=default;strokeColor=#d79b00;" parent="lZXBPZFwwAsZEzW5uLg--1" vertex="1">
          <mxGeometry x="570" y="390" width="110" height="80" as="geometry" />
        </mxCell>
        <mxCell id="lZXBPZFwwAsZEzW5uLg--51" value="&lt;font style=&quot;font-size: 10px;&quot;&gt;City, Province, Country&lt;/font&gt;" style="rounded=0;whiteSpace=wrap;html=1;" parent="lZXBPZFwwAsZEzW5uLg--1" vertex="1">
          <mxGeometry x="570" y="396" width="110" height="20" as="geometry" />
        </mxCell>
        <mxCell id="lZXBPZFwwAsZEzW5uLg--52" value="&lt;font style=&quot;font-size: 10px;&quot;&gt;Location&lt;/font&gt;" style="rounded=0;whiteSpace=wrap;html=1;" parent="lZXBPZFwwAsZEzW5uLg--1" vertex="1">
          <mxGeometry x="570" y="416" width="110" height="10" as="geometry" />
        </mxCell>
        <mxCell id="lZXBPZFwwAsZEzW5uLg--53" value="Description" style="rounded=0;whiteSpace=wrap;html=1;" parent="lZXBPZFwwAsZEzW5uLg--1" vertex="1">
          <mxGeometry x="570" y="446" width="110" height="24" as="geometry" />
        </mxCell>
        <mxCell id="lZXBPZFwwAsZEzW5uLg--54" value="&lt;font style=&quot;font-size: 8px;&quot;&gt;Nº Rooms -Square metres&lt;/font&gt;" style="rounded=0;whiteSpace=wrap;html=1;" parent="lZXBPZFwwAsZEzW5uLg--1" vertex="1">
          <mxGeometry x="570" y="426" width="110" height="20" as="geometry" />
        </mxCell>
        <mxCell id="lZXBPZFwwAsZEzW5uLg--55" value="&lt;font style=&quot;font-size: 8px;&quot;&gt;Rent&lt;/font&gt;" style="rounded=0;whiteSpace=wrap;html=1;" parent="lZXBPZFwwAsZEzW5uLg--1" vertex="1">
          <mxGeometry x="610" y="382" width="40" height="10" as="geometry" />
        </mxCell>
        <mxCell id="lZXBPZFwwAsZEzW5uLg--56" value="" style="rounded=0;whiteSpace=wrap;html=1;" parent="lZXBPZFwwAsZEzW5uLg--1" vertex="1">
          <mxGeometry x="140" y="540" width="110" height="150" as="geometry" />
        </mxCell>
        <mxCell id="lZXBPZFwwAsZEzW5uLg--57" value="" style="rounded=0;whiteSpace=wrap;html=1;" parent="lZXBPZFwwAsZEzW5uLg--1" vertex="1">
          <mxGeometry x="279" y="540" width="110" height="150" as="geometry" />
        </mxCell>
        <mxCell id="lZXBPZFwwAsZEzW5uLg--58" value="" style="rounded=0;whiteSpace=wrap;html=1;" parent="lZXBPZFwwAsZEzW5uLg--1" vertex="1">
          <mxGeometry x="440" y="540" width="110" height="150" as="geometry" />
        </mxCell>
        <mxCell id="lZXBPZFwwAsZEzW5uLg--59" value="" style="rounded=0;whiteSpace=wrap;html=1;" parent="lZXBPZFwwAsZEzW5uLg--1" vertex="1">
          <mxGeometry x="570" y="540" width="110" height="150" as="geometry" />
        </mxCell>
        <mxCell id="lZXBPZFwwAsZEzW5uLg--60" value="" style="rounded=0;whiteSpace=wrap;html=1;" parent="lZXBPZFwwAsZEzW5uLg--1" vertex="1">
          <mxGeometry x="140" y="750" width="110" height="150" as="geometry" />
        </mxCell>
        <mxCell id="lZXBPZFwwAsZEzW5uLg--61" value="" style="rounded=0;whiteSpace=wrap;html=1;" parent="lZXBPZFwwAsZEzW5uLg--1" vertex="1">
          <mxGeometry x="279" y="750" width="110" height="150" as="geometry" />
        </mxCell>
        <mxCell id="lZXBPZFwwAsZEzW5uLg--62" value="" style="rounded=0;whiteSpace=wrap;html=1;" parent="lZXBPZFwwAsZEzW5uLg--1" vertex="1">
          <mxGeometry x="440" y="750" width="110" height="150" as="geometry" />
        </mxCell>
        <mxCell id="lZXBPZFwwAsZEzW5uLg--63" value="" style="rounded=0;whiteSpace=wrap;html=1;" parent="lZXBPZFwwAsZEzW5uLg--1" vertex="1">
          <mxGeometry x="570" y="750" width="110" height="150" as="geometry" />
        </mxCell>
        <mxCell id="lZXBPZFwwAsZEzW5uLg--64" value="&lt;font style=&quot;font-size: 8px;&quot;&gt;Status&lt;/font&gt;" style="rounded=0;whiteSpace=wrap;html=1;" parent="lZXBPZFwwAsZEzW5uLg--1" vertex="1">
          <mxGeometry x="440" y="387" width="40" height="10" as="geometry" />
        </mxCell>
        <mxCell id="lZXBPZFwwAsZEzW5uLg--65" value="&lt;font style=&quot;font-size: 8px;&quot;&gt;Status&lt;/font&gt;" style="rounded=0;whiteSpace=wrap;html=1;" parent="lZXBPZFwwAsZEzW5uLg--1" vertex="1">
          <mxGeometry x="571" y="382" width="39" height="10" as="geometry" />
        </mxCell>
        <mxCell id="lZXBPZFwwAsZEzW5uLg--66" value="&lt;font style=&quot;font-size: 8px;&quot;&gt;Status&lt;/font&gt;" style="rounded=0;whiteSpace=wrap;html=1;" parent="lZXBPZFwwAsZEzW5uLg--1" vertex="1">
          <mxGeometry x="480" y="387" width="40" height="10" as="geometry" />
        </mxCell>
        <mxCell id="lZXBPZFwwAsZEzW5uLg--67" value="Note: the buttonsChat, Notifications and Profile only appear if the user is logged in" style="rounded=0;whiteSpace=wrap;html=1;" parent="lZXBPZFwwAsZEzW5uLg--1" vertex="1">
          <mxGeometry x="480" y="10" width="280" height="60" as="geometry" />
        </mxCell>
        <mxCell id="lZXBPZFwwAsZEzW5uLg--68" value="" style="rounded=0;whiteSpace=wrap;html=1;" parent="lZXBPZFwwAsZEzW5uLg--1" vertex="1">
          <mxGeometry x="278.5" y="287" width="110" height="180" as="geometry" />
        </mxCell>
        <mxCell id="lZXBPZFwwAsZEzW5uLg--69" value="" style="rounded=0;whiteSpace=wrap;html=1;" parent="lZXBPZFwwAsZEzW5uLg--1" vertex="1">
          <mxGeometry x="368.5" y="287" width="20" height="20" as="geometry" />
        </mxCell>
        <mxCell id="lZXBPZFwwAsZEzW5uLg--70" value="" style="verticalLabelPosition=bottom;verticalAlign=top;html=1;shape=mxgraph.basic.heart;fillColor=#f8cecc;strokeColor=#b85450;" parent="lZXBPZFwwAsZEzW5uLg--1" vertex="1">
          <mxGeometry x="368.5" y="287" width="20" height="20" as="geometry" />
        </mxCell>
        <mxCell id="lZXBPZFwwAsZEzW5uLg--71" value="" style="sketch=0;pointerEvents=1;shadow=0;dashed=0;html=1;strokeColor=none;fillColor=#505050;labelPosition=center;verticalLabelPosition=bottom;verticalAlign=top;outlineConnect=0;align=center;shape=mxgraph.office.concepts.home;" parent="lZXBPZFwwAsZEzW5uLg--1" vertex="1">
          <mxGeometry x="308" y="307" width="51" height="50" as="geometry" />
        </mxCell>
        <mxCell id="lZXBPZFwwAsZEzW5uLg--72" value="" style="rounded=0;whiteSpace=wrap;html=1;" parent="lZXBPZFwwAsZEzW5uLg--1" vertex="1">
          <mxGeometry x="278.5" y="391" width="110" height="80" as="geometry" />
        </mxCell>
        <mxCell id="lZXBPZFwwAsZEzW5uLg--73" value="&lt;font style=&quot;font-size: 10px;&quot;&gt;City, Province, Country&lt;/font&gt;" style="rounded=0;whiteSpace=wrap;html=1;" parent="lZXBPZFwwAsZEzW5uLg--1" vertex="1">
          <mxGeometry x="278.5" y="397" width="110" height="20" as="geometry" />
        </mxCell>
        <mxCell id="lZXBPZFwwAsZEzW5uLg--74" value="&lt;font style=&quot;font-size: 10px;&quot;&gt;Location&lt;/font&gt;" style="rounded=0;whiteSpace=wrap;html=1;" parent="lZXBPZFwwAsZEzW5uLg--1" vertex="1">
          <mxGeometry x="278.5" y="417" width="110" height="10" as="geometry" />
        </mxCell>
        <mxCell id="lZXBPZFwwAsZEzW5uLg--75" value="Description" style="rounded=0;whiteSpace=wrap;html=1;" parent="lZXBPZFwwAsZEzW5uLg--1" vertex="1">
          <mxGeometry x="278.5" y="447" width="110" height="24" as="geometry" />
        </mxCell>
        <mxCell id="lZXBPZFwwAsZEzW5uLg--76" value="&lt;font style=&quot;font-size: 8px;&quot;&gt;Nº Rooms -Square metres&lt;/font&gt;" style="rounded=0;whiteSpace=wrap;html=1;" parent="lZXBPZFwwAsZEzW5uLg--1" vertex="1">
          <mxGeometry x="278.5" y="427" width="110" height="20" as="geometry" />
        </mxCell>
        <mxCell id="lZXBPZFwwAsZEzW5uLg--77" value="&lt;font style=&quot;font-size: 8px;&quot;&gt;Shared&lt;/font&gt;" style="rounded=0;whiteSpace=wrap;html=1;" parent="lZXBPZFwwAsZEzW5uLg--1" vertex="1">
          <mxGeometry x="358.5" y="384" width="30.5" height="10" as="geometry" />
        </mxCell>
        <mxCell id="lZXBPZFwwAsZEzW5uLg--78" value="" style="triangle;whiteSpace=wrap;html=1;" parent="lZXBPZFwwAsZEzW5uLg--1" vertex="1">
          <mxGeometry x="378.5" y="337" width="10" height="10" as="geometry" />
        </mxCell>
        <mxCell id="lZXBPZFwwAsZEzW5uLg--79" value="" style="triangle;whiteSpace=wrap;html=1;rotation=-180;" parent="lZXBPZFwwAsZEzW5uLg--1" vertex="1">
          <mxGeometry x="278.5" y="337" width="10" height="10" as="geometry" />
        </mxCell>
        <mxCell id="lZXBPZFwwAsZEzW5uLg--80" value="" style="ellipse;whiteSpace=wrap;html=1;" parent="lZXBPZFwwAsZEzW5uLg--1" vertex="1">
          <mxGeometry x="298.5" y="367" width="10" height="10" as="geometry" />
        </mxCell>
        <mxCell id="lZXBPZFwwAsZEzW5uLg--81" value="" style="ellipse;whiteSpace=wrap;html=1;" parent="lZXBPZFwwAsZEzW5uLg--1" vertex="1">
          <mxGeometry x="318.5" y="367" width="10" height="10" as="geometry" />
        </mxCell>
        <mxCell id="lZXBPZFwwAsZEzW5uLg--82" value="" style="ellipse;whiteSpace=wrap;html=1;" parent="lZXBPZFwwAsZEzW5uLg--1" vertex="1">
          <mxGeometry x="338.5" y="367" width="10" height="10" as="geometry" />
        </mxCell>
        <mxCell id="lZXBPZFwwAsZEzW5uLg--83" value="" style="ellipse;whiteSpace=wrap;html=1;" parent="lZXBPZFwwAsZEzW5uLg--1" vertex="1">
          <mxGeometry x="359" y="367" width="10" height="10" as="geometry" />
        </mxCell>
        <mxCell id="lZXBPZFwwAsZEzW5uLg--84" value="" style="shape=image;verticalLabelPosition=bottom;labelBackgroundColor=default;verticalAlign=top;aspect=fixed;imageAspect=0;image=data:image/png,iVBORw0KGgoAAAANSUhEUgAAAjoAAAJSCAYAAADK72/3AAAABHNCSVQICAgIfAhkiAAAAAlwSFlzAAA2XwAANl8BwcvkVwAAABl0RVh0U29mdHdhcmUAd3d3Lmlua3NjYXBlLm9yZ5vuPBoAAAAddEVYdFRpdGxlAG15IHJlZCBjaGVjayBtYXJrIC0gcG5npftX4AAAIABJREFUeJzt3XmUpGV5v/HrHoYdRFFkERWjiCvIJqiACyIGd+ICAQFBFjEswRU0aNxNEEWNO2IAETRKDBqNgIoSBJQdyQ8hUZBFkEUYtoFh7t8f1QwzMN1dXV1V9/tWXZ9zOJIEuq/kBOY7z/N2vZGZSJIkzVZELAOsDjxmmj9WAeYCy07853R/3AL8YZI/rsvMhZM2OXQkSdJUIiKAdYH1gacAfwWswcMHzKOAGHLefcD5wDeBkzLzxsX/hw4dSZL0wJh5HA+OmfUX+/MnAyvW1XXtfuCLwHsy8y5w6EiSNFYiYmljZn3aM2a6cQWwQ2Ze6dCRJGlERcSywCbAVhN/vIDOldM4+A3wfIeOJEkjIiJWBLbmwWGzBbBSaVStg+ZWF0iSpN5FxOrAK4DXAtsDK9cWNcp2nuhIktQyEfEEOsPmtXROcDy4WLo/+38YSZJaICIeAewM7AVsXpzTFuHQkSSpwSLi+cBbgTfitdRM3ebQkSSpYSLiMcBudAbO04tz2uw6h44kSQ0REX8FvBvYA1i+tmYknObDyJIkFYuIZwKHAjsByxTnjJItHDqSJBWJiOcChwGvZvjviBp1NwDreHUlSdKQRcSWwEeAbatbRtjnMnOhJzqSJA1JRKwFfBJ4M57gDNI84AmZ+RdPdCRJGrCJd04dBBwOrFqcMw6+nJl/Ad9eLknSQEXEy4HPABtUt4yJe4EnZeZ14EdGS5I0EBHxZODTwKuqW8bMsQ+MHPBER5KkvoqIlen8JNU78LNwhm0h8LTMvOKB/4YnOpIk9UlE7Az8M/C46pYx9b3FRw54oiNJ0qxFxEbA5+i8SVw1EtgsM89f/L85pyhGkqTWi4hHR8QXgPNw5FQ7+qEjBzzRkSRpxiIigP3ofOjf6sU5gpuBDTLz5of+D3xGR5KkGYiIJwHfALYpTtGD3ru0kQOe6EiS1LWI2I/Ow8arVLdokbOB5+ckg8ahI0nSNCJiXeDrwHbVLVrC/cDmmXnBZH+BDyNLkjSFiNgDuBRHThN9YaqRA57oSJK0VBMv4PwKfrJxU91A5wHk26b6izzRkSTpISLiTXROcRw5zfXO6UYOeKIjSdIiEfEY4AvAG6pbNKUzMvNF3fyFDh1JkoCIeAVwNLBmdYumdB/wnMy8rJu/2KsrSdJYi4hlI+II4BQcOW3wj92OHPBER5I0xiJiPeBEYIvaEnXpV8DWmXl/t3+DQ0eSNJYi4nV0PhvnkdUt6sqddK6srpzJ3+TVlSRprETE8hHxOeB7OHLa5JCZjhzwREeSNEYi4inAScAm1S2akR9m5it7+RsdOpKksRARO9H5AMBVq1s0IzcBz87MP/XyN3t1JUkaaRM/VfVF4Fs4ctpo315HDsDcfpZIktQkEbEa8F1g2+oW9eRfM/N7s/kCXl1JkkZSRDwJ+CHw9OoW9eQqYMPMvH02X8SrK0nSyImILYGzceS01UJg99mOHHDoSJJGTES8AfgZ8NjqFvXsyMw8ox9fyKsrSdLIiIj3Ah8DorpFPbsU2Cwz5/fji3miI0kaCRFxGPBxHDltdi+wa79GDjh0JEkjICL2Aj5a3aFZOzwzL+rnF/TqSpLUahHxSDo/ofOI6hbNypnACzNzYT+/qCc6kqS22xtHTtvNA3br98gBh44kqcUiYg6wf3WHZu3gzPz9IL6wQ0eS1GavANarjtCsfD8zvz6oL+4zOpKkVoqIZYBfAZtXt6hnNwLPysw/D+obeKIjSWqrd+DIabu9BzlywBMdSVILRcQGwIXACtUt6tnXMnPvQX8Th44kqVUmHkA+E3hedYt6dgmwZWbeNehv5NWVJKltDsKR02bzgNcPY+SAJzqSpBaJiKfSubJasbpFPXtjZn5nWN/MEx1JUitExMrAd3HktNlRwxw54ImOJKklIuIk4I3VHerZ2cA2mXnfML+pJzqSpMaLiHfjyGmzm+hcWQ115IAnOpKkhouIlwI/BpapblFPFgJ/nZk/qfjmnuhIkhorItYDTsSR02Yfrho54ImOJKmhImJF4CzgOdUt6tlP6Jzm9P2t5N3yREeS1FRfwZHTZpfReS6nbOSAQ0eS1EARcRCwa3WHenYj8IrMvK06xKsrSVKjRMQLgdOAudUt6sk9wIsz8+zqEPBER5LUIBGxLvBtHDltlcBuTRk54NCRJDVERCwPfA94bHWLenbYsD/5eDoOHUlSU3wB2Lw6Qj37emZ+ojrioXxGR5JULiLeRmfoqJ1+Bmxf8cnH03HoSJJKRcTzgZ8DyxanqDdXAFtm5i3VIUvj0JEklYmItYHzgLWrW9STW+mMnN9Vh0zGZ3QkSSUmHj4+GUdOW90HvL7JIwccOpKkOl8BtqiOUM/enpk/rY6YjkNHkjR0EXEIsFt1h3p2ZGZ+tTqiGz6jI0kaqojYHvghvpG8rX4AvKb6HVbdcuhIkoYmIp4KnAM8srpFPbkYeEFm3lEd0i2HjiRpKCJiNeBs4GnVLerJDcBzM/Pq6pCZ8BkdSdLARcQc4AQcOW11D53rqlaNHHDoSJKG4+PADtUR6tlbMvOc6oheOHQkSQMVEbsA767uUM8+mJknVkf0ymd0JEkDExGbA78AVqhuUU++lZl/Wx0xGw4dSdJATLze4dfA46pb1JOzgRdn5j3VIbPh1ZUkqe8We72DI6edrgZe2/aRAw4dSdJgfBlf79BW84BXZuYN1SH94NCRJPXVxOsddq/uUE8WAjtn5iXVIf3iMzqSpL7x9Q6td0hmfro6op8cOpKkvoiI9YFz8fUObfXVzNynOqLfHDqSpFnz9Q6tdzbwwsy8tzqk33xGR5I0K77eofVuBF4/iiMHHDqSpNnz9Q7ttQB4Y2ZeWx0yKA4dSVLPfL1D6707M8+ojhgkn9GRJPXE1zu03omZuXN1xKA5dCRJM+brHVrvUmDLzLyzOmTQvLqSJM3IxOsdvocjp61uA143DiMHHDqSpJn7MrBldYR6ksCbM/PK6pBhcehIkroWEW/D1zu02Ucy85TqiGHyGR1JUlci4rnAL4HlqlvUkx/ReVnnwuqQYXLoSJKmFRGPBs4HnlDdop78H7BZZt5aHTJsXl1Jkqa02CcfO3La6W5gx3EcOeDQkSRN74PAy6oj1LN9MvOi6ogqXl1JkiYVETsAPwCiukU9+VxmHlgdUcmhI0laqohYDzgPWL22RD06E3hJZt5XHVLJoSNJepiJDwX8b2DT6hb15Hpgk8z8U3VINZ/RkSQtzedw5LTVfcAbHDkdDh1J0hIi4i3A3tUd6tkhmfnf1RFN4dWVJGmRiHgO8Ct8I3lbHZeZu1VHNIlDR5IEQEQ8ks7Dx39V3aKeXAg8PzPvrg5pEq+uJElERADH4shpq1vpfCigI+chHDqSJIBDgVdVR6gnC4G/zczfV4c0kUNHksZcRGwLfKi6Qz37YGb+uDqiqXxGR5LGWESsS+dlnWtUt6gnpwCvSX8xn5RDR5LGVEQsC/wC2LK6RT25Atg8M2+rDmkyr64kaXwdiSOnre6k8/CxI2caDh1JGkMRsTPwd9Ud6tlemXlpdUQbeHUlSWMmIp4JnAOsXN2inhyZme+ojmgLh44kjZGIWBX4NbBBdYt68nNgu8xcUB3SFl5dSdJ4+TqOnLa6FniTI2dmHDqSNCYi4hDg9dUd6sm9wN9k5o3VIW3j1ZUkjYGI2Br4KTC3ukU92S8zv1wd0UYOHUkacRGxFp0PBVy7ukU9OSYz96yOaCuHjiSNsIiYC5wGvLC6RT05D9gqM++pDmkrn9GRpNH2cRw5bXUznedyHDmz4ImOJI2oiNgR+G51h3qyEHh5Zp5aHdJ2nuhI0giKiKcCx1R3qGfvc+T0hyc6kjRiImIlOp98/KzqFvXk5MzcsTpiVHiiI0mj5ys4ctrqcmD36ohR4tCRpBESEfsDu1R3qCd3AK/LzHnVIaPEqytJGhERsQXwC2C56hb15PWZ6cPjfeaJjiSNgIh4NPAdHDlt9U+OnMHwREeSWi4iAvgBsEN1i3pyOrB9Zt5fHTKKPNGRpPZ7F46ctvojsJMjZ3A80ZGkFouIFwA/x5d1ttF8YOvM/HV1yCjzREeSWmriuZwTceS01d85cgbPoSNJLTTxXM5xwLrVLerJVzPza9UR48ChI0nt9B7gr6sj1JNzgQOqI8aFz+hIUstExFbAz/DKqo3+DGyamX+sDhkXnuhIUotExGPwuZy2up/OT1g5cobIoSNJLbHYczmPq25RT96bmT+tjhg3Dh1Jao/3Ai+vjlBPvpOZR1RHjCOf0ZGkFoiIrek8l7NMdYtm7DJgi8y8ozpkHDl0JKnhImIN4AK8smqj24HnZubl1SHjyqsrSWown8tptQR2d+TUcuhIUrMdCmxfHaGefDwz/706Ytx5dSVJDRUR2wA/xedy2ugHwGsyc2F1yLhz6EhSA008l3MhsE51i2bsQjov6/Th4wbw6kqSGiYi5gDH48hpo+uAVzpymsOhI0nNcxjwsuoIzdidwKsy89rqED3IqytJapCIeCFwOj6X0zYLgddl5n9Uh2hJnuhIUkNExGOBb+HIaaN3OXKayaEjSQ0w8VzON4G1q1s0Y1/KzCOrI7R0Dh1Jaob3AS+tjtCM/QQ4oDpCk/MZHUkqFhEvBk7FK6u2+S3w/My8vTpEk3PoSFKhiFiTzueurFXdohm5gc6LOq+qDtHUvLqSpCKLPZfjyGmXu+l86rEjpwUcOpJU5x+AbasjNCMPvKjznOoQdcerK0kqEBEvofNcjr/hbJfDMvPj1RHqnkNHkobM53Ja65jM3LM6QjPj0JGkIZp4LudU4CXVLZqRnwHbZ+Z91SGaGY9MJWm4DseR0za/A/7GkdNOnuhI0pBExLZ0PmDO32S2xy3Alpl5RXWIeuPQkaQhiIi16DyXs2Z1i7p2H7BdZp5RHaLe+bsKSRqwiedyTsCR0zb7OnLaz6EjSYP3AeDF1RGakU9m5jHVEZo9r64kaYAi4qXAf+FvLNvkZDoPH/sL5Ahw6EjSgETE2nSey3lsdYu6dh6wTWbeVR2i/vB3GJI0ABGxDJ3nchw57XEt8GpHzmhx6EjSYHwQeFFxg7p3J/CqzLyuOkT95dWVJPVZRGwH/Bh/M9kmO2bmydUR6j//IZSkPpp4Lud4/Pdrm/yLI2d0eaIjSX3ie6xa6bfAZpl5T3WIBsPfcUhS/xyGI6dN7gF2duSMNk90JKkPImIr4OfAMsUp6t6Bmfm56ggNlkNHkmYpIlan83k5j69uUdf+MzNfUR2hwfPqSpJm7+s4ctrkBuAt1REaDoeOJM1CRBwAvKa6Q11LYI/MvLE6RMPh1ZUk9SgiNgZ+BSxf3aKuHZWZB1dHaHgcOpLUg4hYBTgfWL+6RV27GHhuZs6vDtHweHUlSb35Io6cNrmbzo+SO3LGjENHkmYoInYHdq3u0Iy8MzMvq47Q8Hl1JUkzEBEbAOcBK1e3qGunZOarqyNUw6EjSV2KiOWBc4CNqlvUteuBDTPzpuoQ1fDqSpK6dySOnDZJYHdHznhz6EhSFyLidcD+1R2akSMz89TqCNXy6kqSphERTwQuAB5V3aKuXUTnR8nvrQ5RLU90JGkKETEX+BaOnDaZD+zqyBE4dCRpOh8CnlcdoRk5LDMvrY5QM3h1JUmTiIjtgP8CorpFXfsp8NL0FzdNcOhI0lJExJp0nvNYs7pFXfsLnR8l/2N1iJrDqytJeoiICOA4HDlt83ZHjh7KoSNJD/ceYLvqCM3IiZl5QnWEmserK0laTEQ8D/gFMLe6RV27hs6V1a3VIWoeT3QkaUJEPJLOj5I7ctojgT0cOZqMQ0eSHnQ08MTqCM3IUZl5enWEmsurK0kCImJ/4F+qOzQjvwU2y8x7qkPUXA4dSWMvIjYCzgZWqG5R1+4FtsjMC6tD1GxeXUkaaxGxMnAijpy2OdyRo244dCSNu88DT6uO0Iz8Evjn6gi1g1dXksZWROxK54MB1R63Axtl5h+qQ9QODh1JYyki1gfOB1apblHXEvibzDy5OkTt4dWVpLETEcsBJ+HIaZtPOnI0Uw4dSePon4GNqyM0I6cD76+OUPt4dSVprETEq4HvV3doRv4IbJKZN1WHqH0cOpLGRkQ8HrgQWL26RV2bD2yTmedWh6idvLqSNBYiYhngBBw5bXOgI0ez4dCRNC4+CGxVHaEZOSYzv1IdoXbz6krSyIuIlwCn4m/u2uQ8YCvfY6XZcuhIGmkRsQZwEbB2dYu6dh3w3My8tjpE7efvbiSNrIgI4FgcOW1yN/AaR476xaEjaZS9E3h5dYS6lsDumfmb6hCNDq+uJI2kiHgucCawbHWLuvaBzPxQdYRGi0NH0siJiNWAC4AnVbeoaydm5s7VERo9Xl1JGkVfxpHTJucCb6mO0Ghy6EgaKRHxFuBN1R3q2jXAa/0xcg2KV1eSRkZEPBU4H1i5ukVduYvOZ+VcUB2i0eWJjqSREBHLAd/CkdMWCbzZkaNBc+hIGhUfAzapjlDX3p+Z36uO0Ojz6kpS60XEy4AfA1Hdoq58MzN3rY7QeHDoSGq1iVc8XAysVd2irvwKeHFmzq8O0Xjw6kpS230DR05bXA28zpGjYXLoSGqtiDgI2KG6Q125G3h1Zt5QHaLx4tWVpFaKiI2Ac4Dlq1vUlT0z85jqCI0fT3QktU5ErETnR8kdOe1wjCNHVRw6ktro08DTqyPUlUuAt1dHaHx5dSWpVSJiR+C71R3qyjxgs8z8XXWIxpcnOpJaIyIeD3ytukNd29uRo2oOHUmtEBFzgOOBR1W3qCv/kpknVUdIDh1JbfE+YJvqCHXlN8Ah1RES+IyOpBaIiOcBvwDmVrdoWrcCm2TmH6pDJPBER1LDRcRqwAk4ctoggT0cOWoSh46kpvsSsF51hLpyRGb+R3WEtDivriQ1VkTsAfhBc+1wJp2XdS6oDpEW59CR1EgRsT5wPrBKdYum9Wdg48y8tjpEeiivriQ1TkQsS+cVD46c5lsI7OLIUVM5dCQ10UeBTasj1JUPZ+ap1RHSZLy6ktQoEbEd8F9AVLdoWqcB22fmwuoQaTIOHUmNERFrABcDa1W3aFrX0Xku58bqEGkqXl1JapJjcOS0wQJgJ0eO2sChI6kRIuJA4BXVHerK+zLzl9URUje8upJULiI2BM4Flq9u0bROAV6T/uKhlnDoSCoVESvSeQnkM6pbNK0/0HmP1a3VIVK3vLqSVO3TOHLa4F7gjY4ctY1DR1KZiHgdsG91h7ryjsz8dXWENFNeXUkqERHrAhcBq1e3aFrfzsw3VUdIvXDoSBq6iJgD/BR4YXWLpvU7YLPMnFcdIvXCqytJFQ7FkdMGdwNvcOSozTzRkTRUEbEl8EtgbnWLprVXZn69OkKaDYeOpKGJiEcAFwJPqm7RtL6RmW+pjpBmy6srScP0JRw5bXApsH91hNQPDh1JQxERuwM7V3doWnfR+bycu6tDpH5w6EgauIh4CvD56g515aDM/J/qCKlffEZH0kBFxLLAWcBm1S2alp+Xo5HjiY6kQfsIjpw2+AOwT3WE1G+e6EgamIh4KfATIKpbNKUFwNaZeXZ1iNRvnuhIGoiIeDTwrzhy2uAfHDkaVZ7oSBqIiPgusGN1h6Z1GvCy9BcDjSiHjqS+i4i3AH6ibvP9GdgwM/9UHSINikNHUl9FxJPpfPrxKtUtmlICr8jMH1WHSIPkMzqS+iYilgGOw5HTBp925GgcOHQk9dP7gOdVR2ha59F5g7w08ry6ktQXEbEFcCa+lbzp5gGbZOaV1SHSMHiiI2nWImJl4HgcOW2wvyNH48ShI6kfPgM8pTpC0zouM4+vjpCGyasrSbMSEa8FTq7u0LSuoHNldUd1iDRMDh1JPYuItYBLgMdUt2hK9wLPy8zzq0OkYfPqStJsHIMjpw3e68jRuHLoSOpJRBwAvLy6Q9P6TzrPUEljyasrSTMWEc+g81ksK1S3aErXAxtl5p+rQ6QqnuhImpGIWA74Jo6cplsIvNmRo3Hn0JE0Ux8BnlMdoWl9MjNPr46Qqnl1JalrEfEi4HT8TVLT/QrYJjMXVIdI1Rw6kroSEY8ELgYeX92iKd0GPCcz/1AdIjWBvyuT1K0v4shpg70dOdKDHDqSphURuwA7VXdoWl/NzO9UR0hN4tWVpClFxBOBi4DVqls0pcuAzTPzruoQqUk80ZE0qYiYAxyLI6fp7gF2cuRID+fQkTSVdwPbVEdoWu/IzEuqI6Qm8upK0lJFxCbA2cCy1S2a0r9n5uuqI6SmcuhIepiIWBE4H3hadYum9Ec6P0p+S3WI1FReXUlamiNw5DTd/cAujhxpag4dSUuIiB2A/as7NK0PZeYvqyOkpvPqStIiEbEGcAmwZnWLpvQL4CWZeX91iNR0nuhIWtzXcOQ03S10rqwcOVIXHDqSAIiIfYBXV3doWntm5jXVEVJbeHUliYhYH7gAWLm6RVP6fGYeUB0htYlDRxpzETEXOAvYvLpFU7oI2CIz51eHSG3i1ZWkD+DIabq76LziwZEjzZAnOtIYi4gXAGcAy1S3aEpvzcyjqyOkNnLoSGMqIlalcx3ypOoWTemkzNypOkJqK6+upPH1ORw5Tfd7YJ/qCKnNHDrSGIqI1wO7V3doSguAnTPz9uoQqc0cOtKYiYjHAV+u7tC03p+Z51RHSG3nMzrSmImIHwPbV3doSqcBL0v/BS3Nmic60hiJiH1x5DTdjcCbHTlSf3iiI42JiHgScDGwSnWLJpXADpn54+oQaVR4oiONgYgI4BgcOU13pCNH6i+HjjQeDgJeWB2hKf0GOLQ6Qho1Xl1JIy4iNqDzws4Vq1s0qXnAJpl5ZXWINGo80ZFGWEQsA3wDR07Tvc2RIw2GQ0cabe8CtqyO0JSOzcxvVkdIo8qrK2lERcSz6Tz3sVx1iyb1O2DTzLyjOkQaVZ7oSCMoIpYF/hVHTpPdS+cVD44caYAcOtJoej+wcXWEpvSezDy/OkIadV5dSSMmIjYFzgbmVrdoUj/MzFdWR0jjwKEjjZCIWB44H3hGdYsmdT2wYWbeVB0ijQOvrqTR8mEcOU22ENjVkSMNj0NHGhER8XzgHdUdmtInMvOn1RHSOPHqShoBEbEScBHwlOoWTepXwDaZuaA6RBonnuhIo+GTOHKa7C90fpTckSMNmUNHarmIeAnw9uoOTWnvzLyqOkIaR15dSS0WEasClwBPrG7RpL6SmftWR0jjyhMdqd2OxJHTZJcBB1dHSOPMEx2ppSLir4H/rO7QpO4BNs/MS6tDpHHmiY7UQhHxKOBr1R2a0iGOHKmeQ0dqp88B61RHaFInZ+YXqyMkeXUltU5E7Ah8t7pDk/ojsFFm3lodIsmhI7VKRKwB/BZYo7pFS3U/8KLMPLM6RFKHV1dSu3wJR06T/aMjR2oWT3SkloiIXYDjqzs0qTOAl2TmwuoQSQ9y6EgtEBHrAJcCj6pu0VLdTOe5nGurQyQtyasrqR2+iiOnyfZ05EjN5NCRGi4i9gJ2qO7QpD6Xmf9RHSFp6by6khosItYG/gdYrbpFS3URsEVmzq8OkbR0nuhIzfZpHDlNdSewkyNHajaHjtRQEfEy4E3VHZrUgZn5/6ojJE3NqyupgSJiBTo/ZfXk6hYt1YmZuXN1hKTpeaIjNdNhOHKa6v+AfasjJHXHEx2pYSJiA+BiYLnqFj3MfcBWmXludYik7niiIzXPF3HkNNX7HTlSu3iiIzVIROwKHFfdoaU6Fdg+/Zem1CoOHakhIuJRwP8DHlvdooe5EdgwM2+oDpE0M15dSc3xcRw5TbWHI0dqJ090pAaIiC2Bs4CobtHDfD4zD6iOkNQbh45ULCLmAr8BNqpu0cNcBmyWmXdXh0jqjVdXUr2DcOQ00b3ALo4cqd080ZEKRcTj6ZwarFLdood5V2YeUR0haXY80ZFqfRZHThP9DPhUdYSk2fNERyoSEa8C/qO6Qw9zK50fJb+mOkTS7HmiIxWIiJWAz1V3aKn2c+RIo8OhI9X4APDE6gg9zLGZ+e3qCEn949WVNGQR8SzgAmBudYuW8Htgo8ycVx0iqX880ZGG7/M4cprmfmBXR440ehw60hBFxBuBF1Z36GE+lplnVUdI6j+vrqQhiYgV6by08wnVLVrCOcBWmbmgOkRS/3miIw3Pe3DkNM0ddK6sHDnSiPJERxqCiHgi8D/AitUtWsJbM/Po6ghJg+OJjjQcR+DIaZqTHTnS6PNERxqwiHgx8NPqDi3hOjqffnxzdYikwfJERxqgiFgGOKq6Q0tIYA9HjjQeHDrSYO0HPLs6Qks4KjNPrY6QNBxeXUkDEhGPBn4HrF7dokUuATbPzPnVIZKGwxMdaXA+jCOnSeYDuzhypPHi0JEGICKeC+xT3aElvDczL6mOkDRcXl1JfRYRq9B5aedTqlu0yKnA9um/8KSx44mO1H+fwZHTJDfT+SkrR440hnyD8kNExErACnRG4DIT//nAny8Abs3Mu+sK1WQRsSOwV3WHlrB3Zl5XHSGpxthdXUVEAOsAfwU8eeKPxf/8MV18mfnAX4BbgT8BvwLOAM7KzHkDyFYLRMQ6wMXAo6tbtMjRmfnW6ghJdUZ+6ETEqsDLgVcBm9IZNSsM6NvdD/wa+ERmfn9A30MNNDGgfwK8tLpFi1wJbJyZd1SHSKozkkMnIp5AZ9i8GngRsFxBxlnAezLzzILvrSGLiEOAT1V3aJEFwFaZeU51iKRaIzF0Jn43vRkPjpuNaouW8AXg73wQcnRFxIbAucDy1S1a5PDM/HB1hKR6rR46EbERnY/Yfw2wdnHOVL4B7JWZC6tD1F8RsQLwG+CZ1S1a5Cxgm8y8vzpEUr3W/dRVRMyhc2pzEJ1rqTbYA1guInbzX74j5+M4cppkHrCr/5xJekBrhk5ErAbsCRwAPKk4pxd/C9wF7F0dov6IiG3pDG41x99l5u/hlpj8AAAYJ0lEQVSrIyQ1R+OvriJifeBAOqciq9TW9MXrM/O71RGanYh4JJ0XRK5b3aJFvp2Zb6qOkNQsjR06EbEdcDDw10AU5/TTzcCGfoBZu0XECcDO1R1a5Bo6/1zdWh0iqVka9wqIiNg2Is6n85kkOzBaIwc6HyZ3zMRPiqmFImInHDlNksDujhxJS9OYoRMRT4+IHwCnARtX9wzYy4C3V0do5iJiXTofGaDm+FRm/rQ6QlIzlV9dRcRjgX+k85DuMqUxw3UL8FeZeVt1iLrjpx830oXAFpl5b3WIpGYqO9GJiBUi4lA6H9O+H+M1cgBWB95RHaEZORBHTpPcDeziyJE0laGf6Ez8rngX4GPA44f6zZvnDjqnOn+uDtHUIuIZwHkM7j1pmrkDMvPz1RGSmm2oJzoRsQ2dl14ehyMHOj8u/97qCE0tIpYFjseR0yQ/cuRI6sZQTnQiYiXgn/AB3KW5B1g/M6+pDtHSRcTHgEOrO7TIn4FnZ+YN1SGSmm/gJzoRsTlwPo6cyawA/EN1hJYuIl4AvKe6Q0vYy5EjqVsDO9GJiLnAYXR+EW/NqyaKLACenplXVofoQRGxKnAR7XzlyKj6cmbuVx0hqT0GcqIz8dqGM+n82LgjZ3pz6fzfSs3yGRw5TXI5cEh1hKR26fuJTkTsB3wKWKmvX3j0LQQ2ysxLq0MEEfFa4OTqDi1yH/C8zDyvOkRSu/TtRCci1oqI/wS+iCOnF3OAj1RHCCJiTeAr1R1awgccOZJ60ZcTnYh4GXACnfc4aXa2yMxzqyPGWUScAryyukOL/AJ4cWYurA6R1D6zPtGJiD2BH+LI6ZePVQeMs4jYBUdOk9wG7ObIkdSrWQ2diPggcDQ+cNxP20bEi6sjxlFErEHnAWQ1x/6ZeVV1hKT26mnoRMSyEXEM8IE+96jjo9UBY+oo4DHVEVrkhMw8oTpCUrvN+Bmdic8W+S6w3UCK9IAXZeYZ1RHjIiJeCZxS3aFFrgY2zMzbqkMktduMTnQiYh3glzhyhuHd1QHjIiIeQeenBdUMC4E3O3Ik9UPXQycingWcDWw0uBwtZoeIeHZ1xJj4JLBudYQW+WRm/qI6QtJo6OrqauJ9VacCqw28SIs7LjN3q44YZRGxDfBzIIpT1HEenQ8GvK86RNJomHboRMTjgF8Daw+lSItbADw5M6+uDhlFEbECnXdZPbW6RQDcBWySmZdXh0gaHVNeXUXEisD3ceRUmQv8fXXECPsAjpwmOcSRI6nfJj3RiYgATgLeMNQiPdSdwBMy85bqkFESERsD5+JnQDXFKZn56uoISaNnqhOdD+DIaYKVgf2rI0ZJRMzFD7pskhuAvaojJI2mpQ6diHgjcPiQWzS5AyeuEdUf7wQ2ro7QIm/JzD9XR0gaTQ8bOhGxKfAN/CmUJlkD2KM6YhRExFPxE72b5F8y80fVEZJG1xLP6ETEI4FLgceVFWky/wtskJn3V4e01cRzZ2cAW1e3CIDLgM0y8+7qEEmj66EnOh/EkdNUTwb+pjqi5fbDkdMU9wK7OHIkDdqiE52IeDpwMT6g2WTnZeZm1RFtFBHr0jlBWLW6RQC8OzP/uTpC0uhb/ETn0zhymm7TiNi2OqKlvoQjpyl+BhxRHSFpPERmPvAeq0uqY9SVUzPzZdURbRIROwMnVHcIgFvpvJX8muoQSePhgROdPSojNCPbTXzYnboQEY8BPlvdoUX2c+RIGqY5Ex+etmt1iGbk3dUBLXIU8JjqCAFwbGZ+uzpC0ngJ4AXAmdUhmpH7gfUz8/fVIU0WETsAP6zuEAC/BzbKzHnVIZLGyxzg6dURmrFlgHdURzRZRKxK5wFk1bsf2NWRI6nCHOBp1RHqyZ4Tz59o6T4BPL46QgB8LDPPqo6QNJ4cOu21InBAdUQTRcTWwNuqOwR03hD/oeoISeMrgCuAp1SHqCc3A0/IzLuqQ5oiIlYALgQ2qG4RdwAbZ+aV1SGSxtccYJXqCPXs0cBbqyMa5nAcOU1xsCNHUrUArgXWqQ5Rz64CnpKZC6pDqkXEc4Bf4yd8N8HJmbljdYQkzQFy2r9KTfZE4A3VEdUmPg/qaBw5TXA9sHd1hCRBZ+gsrI7QrB1UHdAA7wA2qY4QCeyemTdXh0gSeKIzKraIiOdWR1SJiPWBD1Z3CICjMvPU6ghJesAcYOyf7RgRB1YHVIiIAL4GrFDdIi4B3lsdIUmLm0PnYWS13xsiYq3qiAL7AttUR4j5wC6ZOb86RJIWN4fOO2jUfssB+1VHDFNEPAH4ZHWHAHhvZl5SHSFJD+XQGS37RcRy1RFD9DXgEdUR4lQ6b4mXpMZx6IyWNYE3VkcMQ0TsA2xX3SFuBvbITH+oQVIjzQH+UB2hvhr5h5Ij4onAEdUdAmCfzLyuOkKSJuOJzujZPCK2rI4YlImfsjoaWLW6RRydmd+rjpCkqcwBrgHuqw5RX43yqc6+wLbVEeJ/gYOrIyRpOpGZRMRvgWdUx6hv7gPWG7UrhYhYj85ntfgi2loLgRdm5pnVIZI0nTkT//mb0gr127KM2I+aT1xZfR1HThMc6ciR1BYOndG1b0QsXx3RR28DXlwdIS4D3l8dIUndcuiMrscCb6qO6IeIeBLwT9UdYgGwm59+LKlNHhg6F+I7r0ZR6x9KXuzKauXqFvGxzDyvOkKSZmIOQGbeTedIWqNl04h4QXXELL0deFF1hDgf+Eh1hCTN1JzF/vzXZRUapNae6kTEk4FPVHeI+cDumenHUEhqncWHjs/pjKYdI+Jx1REz5ZVVoxyemZdWR0hSLxw6o28usH91RA8OALapjhBn4es2JLVYPPAuvom3Xs8Dxunt1+PiJuDxmXlPdUg3IuIpwEXAStUtY+4u4DmZeUV1iCT1atGJTmbeC5xb2KLBeQywc3VENyJiDp0rK0dOvfc4ciS13ZyH/NenlVRoGNryUPJhwNbVEeJ04F+qIyRpthZdXQFM/CiyH+0+urbJzF9WR0wmIl5I5xfYZapbxtztwLMz8+rqEEmarYee6JxD5zkdjabGnupExGOBb+HIaYKDHTmSRsUSQyczFwBnFLVo8HaceNC3USaeyzkeWLu6RfwgM4+pjpCkfnnoiQ74nM4omwO8qzpiKd4HbFcdIW4G9q6OkKR+WuIZHYCIeAbw25ocDcF84EmZeX11CEBEvIjOuPbKqt5OmXlSdYQk9dPDTnQy8zKgEb8IaiCWB/6+OgIWPZdzAo6cJvi2I0fSKFra1RV4fTXq9ouIR1YGTDyX8018LqcJ/kQ7Pz1bkqbl0BlPq1L/C9v7gZcWN6hjn8y8uTpCkgbhYc/oAETEOsC1w8/REN0IrJeZdw/7G0fEi+mM6cmGtobnmMzcszpCkgZlqb/QZOZ1wP8MuUXD9Vhg6L/ARcSadJ7LceTUuxo4uDpCkgZpql9svL4afe+MiLnD+maLPZez1rC+pyaVwJ6ZeXt1iCQNkkNnvK0HHDDE7/cPwLZD/H6a3Bcy8/TqCEkatKU+owMQEY+g8wFiQ/sdv0rcATwjM/84yG8SEdsCP8Erqya4EtgoM++qDpGkQZv0F52JI+1zh9iiGqsAnx3kN4iIZwL/hiOnCRYCuztyJI2L6X7h8fpqPLw2Il49iC8cEesCPwZKP7dHixyRmWdVR0jSsEx6dQUQEVsDvxhejgpdTecK685+fcGJDyU8E3hmv76mZuW3wKaZOb86RJKGZboTnbPpPMOh0fcE4B/79cUiYnng+zhymmIBsJsjR9K4mXLoZOZ9eKIzTg6OiI1m+0Umfoz8eGCb2SepTz6SmedXR0jSsHXzcKjP6YyPZYCvTpzGzMZngNf3oUf9cR7w0eoISarQzdA5deAVapLNgWMjInr5myPiPQz3s3k0tQXAXpm5oDpEkipMO3Qy81I6bzfW+HgjcMRM/6aI2BX4eP9zNAufycyLqiMkqUq3n2viJ6iOn0Mi4qBu/+KI2A74OtDTSZAG4irgg9URklSp26Hjczrj6ciImPZZm4h4LXAysOzgkzQDb+/nxwVIUhs5dDSVOcBxEfHSyf6CiWdyvgesPLQqdeM7mfnD6ghJqtbV0MnMa4DLB9yiZloB+K+I+HhELDqxiYg1I+JY4BN4XdU0twFdXztK0iib8pORl/gLIz4PvH2wOWq46+i8mHMF4G/wqqqp3p6ZX6iOkKQmmMnQeTWdT7qV1FznAM/PzIXVIZLUBDMZOisDN9H53byk5llA511WF1eHSFJTdPswMhM/vfHTAbZImp0jHTmStKSuh86EUwZSIWm2/kAfX8oqSaNipkPnBwOpkDRb+2fmXdURktQ0Mxo6Ez9mfsGAWiT15tuZ+aPqCElqopme6IDXV1KT+Jk5kjQFh47Ubu/NTF+6K0mT6PrHyxf9DREBXAusPZAiSd36FfCCnOk/xJI0RmZ8ojPxL1UfSpZqLQD2deRI0tR6uboCr6+kap/KzEuqIySp6WZ8dQUQESvR+ZTkFfteJGk61wNPzcw7qkMkqel6OtGZ+LyO0/vcIqk7hzpyJKk7vV5dgddXUoXfAMdWR0hSW/R0dQUQEesA1wDR1yJJU9kqM/+7OkKS2qLnE53MvA44v48tkqZ2oiNHkmZmNldX4PWVNCx3A++pjpCktnHoSO1wRGZeXR0hSW3T8zM6i75AxDXA4/qTI2kprgU2yMw7q0MkqW1me6IDfkqyNGiHOnIkqTf9GDpeX0mDcy5wfHWEJLVVP66uVgBuBlbqS5GkByyg89LOc6tDJKmtZn2ik5n3AKf1oUXSkg535EjS7PTj6gq8vpL67SfAJ6ojJKntZn11BRARa9P5yRA/JVmaveuB52TmjdUhktR2fTnRyczr6byDR9LsLAR2ceRIUn/06+oKvL6S+uHDmfmz6ghJGhV9uboCiIjnABf05YtJ4+nnwLaZubA6RJJGRd+GDkBEXA08vm9fUBofNwEbTbwsV5LUJ/28ugI/JVnq1Z6OHEnqv34PHZ/TkWbus5npPzuSNAD9vrpans6nJK/cty8qjbYLgS0zc351iCSNor6e6Ez8y/rUfn5NaYTdCezkyJGkwen31RV4fSV164DMvLw6QpJGWV+vrgAiYk06n+zqpyRLkzsxM3eujpCkUdf3oQMQEWcDW/T9C0uj4f+AjTPz9uoQSRp1g7i6Aq+vpMncB+zsyJGk4XDoSMP1D5l5bnWEJI2LgVxdAUTEH4AnDuSLS+10KrB9DuofOknSwwzqRAf8lGRpcTcCuzlyJGm4Bjl0vL6SOhLYPTP/VB0iSeNmkEPnZ8AdA/z6UlscmZk/ro6QpHE0sKGTmfcCPxnU15da4jzgsOoISRpXgzzRAa+vNN7m0XnFw73VIZI0rgY9dH4I3D/g7yE11d9n5pXVEZI0zgY6dDLzz8CZg/weUkP9KDOPro6QpHE36BMdgO8N4XtITXIr8NbqCEnScIbOyXR+vFYaFwdm5nXVEZKkIQydzPwj8OtBfx+pIU7OzOOrIyRJHcM40QGvrzQebgL2q46QJD3IoSP1z9sy88bqCEnSg4YydDLzCuCSYXwvqciJmflv1RGSpCUN60QHPNXR6PoT8PbqCEnSwzl0pNnbJzNvqY6QJD3c0IZOZl4M+CmxGjXfyExfdSJJDTXMEx3wVEej5Rrg4OoISdLkHDpS7/bKzNuqIyRJkxv20DkXuHbI31MahC9l5k+qIyRJUxvq0MnMpPNKCKnNfg+8qzpCkjS9YZ/oAHy34HtK/ZLAWzLzjuoQSdL0KobOL+l8VL7URp/NzDOqIyRJ3Rn60MnM+4HvD/v7Sn3wO+DQ6ghJUvcqTnTA6yu1z/3A7pl5d3WIJKl7VUPndOD2ou8t9eKIzDy7OkKSNDMlQycz7wV+UPG9pR78FvhAdYQkaeaqTnTADw9UOywAdsvM+dUhkqSZqxw6PwJ83kFN99HMPL86QpLUm7Khk5l3AT+u+v5SFy4APlodIUnqXeWJDnh9pea6l85PWd1XHSJJ6l310DkF8BcSNdEHM/OS6ghJ0uyUDp2JNz+fVtkgLcU5wD9VR0iSZq/6RAfg+OoAaTF307myur86RJI0e00YOv8OzKuOkCa8LzMvr46QJPVH+dCZ+Omrf6vukOi8cPao6ghJUv+UD50J/1odoLF3J7BHZi6sDpEk9U9Ths4vgKuqIzTW3pWZ/1cdIUnqr0YMncxM4LjqDo2t04AvVUdIkvovOhujXkSsD/yuukNj53bg2Zl5dXWIJKn/GnGiA5CZVwBnV3do7Py9I0eSRldjhs4EH0rWMP0gM79eHSFJGpzGXF0BRMSjgOuB5atbNPJuAp6VmTdUh0iSBqdRJzqZeSvwg+oOjYV9HDmSNPoaNXQmHFsdoJH3jcw8uTpCkjR4jbq6AoiIZYFrgTWqWzSSrgI2zMzbq0MkSYPXuBOdzLwP+FZ1h0bSQjov7HTkSNKYaNzQmeD1lQbhyMw8ozpCkjQ8jbu6ekBE/BZ4RnWHRsYlwOaZOb86RJI0PE090QFPddQ/9wJvduRI0vhp8tA5ns4zFdJsHZ6ZF1VHSJKGr7FXVwAR8RNgu+oOtdovgRdlpqNZksZQk090wFdCaHbm0fkpK0eOJI2ppg+d7wB/qo5Qax2cmb+vjpAk1Wn00MnMe4HPV3eolb7vCzslSY1+RgcgIlYH/gisVN2i1rgReHZm3lgdIkmq1egTHYDMvAX4RnWHWmVvR44kCVpwogMQEU8BLqcFw0zljs7Mt1ZHSJKaoRVDByAiTgZeW92hRvs9sFFmzqsOkSQ1Q5tOSD5VHaBGWwjs5siRJC2uNUMnM88Ezq3uUGP988T/j0iStEhrhs4ET3W0NBcBh1dHSJKapzXP6ABExDLAlcB6xSlqjvnAZpl5aXWIJKl5WnWik5n3A0dVd6hR3ufIkSRNplUnOgARsSqdDxBcrbpF5c4AXuK7rCRJk2nViQ7AxE/VfKW6Q+Vuxxd2SpKm0bqhM+GzwILqCJU6MDOvqo6QJDVbK4dOZl4DnFTdoTLfy8x/rY6QJDVf657ReUBEbAycB0R1i4bqBuBZmXlTdYgkqflaeaIDkJkXACdWd2jo9nLkSJK61doTHYCIeAKdl32uUN2iofhKZu5bHSFJao/WnugAZObVwJHVHRqK/wUOqY6QJLVLq090ACJiFeAKYK3qFg3M/cDWmfmr6hBJUru0+kQHIDPvAN5f3aGB+qQjR5LUi9af6ABExBzgfGCj6hb13QXAFpl5X3WIJKl9Wn+iAzDx6bjvqO5Q390D7OrIkST1aiSGDkBmng6cUt2hvjo0My+rjpAktddIXF09ICI2AC4Blq1u0az9EHhVjtL/g0qShm5kTnQAMvNy4IvVHZq1q4DdHDmSpNkaqRMdgIhYHbgSeFR1i3pyL50fJT+3OkSS1H4jdaIDkJm3AB+q7lDP3unIkST1y8id6ABExLLAb4H1q1s0I9/OzDdVR0iSRsfInegATPw48sHVHZqR3wFvrY6QJI2WkRw6AJn5n8B3qjvUlbuB12fmvOoQSdJoGdmhM+Eg4LbqCE1r/8y8pDpCkjR6RnroZOb1wGHVHZrS1zPzG9URkqTRNJIPIy9u4j1YZwFbVLfoYS4GtszMu6tDJEmjaeSHDkBEbAicB8ytbtEi84BNM/OK6hBJ0uga6aurB2TmxcCnqzu0SAJvceRIkgZtLE50ACJiJTqfrbNecYrg4Mw8qjpCkjT6xuJEByAz7wL2r+4QH3HkSJKGZWxOdB4QEScBb6zuGFNfzEzHpiRpaMZx6KwN/A+wWnXLmDkJ+NvMXFgdIkkaH2NzdfWAic/WObS6Y8z8F/BmR44kadjGbuhM+BJwdnXEGPhfYC/glRPvH5MkaajG7urqARHxbOA3wHLVLSPocuCjwAmZeX91jCRpfI3riQ4T71Z6GnA04GnD7CWdT6D+W+AZmXmcI0eSVG1sT3QWFxHrAC8HtgO2BdaoLWqVc+g8aPxvmfnH6hhJkhbn0HmIiAhgIzqjZytgQ/yQwcUtpHPl9x3gO5l5VXGPJEmTcuh0ISJWA55NZwBtOPGfzwJWruwakjvoPLh9FvDfwNmZeXttkiRJ3XHo9GjirehP5sHhsyEPnv5EXdmszAOuAC6jM27+G7jEZ20kSW3l0OmziHgES57+PBNYF1gbWL4w7QHzgavo/GTU7xb74/KJzxiSJGlkOHSGZOLZn0cDj1vKH48FVpz4Y4VJ/nx5Oj8dNn8pf9y72J/fAtwA3Djxn0v8kZl/Gfj/spIkNcT/B+UL4fgm2GKcAAAAAElFTkSuQmCC;" parent="lZXBPZFwwAsZEzW5uLg--1" vertex="1">
          <mxGeometry x="378.9" y="397" width="9.6" height="10" as="geometry" />
        </mxCell>
        <mxCell id="lZXBPZFwwAsZEzW5uLg--85" value="&lt;font style=&quot;font-size: 8px;&quot;&gt;Status&lt;/font&gt;" style="rounded=0;whiteSpace=wrap;html=1;" parent="lZXBPZFwwAsZEzW5uLg--1" vertex="1">
          <mxGeometry x="278.5" y="384" width="40" height="10" as="geometry" />
        </mxCell>
        <mxCell id="lZXBPZFwwAsZEzW5uLg--86" value="&lt;font style=&quot;font-size: 8px;&quot;&gt;Status&lt;/font&gt;" style="rounded=0;whiteSpace=wrap;html=1;" parent="lZXBPZFwwAsZEzW5uLg--1" vertex="1">
          <mxGeometry x="318.5" y="384" width="40" height="10" as="geometry" />
        </mxCell>
        <mxCell id="lZXBPZFwwAsZEzW5uLg--87" value="" style="rounded=0;whiteSpace=wrap;html=1;" parent="lZXBPZFwwAsZEzW5uLg--1" vertex="1">
          <mxGeometry x="140" y="287" width="110" height="180" as="geometry" />
        </mxCell>
        <mxCell id="lZXBPZFwwAsZEzW5uLg--88" value="" style="rounded=0;whiteSpace=wrap;html=1;" parent="lZXBPZFwwAsZEzW5uLg--1" vertex="1">
          <mxGeometry x="230" y="287" width="20" height="20" as="geometry" />
        </mxCell>
        <mxCell id="lZXBPZFwwAsZEzW5uLg--89" value="" style="verticalLabelPosition=bottom;verticalAlign=top;html=1;shape=mxgraph.basic.heart;fillColor=#f8cecc;strokeColor=#b85450;" parent="lZXBPZFwwAsZEzW5uLg--1" vertex="1">
          <mxGeometry x="230" y="287" width="20" height="20" as="geometry" />
        </mxCell>
        <mxCell id="lZXBPZFwwAsZEzW5uLg--90" value="" style="sketch=0;pointerEvents=1;shadow=0;dashed=0;html=1;strokeColor=none;fillColor=#505050;labelPosition=center;verticalLabelPosition=bottom;verticalAlign=top;outlineConnect=0;align=center;shape=mxgraph.office.concepts.home;" parent="lZXBPZFwwAsZEzW5uLg--1" vertex="1">
          <mxGeometry x="169.5" y="307" width="51" height="50" as="geometry" />
        </mxCell>
        <mxCell id="lZXBPZFwwAsZEzW5uLg--91" value="" style="rounded=0;whiteSpace=wrap;html=1;" parent="lZXBPZFwwAsZEzW5uLg--1" vertex="1">
          <mxGeometry x="140" y="391" width="110" height="80" as="geometry" />
        </mxCell>
        <mxCell id="lZXBPZFwwAsZEzW5uLg--92" value="&lt;font style=&quot;font-size: 10px;&quot;&gt;City, Province, Country&lt;/font&gt;" style="rounded=0;whiteSpace=wrap;html=1;" parent="lZXBPZFwwAsZEzW5uLg--1" vertex="1">
          <mxGeometry x="140" y="397" width="110" height="20" as="geometry" />
        </mxCell>
        <mxCell id="lZXBPZFwwAsZEzW5uLg--93" value="&lt;font style=&quot;font-size: 10px;&quot;&gt;Location&lt;/font&gt;" style="rounded=0;whiteSpace=wrap;html=1;" parent="lZXBPZFwwAsZEzW5uLg--1" vertex="1">
          <mxGeometry x="140" y="417" width="110" height="10" as="geometry" />
        </mxCell>
        <mxCell id="lZXBPZFwwAsZEzW5uLg--94" value="Description" style="rounded=0;whiteSpace=wrap;html=1;" parent="lZXBPZFwwAsZEzW5uLg--1" vertex="1">
          <mxGeometry x="140" y="447" width="110" height="24" as="geometry" />
        </mxCell>
        <mxCell id="lZXBPZFwwAsZEzW5uLg--95" value="&lt;font style=&quot;font-size: 8px;&quot;&gt;Nº Rooms -Square metres&lt;/font&gt;" style="rounded=0;whiteSpace=wrap;html=1;" parent="lZXBPZFwwAsZEzW5uLg--1" vertex="1">
          <mxGeometry x="140" y="427" width="110" height="20" as="geometry" />
        </mxCell>
        <mxCell id="lZXBPZFwwAsZEzW5uLg--96" value="&lt;font style=&quot;font-size: 8px;&quot;&gt;Shared&lt;/font&gt;" style="rounded=0;whiteSpace=wrap;html=1;" parent="lZXBPZFwwAsZEzW5uLg--1" vertex="1">
          <mxGeometry x="220" y="384" width="30.5" height="10" as="geometry" />
        </mxCell>
        <mxCell id="lZXBPZFwwAsZEzW5uLg--97" value="" style="triangle;whiteSpace=wrap;html=1;" parent="lZXBPZFwwAsZEzW5uLg--1" vertex="1">
          <mxGeometry x="240" y="337" width="10" height="10" as="geometry" />
        </mxCell>
        <mxCell id="lZXBPZFwwAsZEzW5uLg--98" value="" style="triangle;whiteSpace=wrap;html=1;rotation=-180;" parent="lZXBPZFwwAsZEzW5uLg--1" vertex="1">
          <mxGeometry x="140" y="337" width="10" height="10" as="geometry" />
        </mxCell>
        <mxCell id="lZXBPZFwwAsZEzW5uLg--99" value="" style="ellipse;whiteSpace=wrap;html=1;" parent="lZXBPZFwwAsZEzW5uLg--1" vertex="1">
          <mxGeometry x="160" y="367" width="10" height="10" as="geometry" />
        </mxCell>
        <mxCell id="lZXBPZFwwAsZEzW5uLg--100" value="" style="ellipse;whiteSpace=wrap;html=1;" parent="lZXBPZFwwAsZEzW5uLg--1" vertex="1">
          <mxGeometry x="180" y="367" width="10" height="10" as="geometry" />
        </mxCell>
        <mxCell id="lZXBPZFwwAsZEzW5uLg--101" value="" style="ellipse;whiteSpace=wrap;html=1;" parent="lZXBPZFwwAsZEzW5uLg--1" vertex="1">
          <mxGeometry x="200" y="367" width="10" height="10" as="geometry" />
        </mxCell>
        <mxCell id="lZXBPZFwwAsZEzW5uLg--102" value="" style="ellipse;whiteSpace=wrap;html=1;" parent="lZXBPZFwwAsZEzW5uLg--1" vertex="1">
          <mxGeometry x="220.5" y="367" width="10" height="10" as="geometry" />
        </mxCell>
        <mxCell id="lZXBPZFwwAsZEzW5uLg--103" value="" style="shape=image;verticalLabelPosition=bottom;labelBackgroundColor=default;verticalAlign=top;aspect=fixed;imageAspect=0;image=data:image/png,iVBORw0KGgoAAAANSUhEUgAAAjoAAAJSCAYAAADK72/3AAAABHNCSVQICAgIfAhkiAAAAAlwSFlzAAA2XwAANl8BwcvkVwAAABl0RVh0U29mdHdhcmUAd3d3Lmlua3NjYXBlLm9yZ5vuPBoAAAAddEVYdFRpdGxlAG15IHJlZCBjaGVjayBtYXJrIC0gcG5npftX4AAAIABJREFUeJzt3XmUpGV5v/HrHoYdRFFkERWjiCvIJqiACyIGd+ICAQFBFjEswRU0aNxNEEWNO2IAETRKDBqNgIoSBJQdyQ8hUZBFkEUYtoFh7t8f1QwzMN1dXV1V9/tWXZ9zOJIEuq/kBOY7z/N2vZGZSJIkzVZELAOsDjxmmj9WAeYCy07853R/3AL8YZI/rsvMhZM2OXQkSdJUIiKAdYH1gacAfwWswcMHzKOAGHLefcD5wDeBkzLzxsX/hw4dSZL0wJh5HA+OmfUX+/MnAyvW1XXtfuCLwHsy8y5w6EiSNFYiYmljZn3aM2a6cQWwQ2Ze6dCRJGlERcSywCbAVhN/vIDOldM4+A3wfIeOJEkjIiJWBLbmwWGzBbBSaVStg+ZWF0iSpN5FxOrAK4DXAtsDK9cWNcp2nuhIktQyEfEEOsPmtXROcDy4WLo/+38YSZJaICIeAewM7AVsXpzTFuHQkSSpwSLi+cBbgTfitdRM3ebQkSSpYSLiMcBudAbO04tz2uw6h44kSQ0REX8FvBvYA1i+tmYknObDyJIkFYuIZwKHAjsByxTnjJItHDqSJBWJiOcChwGvZvjviBp1NwDreHUlSdKQRcSWwEeAbatbRtjnMnOhJzqSJA1JRKwFfBJ4M57gDNI84AmZ+RdPdCRJGrCJd04dBBwOrFqcMw6+nJl/Ad9eLknSQEXEy4HPABtUt4yJe4EnZeZ14EdGS5I0EBHxZODTwKuqW8bMsQ+MHPBER5KkvoqIlen8JNU78LNwhm0h8LTMvOKB/4YnOpIk9UlE7Az8M/C46pYx9b3FRw54oiNJ0qxFxEbA5+i8SVw1EtgsM89f/L85pyhGkqTWi4hHR8QXgPNw5FQ7+qEjBzzRkSRpxiIigP3ofOjf6sU5gpuBDTLz5of+D3xGR5KkGYiIJwHfALYpTtGD3ru0kQOe6EiS1LWI2I/Ow8arVLdokbOB5+ckg8ahI0nSNCJiXeDrwHbVLVrC/cDmmXnBZH+BDyNLkjSFiNgDuBRHThN9YaqRA57oSJK0VBMv4PwKfrJxU91A5wHk26b6izzRkSTpISLiTXROcRw5zfXO6UYOeKIjSdIiEfEY4AvAG6pbNKUzMvNF3fyFDh1JkoCIeAVwNLBmdYumdB/wnMy8rJu/2KsrSdJYi4hlI+II4BQcOW3wj92OHPBER5I0xiJiPeBEYIvaEnXpV8DWmXl/t3+DQ0eSNJYi4nV0PhvnkdUt6sqddK6srpzJ3+TVlSRprETE8hHxOeB7OHLa5JCZjhzwREeSNEYi4inAScAm1S2akR9m5it7+RsdOpKksRARO9H5AMBVq1s0IzcBz87MP/XyN3t1JUkaaRM/VfVF4Fs4ctpo315HDsDcfpZIktQkEbEa8F1g2+oW9eRfM/N7s/kCXl1JkkZSRDwJ+CHw9OoW9eQqYMPMvH02X8SrK0nSyImILYGzceS01UJg99mOHHDoSJJGTES8AfgZ8NjqFvXsyMw8ox9fyKsrSdLIiIj3Ah8DorpFPbsU2Cwz5/fji3miI0kaCRFxGPBxHDltdi+wa79GDjh0JEkjICL2Aj5a3aFZOzwzL+rnF/TqSpLUahHxSDo/ofOI6hbNypnACzNzYT+/qCc6kqS22xtHTtvNA3br98gBh44kqcUiYg6wf3WHZu3gzPz9IL6wQ0eS1GavANarjtCsfD8zvz6oL+4zOpKkVoqIZYBfAZtXt6hnNwLPysw/D+obeKIjSWqrd+DIabu9BzlywBMdSVILRcQGwIXACtUt6tnXMnPvQX8Th44kqVUmHkA+E3hedYt6dgmwZWbeNehv5NWVJKltDsKR02bzgNcPY+SAJzqSpBaJiKfSubJasbpFPXtjZn5nWN/MEx1JUitExMrAd3HktNlRwxw54ImOJKklIuIk4I3VHerZ2cA2mXnfML+pJzqSpMaLiHfjyGmzm+hcWQ115IAnOpKkhouIlwI/BpapblFPFgJ/nZk/qfjmnuhIkhorItYDTsSR02Yfrho54ImOJKmhImJF4CzgOdUt6tlP6Jzm9P2t5N3yREeS1FRfwZHTZpfReS6nbOSAQ0eS1EARcRCwa3WHenYj8IrMvK06xKsrSVKjRMQLgdOAudUt6sk9wIsz8+zqEPBER5LUIBGxLvBtHDltlcBuTRk54NCRJDVERCwPfA94bHWLenbYsD/5eDoOHUlSU3wB2Lw6Qj37emZ+ojrioXxGR5JULiLeRmfoqJ1+Bmxf8cnH03HoSJJKRcTzgZ8DyxanqDdXAFtm5i3VIUvj0JEklYmItYHzgLWrW9STW+mMnN9Vh0zGZ3QkSSUmHj4+GUdOW90HvL7JIwccOpKkOl8BtqiOUM/enpk/rY6YjkNHkjR0EXEIsFt1h3p2ZGZ+tTqiGz6jI0kaqojYHvghvpG8rX4AvKb6HVbdcuhIkoYmIp4KnAM8srpFPbkYeEFm3lEd0i2HjiRpKCJiNeBs4GnVLerJDcBzM/Pq6pCZ8BkdSdLARcQc4AQcOW11D53rqlaNHHDoSJKG4+PADtUR6tlbMvOc6oheOHQkSQMVEbsA767uUM8+mJknVkf0ymd0JEkDExGbA78AVqhuUU++lZl/Wx0xGw4dSdJATLze4dfA46pb1JOzgRdn5j3VIbPh1ZUkqe8We72DI6edrgZe2/aRAw4dSdJgfBlf79BW84BXZuYN1SH94NCRJPXVxOsddq/uUE8WAjtn5iXVIf3iMzqSpL7x9Q6td0hmfro6op8cOpKkvoiI9YFz8fUObfXVzNynOqLfHDqSpFnz9Q6tdzbwwsy8tzqk33xGR5I0K77eofVuBF4/iiMHHDqSpNnz9Q7ttQB4Y2ZeWx0yKA4dSVLPfL1D6707M8+ojhgkn9GRJPXE1zu03omZuXN1xKA5dCRJM+brHVrvUmDLzLyzOmTQvLqSJM3IxOsdvocjp61uA143DiMHHDqSpJn7MrBldYR6ksCbM/PK6pBhcehIkroWEW/D1zu02Ucy85TqiGHyGR1JUlci4rnAL4HlqlvUkx/ReVnnwuqQYXLoSJKmFRGPBs4HnlDdop78H7BZZt5aHTJsXl1Jkqa02CcfO3La6W5gx3EcOeDQkSRN74PAy6oj1LN9MvOi6ogqXl1JkiYVETsAPwCiukU9+VxmHlgdUcmhI0laqohYDzgPWL22RD06E3hJZt5XHVLJoSNJepiJDwX8b2DT6hb15Hpgk8z8U3VINZ/RkSQtzedw5LTVfcAbHDkdDh1J0hIi4i3A3tUd6tkhmfnf1RFN4dWVJGmRiHgO8Ct8I3lbHZeZu1VHNIlDR5IEQEQ8ks7Dx39V3aKeXAg8PzPvrg5pEq+uJElERADH4shpq1vpfCigI+chHDqSJIBDgVdVR6gnC4G/zczfV4c0kUNHksZcRGwLfKi6Qz37YGb+uDqiqXxGR5LGWESsS+dlnWtUt6gnpwCvSX8xn5RDR5LGVEQsC/wC2LK6RT25Atg8M2+rDmkyr64kaXwdiSOnre6k8/CxI2caDh1JGkMRsTPwd9Ud6tlemXlpdUQbeHUlSWMmIp4JnAOsXN2inhyZme+ojmgLh44kjZGIWBX4NbBBdYt68nNgu8xcUB3SFl5dSdJ4+TqOnLa6FniTI2dmHDqSNCYi4hDg9dUd6sm9wN9k5o3VIW3j1ZUkjYGI2Br4KTC3ukU92S8zv1wd0UYOHUkacRGxFp0PBVy7ukU9OSYz96yOaCuHjiSNsIiYC5wGvLC6RT05D9gqM++pDmkrn9GRpNH2cRw5bXUznedyHDmz4ImOJI2oiNgR+G51h3qyEHh5Zp5aHdJ2nuhI0giKiKcCx1R3qGfvc+T0hyc6kjRiImIlOp98/KzqFvXk5MzcsTpiVHiiI0mj5ys4ctrqcmD36ohR4tCRpBESEfsDu1R3qCd3AK/LzHnVIaPEqytJGhERsQXwC2C56hb15PWZ6cPjfeaJjiSNgIh4NPAdHDlt9U+OnMHwREeSWi4iAvgBsEN1i3pyOrB9Zt5fHTKKPNGRpPZ7F46ctvojsJMjZ3A80ZGkFouIFwA/x5d1ttF8YOvM/HV1yCjzREeSWmriuZwTceS01d85cgbPoSNJLTTxXM5xwLrVLerJVzPza9UR48ChI0nt9B7gr6sj1JNzgQOqI8aFz+hIUstExFbAz/DKqo3+DGyamX+sDhkXnuhIUotExGPwuZy2up/OT1g5cobIoSNJLbHYczmPq25RT96bmT+tjhg3Dh1Jao/3Ai+vjlBPvpOZR1RHjCOf0ZGkFoiIrek8l7NMdYtm7DJgi8y8ozpkHDl0JKnhImIN4AK8smqj24HnZubl1SHjyqsrSWown8tptQR2d+TUcuhIUrMdCmxfHaGefDwz/706Ytx5dSVJDRUR2wA/xedy2ugHwGsyc2F1yLhz6EhSA008l3MhsE51i2bsQjov6/Th4wbw6kqSGiYi5gDH48hpo+uAVzpymsOhI0nNcxjwsuoIzdidwKsy89rqED3IqytJapCIeCFwOj6X0zYLgddl5n9Uh2hJnuhIUkNExGOBb+HIaaN3OXKayaEjSQ0w8VzON4G1q1s0Y1/KzCOrI7R0Dh1Jaob3AS+tjtCM/QQ4oDpCk/MZHUkqFhEvBk7FK6u2+S3w/My8vTpEk3PoSFKhiFiTzueurFXdohm5gc6LOq+qDtHUvLqSpCKLPZfjyGmXu+l86rEjpwUcOpJU5x+AbasjNCMPvKjznOoQdcerK0kqEBEvofNcjr/hbJfDMvPj1RHqnkNHkobM53Ja65jM3LM6QjPj0JGkIZp4LudU4CXVLZqRnwHbZ+Z91SGaGY9MJWm4DseR0za/A/7GkdNOnuhI0pBExLZ0PmDO32S2xy3Alpl5RXWIeuPQkaQhiIi16DyXs2Z1i7p2H7BdZp5RHaLe+bsKSRqwiedyTsCR0zb7OnLaz6EjSYP3AeDF1RGakU9m5jHVEZo9r64kaYAi4qXAf+FvLNvkZDoPH/sL5Ahw6EjSgETE2nSey3lsdYu6dh6wTWbeVR2i/vB3GJI0ABGxDJ3nchw57XEt8GpHzmhx6EjSYHwQeFFxg7p3J/CqzLyuOkT95dWVJPVZRGwH/Bh/M9kmO2bmydUR6j//IZSkPpp4Lud4/Pdrm/yLI2d0eaIjSX3ie6xa6bfAZpl5T3WIBsPfcUhS/xyGI6dN7gF2duSMNk90JKkPImIr4OfAMsUp6t6Bmfm56ggNlkNHkmYpIlan83k5j69uUdf+MzNfUR2hwfPqSpJm7+s4ctrkBuAt1REaDoeOJM1CRBwAvKa6Q11LYI/MvLE6RMPh1ZUk9SgiNgZ+BSxf3aKuHZWZB1dHaHgcOpLUg4hYBTgfWL+6RV27GHhuZs6vDtHweHUlSb35Io6cNrmbzo+SO3LGjENHkmYoInYHdq3u0Iy8MzMvq47Q8Hl1JUkzEBEbAOcBK1e3qGunZOarqyNUw6EjSV2KiOWBc4CNqlvUteuBDTPzpuoQ1fDqSpK6dySOnDZJYHdHznhz6EhSFyLidcD+1R2akSMz89TqCNXy6kqSphERTwQuAB5V3aKuXUTnR8nvrQ5RLU90JGkKETEX+BaOnDaZD+zqyBE4dCRpOh8CnlcdoRk5LDMvrY5QM3h1JUmTiIjtgP8CorpFXfsp8NL0FzdNcOhI0lJExJp0nvNYs7pFXfsLnR8l/2N1iJrDqytJeoiICOA4HDlt83ZHjh7KoSNJD/ceYLvqCM3IiZl5QnWEmserK0laTEQ8D/gFMLe6RV27hs6V1a3VIWoeT3QkaUJEPJLOj5I7ctojgT0cOZqMQ0eSHnQ08MTqCM3IUZl5enWEmsurK0kCImJ/4F+qOzQjvwU2y8x7qkPUXA4dSWMvIjYCzgZWqG5R1+4FtsjMC6tD1GxeXUkaaxGxMnAijpy2OdyRo244dCSNu88DT6uO0Iz8Evjn6gi1g1dXksZWROxK54MB1R63Axtl5h+qQ9QODh1JYyki1gfOB1apblHXEvibzDy5OkTt4dWVpLETEcsBJ+HIaZtPOnI0Uw4dSePon4GNqyM0I6cD76+OUPt4dSVprETEq4HvV3doRv4IbJKZN1WHqH0cOpLGRkQ8HrgQWL26RV2bD2yTmedWh6idvLqSNBYiYhngBBw5bXOgI0ez4dCRNC4+CGxVHaEZOSYzv1IdoXbz6krSyIuIlwCn4m/u2uQ8YCvfY6XZcuhIGmkRsQZwEbB2dYu6dh3w3My8tjpE7efvbiSNrIgI4FgcOW1yN/AaR476xaEjaZS9E3h5dYS6lsDumfmb6hCNDq+uJI2kiHgucCawbHWLuvaBzPxQdYRGi0NH0siJiNWAC4AnVbeoaydm5s7VERo9Xl1JGkVfxpHTJucCb6mO0Ghy6EgaKRHxFuBN1R3q2jXAa/0xcg2KV1eSRkZEPBU4H1i5ukVduYvOZ+VcUB2i0eWJjqSREBHLAd/CkdMWCbzZkaNBc+hIGhUfAzapjlDX3p+Z36uO0Ojz6kpS60XEy4AfA1Hdoq58MzN3rY7QeHDoSGq1iVc8XAysVd2irvwKeHFmzq8O0Xjw6kpS230DR05bXA28zpGjYXLoSGqtiDgI2KG6Q125G3h1Zt5QHaLx4tWVpFaKiI2Ac4Dlq1vUlT0z85jqCI0fT3QktU5ErETnR8kdOe1wjCNHVRw6ktro08DTqyPUlUuAt1dHaHx5dSWpVSJiR+C71R3qyjxgs8z8XXWIxpcnOpJaIyIeD3ytukNd29uRo2oOHUmtEBFzgOOBR1W3qCv/kpknVUdIDh1JbfE+YJvqCHXlN8Ah1RES+IyOpBaIiOcBvwDmVrdoWrcCm2TmH6pDJPBER1LDRcRqwAk4ctoggT0cOWoSh46kpvsSsF51hLpyRGb+R3WEtDivriQ1VkTsAfhBc+1wJp2XdS6oDpEW59CR1EgRsT5wPrBKdYum9Wdg48y8tjpEeiivriQ1TkQsS+cVD46c5lsI7OLIUVM5dCQ10UeBTasj1JUPZ+ap1RHSZLy6ktQoEbEd8F9AVLdoWqcB22fmwuoQaTIOHUmNERFrABcDa1W3aFrX0Xku58bqEGkqXl1JapJjcOS0wQJgJ0eO2sChI6kRIuJA4BXVHerK+zLzl9URUje8upJULiI2BM4Flq9u0bROAV6T/uKhlnDoSCoVESvSeQnkM6pbNK0/0HmP1a3VIVK3vLqSVO3TOHLa4F7gjY4ctY1DR1KZiHgdsG91h7ryjsz8dXWENFNeXUkqERHrAhcBq1e3aFrfzsw3VUdIvXDoSBq6iJgD/BR4YXWLpvU7YLPMnFcdIvXCqytJFQ7FkdMGdwNvcOSozTzRkTRUEbEl8EtgbnWLprVXZn69OkKaDYeOpKGJiEcAFwJPqm7RtL6RmW+pjpBmy6srScP0JRw5bXApsH91hNQPDh1JQxERuwM7V3doWnfR+bycu6tDpH5w6EgauIh4CvD56g515aDM/J/qCKlffEZH0kBFxLLAWcBm1S2alp+Xo5HjiY6kQfsIjpw2+AOwT3WE1G+e6EgamIh4KfATIKpbNKUFwNaZeXZ1iNRvnuhIGoiIeDTwrzhy2uAfHDkaVZ7oSBqIiPgusGN1h6Z1GvCy9BcDjSiHjqS+i4i3AH6ibvP9GdgwM/9UHSINikNHUl9FxJPpfPrxKtUtmlICr8jMH1WHSIPkMzqS+iYilgGOw5HTBp925GgcOHQk9dP7gOdVR2ha59F5g7w08ry6ktQXEbEFcCa+lbzp5gGbZOaV1SHSMHiiI2nWImJl4HgcOW2wvyNH48ShI6kfPgM8pTpC0zouM4+vjpCGyasrSbMSEa8FTq7u0LSuoHNldUd1iDRMDh1JPYuItYBLgMdUt2hK9wLPy8zzq0OkYfPqStJsHIMjpw3e68jRuHLoSOpJRBwAvLy6Q9P6TzrPUEljyasrSTMWEc+g81ksK1S3aErXAxtl5p+rQ6QqnuhImpGIWA74Jo6cplsIvNmRo3Hn0JE0Ux8BnlMdoWl9MjNPr46Qqnl1JalrEfEi4HT8TVLT/QrYJjMXVIdI1Rw6kroSEY8ELgYeX92iKd0GPCcz/1AdIjWBvyuT1K0v4shpg70dOdKDHDqSphURuwA7VXdoWl/NzO9UR0hN4tWVpClFxBOBi4DVqls0pcuAzTPzruoQqUk80ZE0qYiYAxyLI6fp7gF2cuRID+fQkTSVdwPbVEdoWu/IzEuqI6Qm8upK0lJFxCbA2cCy1S2a0r9n5uuqI6SmcuhIepiIWBE4H3hadYum9Ec6P0p+S3WI1FReXUlamiNw5DTd/cAujhxpag4dSUuIiB2A/as7NK0PZeYvqyOkpvPqStIiEbEGcAmwZnWLpvQL4CWZeX91iNR0nuhIWtzXcOQ03S10rqwcOVIXHDqSAIiIfYBXV3doWntm5jXVEVJbeHUliYhYH7gAWLm6RVP6fGYeUB0htYlDRxpzETEXOAvYvLpFU7oI2CIz51eHSG3i1ZWkD+DIabq76LziwZEjzZAnOtIYi4gXAGcAy1S3aEpvzcyjqyOkNnLoSGMqIlalcx3ypOoWTemkzNypOkJqK6+upPH1ORw5Tfd7YJ/qCKnNHDrSGIqI1wO7V3doSguAnTPz9uoQqc0cOtKYiYjHAV+u7tC03p+Z51RHSG3nMzrSmImIHwPbV3doSqcBL0v/BS3Nmic60hiJiH1x5DTdjcCbHTlSf3iiI42JiHgScDGwSnWLJpXADpn54+oQaVR4oiONgYgI4BgcOU13pCNH6i+HjjQeDgJeWB2hKf0GOLQ6Qho1Xl1JIy4iNqDzws4Vq1s0qXnAJpl5ZXWINGo80ZFGWEQsA3wDR07Tvc2RIw2GQ0cabe8CtqyO0JSOzcxvVkdIo8qrK2lERcSz6Tz3sVx1iyb1O2DTzLyjOkQaVZ7oSCMoIpYF/hVHTpPdS+cVD44caYAcOtJoej+wcXWEpvSezDy/OkIadV5dSSMmIjYFzgbmVrdoUj/MzFdWR0jjwKEjjZCIWB44H3hGdYsmdT2wYWbeVB0ijQOvrqTR8mEcOU22ENjVkSMNj0NHGhER8XzgHdUdmtInMvOn1RHSOPHqShoBEbEScBHwlOoWTepXwDaZuaA6RBonnuhIo+GTOHKa7C90fpTckSMNmUNHarmIeAnw9uoOTWnvzLyqOkIaR15dSS0WEasClwBPrG7RpL6SmftWR0jjyhMdqd2OxJHTZJcBB1dHSOPMEx2ppSLir4H/rO7QpO4BNs/MS6tDpHHmiY7UQhHxKOBr1R2a0iGOHKmeQ0dqp88B61RHaFInZ+YXqyMkeXUltU5E7Ah8t7pDk/ojsFFm3lodIsmhI7VKRKwB/BZYo7pFS3U/8KLMPLM6RFKHV1dSu3wJR06T/aMjR2oWT3SkloiIXYDjqzs0qTOAl2TmwuoQSQ9y6EgtEBHrAJcCj6pu0VLdTOe5nGurQyQtyasrqR2+iiOnyfZ05EjN5NCRGi4i9gJ2qO7QpD6Xmf9RHSFp6by6khosItYG/gdYrbpFS3URsEVmzq8OkbR0nuhIzfZpHDlNdSewkyNHajaHjtRQEfEy4E3VHZrUgZn5/6ojJE3NqyupgSJiBTo/ZfXk6hYt1YmZuXN1hKTpeaIjNdNhOHKa6v+AfasjJHXHEx2pYSJiA+BiYLnqFj3MfcBWmXludYik7niiIzXPF3HkNNX7HTlSu3iiIzVIROwKHFfdoaU6Fdg+/Zem1CoOHakhIuJRwP8DHlvdooe5EdgwM2+oDpE0M15dSc3xcRw5TbWHI0dqJ090pAaIiC2Bs4CobtHDfD4zD6iOkNQbh45ULCLmAr8BNqpu0cNcBmyWmXdXh0jqjVdXUr2DcOQ00b3ALo4cqd080ZEKRcTj6ZwarFLdood5V2YeUR0haXY80ZFqfRZHThP9DPhUdYSk2fNERyoSEa8C/qO6Qw9zK50fJb+mOkTS7HmiIxWIiJWAz1V3aKn2c+RIo8OhI9X4APDE6gg9zLGZ+e3qCEn949WVNGQR8SzgAmBudYuW8Htgo8ycVx0iqX880ZGG7/M4cprmfmBXR440ehw60hBFxBuBF1Z36GE+lplnVUdI6j+vrqQhiYgV6by08wnVLVrCOcBWmbmgOkRS/3miIw3Pe3DkNM0ddK6sHDnSiPJERxqCiHgi8D/AitUtWsJbM/Po6ghJg+OJjjQcR+DIaZqTHTnS6PNERxqwiHgx8NPqDi3hOjqffnxzdYikwfJERxqgiFgGOKq6Q0tIYA9HjjQeHDrSYO0HPLs6Qks4KjNPrY6QNBxeXUkDEhGPBn4HrF7dokUuATbPzPnVIZKGwxMdaXA+jCOnSeYDuzhypPHi0JEGICKeC+xT3aElvDczL6mOkDRcXl1JfRYRq9B5aedTqlu0yKnA9um/8KSx44mO1H+fwZHTJDfT+SkrR440hnyD8kNExErACnRG4DIT//nAny8Abs3Mu+sK1WQRsSOwV3WHlrB3Zl5XHSGpxthdXUVEAOsAfwU8eeKPxf/8MV18mfnAX4BbgT8BvwLOAM7KzHkDyFYLRMQ6wMXAo6tbtMjRmfnW6ghJdUZ+6ETEqsDLgVcBm9IZNSsM6NvdD/wa+ERmfn9A30MNNDGgfwK8tLpFi1wJbJyZd1SHSKozkkMnIp5AZ9i8GngRsFxBxlnAezLzzILvrSGLiEOAT1V3aJEFwFaZeU51iKRaIzF0Jn43vRkPjpuNaouW8AXg73wQcnRFxIbAucDy1S1a5PDM/HB1hKR6rR46EbERnY/Yfw2wdnHOVL4B7JWZC6tD1F8RsQLwG+CZ1S1a5Cxgm8y8vzpEUr3W/dRVRMyhc2pzEJ1rqTbYA1guInbzX74j5+M4cppkHrCr/5xJekBrhk5ErAbsCRwAPKk4pxd/C9wF7F0dov6IiG3pDG41x99l5u/hlpj8AAAYJ0lEQVSrIyQ1R+OvriJifeBAOqciq9TW9MXrM/O71RGanYh4JJ0XRK5b3aJFvp2Zb6qOkNQsjR06EbEdcDDw10AU5/TTzcCGfoBZu0XECcDO1R1a5Bo6/1zdWh0iqVka9wqIiNg2Is6n85kkOzBaIwc6HyZ3zMRPiqmFImInHDlNksDujhxJS9OYoRMRT4+IHwCnARtX9wzYy4C3V0do5iJiXTofGaDm+FRm/rQ6QlIzlV9dRcRjgX+k85DuMqUxw3UL8FeZeVt1iLrjpx830oXAFpl5b3WIpGYqO9GJiBUi4lA6H9O+H+M1cgBWB95RHaEZORBHTpPcDeziyJE0laGf6Ez8rngX4GPA44f6zZvnDjqnOn+uDtHUIuIZwHkM7j1pmrkDMvPz1RGSmm2oJzoRsQ2dl14ehyMHOj8u/97qCE0tIpYFjseR0yQ/cuRI6sZQTnQiYiXgn/AB3KW5B1g/M6+pDtHSRcTHgEOrO7TIn4FnZ+YN1SGSmm/gJzoRsTlwPo6cyawA/EN1hJYuIl4AvKe6Q0vYy5EjqVsDO9GJiLnAYXR+EW/NqyaKLACenplXVofoQRGxKnAR7XzlyKj6cmbuVx0hqT0GcqIz8dqGM+n82LgjZ3pz6fzfSs3yGRw5TXI5cEh1hKR26fuJTkTsB3wKWKmvX3j0LQQ2ysxLq0MEEfFa4OTqDi1yH/C8zDyvOkRSu/TtRCci1oqI/wS+iCOnF3OAj1RHCCJiTeAr1R1awgccOZJ60ZcTnYh4GXACnfc4aXa2yMxzqyPGWUScAryyukOL/AJ4cWYurA6R1D6zPtGJiD2BH+LI6ZePVQeMs4jYBUdOk9wG7ObIkdSrWQ2diPggcDQ+cNxP20bEi6sjxlFErEHnAWQ1x/6ZeVV1hKT26mnoRMSyEXEM8IE+96jjo9UBY+oo4DHVEVrkhMw8oTpCUrvN+Bmdic8W+S6w3UCK9IAXZeYZ1RHjIiJeCZxS3aFFrgY2zMzbqkMktduMTnQiYh3glzhyhuHd1QHjIiIeQeenBdUMC4E3O3Ik9UPXQycingWcDWw0uBwtZoeIeHZ1xJj4JLBudYQW+WRm/qI6QtJo6OrqauJ9VacCqw28SIs7LjN3q44YZRGxDfBzIIpT1HEenQ8GvK86RNJomHboRMTjgF8Daw+lSItbADw5M6+uDhlFEbECnXdZPbW6RQDcBWySmZdXh0gaHVNeXUXEisD3ceRUmQv8fXXECPsAjpwmOcSRI6nfJj3RiYgATgLeMNQiPdSdwBMy85bqkFESERsD5+JnQDXFKZn56uoISaNnqhOdD+DIaYKVgf2rI0ZJRMzFD7pskhuAvaojJI2mpQ6diHgjcPiQWzS5AyeuEdUf7wQ2ro7QIm/JzD9XR0gaTQ8bOhGxKfAN/CmUJlkD2KM6YhRExFPxE72b5F8y80fVEZJG1xLP6ETEI4FLgceVFWky/wtskJn3V4e01cRzZ2cAW1e3CIDLgM0y8+7qEEmj66EnOh/EkdNUTwb+pjqi5fbDkdMU9wK7OHIkDdqiE52IeDpwMT6g2WTnZeZm1RFtFBHr0jlBWLW6RQC8OzP/uTpC0uhb/ETn0zhymm7TiNi2OqKlvoQjpyl+BhxRHSFpPERmPvAeq0uqY9SVUzPzZdURbRIROwMnVHcIgFvpvJX8muoQSePhgROdPSojNCPbTXzYnboQEY8BPlvdoUX2c+RIGqY5Ex+etmt1iGbk3dUBLXIU8JjqCAFwbGZ+uzpC0ngJ4AXAmdUhmpH7gfUz8/fVIU0WETsAP6zuEAC/BzbKzHnVIZLGyxzg6dURmrFlgHdURzRZRKxK5wFk1bsf2NWRI6nCHOBp1RHqyZ4Tz59o6T4BPL46QgB8LDPPqo6QNJ4cOu21InBAdUQTRcTWwNuqOwR03hD/oeoISeMrgCuAp1SHqCc3A0/IzLuqQ5oiIlYALgQ2qG4RdwAbZ+aV1SGSxtccYJXqCPXs0cBbqyMa5nAcOU1xsCNHUrUArgXWqQ5Rz64CnpKZC6pDqkXEc4Bf4yd8N8HJmbljdYQkzQFy2r9KTfZE4A3VEdUmPg/qaBw5TXA9sHd1hCRBZ+gsrI7QrB1UHdAA7wA2qY4QCeyemTdXh0gSeKIzKraIiOdWR1SJiPWBD1Z3CICjMvPU6ghJesAcYOyf7RgRB1YHVIiIAL4GrFDdIi4B3lsdIUmLm0PnYWS13xsiYq3qiAL7AttUR4j5wC6ZOb86RJIWN4fOO2jUfssB+1VHDFNEPAH4ZHWHAHhvZl5SHSFJD+XQGS37RcRy1RFD9DXgEdUR4lQ6b4mXpMZx6IyWNYE3VkcMQ0TsA2xX3SFuBvbITH+oQVIjzQH+UB2hvhr5h5Ij4onAEdUdAmCfzLyuOkKSJuOJzujZPCK2rI4YlImfsjoaWLW6RRydmd+rjpCkqcwBrgHuqw5RX43yqc6+wLbVEeJ/gYOrIyRpOpGZRMRvgWdUx6hv7gPWG7UrhYhYj85ntfgi2loLgRdm5pnVIZI0nTkT//mb0gr127KM2I+aT1xZfR1HThMc6ciR1BYOndG1b0QsXx3RR28DXlwdIS4D3l8dIUndcuiMrscCb6qO6IeIeBLwT9UdYgGwm59+LKlNHhg6F+I7r0ZR6x9KXuzKauXqFvGxzDyvOkKSZmIOQGbeTedIWqNl04h4QXXELL0deFF1hDgf+Eh1hCTN1JzF/vzXZRUapNae6kTEk4FPVHeI+cDumenHUEhqncWHjs/pjKYdI+Jx1REz5ZVVoxyemZdWR0hSLxw6o28usH91RA8OALapjhBn4es2JLVYPPAuvom3Xs8Dxunt1+PiJuDxmXlPdUg3IuIpwEXAStUtY+4u4DmZeUV1iCT1atGJTmbeC5xb2KLBeQywc3VENyJiDp0rK0dOvfc4ciS13ZyH/NenlVRoGNryUPJhwNbVEeJ04F+qIyRpthZdXQFM/CiyH+0+urbJzF9WR0wmIl5I5xfYZapbxtztwLMz8+rqEEmarYee6JxD5zkdjabGnupExGOBb+HIaYKDHTmSRsUSQyczFwBnFLVo8HaceNC3USaeyzkeWLu6RfwgM4+pjpCkfnnoiQ74nM4omwO8qzpiKd4HbFcdIW4G9q6OkKR+WuIZHYCIeAbw25ocDcF84EmZeX11CEBEvIjOuPbKqt5OmXlSdYQk9dPDTnQy8zKgEb8IaiCWB/6+OgIWPZdzAo6cJvi2I0fSKFra1RV4fTXq9ouIR1YGTDyX8018LqcJ/kQ7Pz1bkqbl0BlPq1L/C9v7gZcWN6hjn8y8uTpCkgbhYc/oAETEOsC1w8/REN0IrJeZdw/7G0fEi+mM6cmGtobnmMzcszpCkgZlqb/QZOZ1wP8MuUXD9Vhg6L/ARcSadJ7LceTUuxo4uDpCkgZpql9svL4afe+MiLnD+maLPZez1rC+pyaVwJ6ZeXt1iCQNkkNnvK0HHDDE7/cPwLZD/H6a3Bcy8/TqCEkatKU+owMQEY+g8wFiQ/sdv0rcATwjM/84yG8SEdsCP8Erqya4EtgoM++qDpGkQZv0F52JI+1zh9iiGqsAnx3kN4iIZwL/hiOnCRYCuztyJI2L6X7h8fpqPLw2Il49iC8cEesCPwZKP7dHixyRmWdVR0jSsEx6dQUQEVsDvxhejgpdTecK685+fcGJDyU8E3hmv76mZuW3wKaZOb86RJKGZboTnbPpPMOh0fcE4B/79cUiYnng+zhymmIBsJsjR9K4mXLoZOZ9eKIzTg6OiI1m+0Umfoz8eGCb2SepTz6SmedXR0jSsHXzcKjP6YyPZYCvTpzGzMZngNf3oUf9cR7w0eoISarQzdA5deAVapLNgWMjInr5myPiPQz3s3k0tQXAXpm5oDpEkipMO3Qy81I6bzfW+HgjcMRM/6aI2BX4eP9zNAufycyLqiMkqUq3n2viJ6iOn0Mi4qBu/+KI2A74OtDTSZAG4irgg9URklSp26Hjczrj6ciImPZZm4h4LXAysOzgkzQDb+/nxwVIUhs5dDSVOcBxEfHSyf6CiWdyvgesPLQqdeM7mfnD6ghJqtbV0MnMa4DLB9yiZloB+K+I+HhELDqxiYg1I+JY4BN4XdU0twFdXztK0iib8pORl/gLIz4PvH2wOWq46+i8mHMF4G/wqqqp3p6ZX6iOkKQmmMnQeTWdT7qV1FznAM/PzIXVIZLUBDMZOisDN9H53byk5llA511WF1eHSFJTdPswMhM/vfHTAbZImp0jHTmStKSuh86EUwZSIWm2/kAfX8oqSaNipkPnBwOpkDRb+2fmXdURktQ0Mxo6Ez9mfsGAWiT15tuZ+aPqCElqopme6IDXV1KT+Jk5kjQFh47Ubu/NTF+6K0mT6PrHyxf9DREBXAusPZAiSd36FfCCnOk/xJI0RmZ8ojPxL1UfSpZqLQD2deRI0tR6uboCr6+kap/KzEuqIySp6WZ8dQUQESvR+ZTkFfteJGk61wNPzcw7qkMkqel6OtGZ+LyO0/vcIqk7hzpyJKk7vV5dgddXUoXfAMdWR0hSW/R0dQUQEesA1wDR1yJJU9kqM/+7OkKS2qLnE53MvA44v48tkqZ2oiNHkmZmNldX4PWVNCx3A++pjpCktnHoSO1wRGZeXR0hSW3T8zM6i75AxDXA4/qTI2kprgU2yMw7q0MkqW1me6IDfkqyNGiHOnIkqTf9GDpeX0mDcy5wfHWEJLVVP66uVgBuBlbqS5GkByyg89LOc6tDJKmtZn2ik5n3AKf1oUXSkg535EjS7PTj6gq8vpL67SfAJ6ojJKntZn11BRARa9P5yRA/JVmaveuB52TmjdUhktR2fTnRyczr6byDR9LsLAR2ceRIUn/06+oKvL6S+uHDmfmz6ghJGhV9uboCiIjnABf05YtJ4+nnwLaZubA6RJJGRd+GDkBEXA08vm9fUBofNwEbTbwsV5LUJ/28ugI/JVnq1Z6OHEnqv34PHZ/TkWbus5npPzuSNAD9vrpans6nJK/cty8qjbYLgS0zc351iCSNor6e6Ez8y/rUfn5NaYTdCezkyJGkwen31RV4fSV164DMvLw6QpJGWV+vrgAiYk06n+zqpyRLkzsxM3eujpCkUdf3oQMQEWcDW/T9C0uj4f+AjTPz9uoQSRp1g7i6Aq+vpMncB+zsyJGk4XDoSMP1D5l5bnWEJI2LgVxdAUTEH4AnDuSLS+10KrB9DuofOknSwwzqRAf8lGRpcTcCuzlyJGm4Bjl0vL6SOhLYPTP/VB0iSeNmkEPnZ8AdA/z6UlscmZk/ro6QpHE0sKGTmfcCPxnU15da4jzgsOoISRpXgzzRAa+vNN7m0XnFw73VIZI0rgY9dH4I3D/g7yE11d9n5pXVEZI0zgY6dDLzz8CZg/weUkP9KDOPro6QpHE36BMdgO8N4XtITXIr8NbqCEnScIbOyXR+vFYaFwdm5nXVEZKkIQydzPwj8OtBfx+pIU7OzOOrIyRJHcM40QGvrzQebgL2q46QJD3IoSP1z9sy88bqCEnSg4YydDLzCuCSYXwvqciJmflv1RGSpCUN60QHPNXR6PoT8PbqCEnSwzl0pNnbJzNvqY6QJD3c0IZOZl4M+CmxGjXfyExfdSJJDTXMEx3wVEej5Rrg4OoISdLkHDpS7/bKzNuqIyRJkxv20DkXuHbI31MahC9l5k+qIyRJUxvq0MnMpPNKCKnNfg+8qzpCkjS9YZ/oAHy34HtK/ZLAWzLzjuoQSdL0KobOL+l8VL7URp/NzDOqIyRJ3Rn60MnM+4HvD/v7Sn3wO+DQ6ghJUvcqTnTA6yu1z/3A7pl5d3WIJKl7VUPndOD2ou8t9eKIzDy7OkKSNDMlQycz7wV+UPG9pR78FvhAdYQkaeaqTnTADw9UOywAdsvM+dUhkqSZqxw6PwJ83kFN99HMPL86QpLUm7Khk5l3AT+u+v5SFy4APlodIUnqXeWJDnh9pea6l85PWd1XHSJJ6l310DkF8BcSNdEHM/OS6ghJ0uyUDp2JNz+fVtkgLcU5wD9VR0iSZq/6RAfg+OoAaTF307myur86RJI0e00YOv8OzKuOkCa8LzMvr46QJPVH+dCZ+Omrf6vukOi8cPao6ghJUv+UD50J/1odoLF3J7BHZi6sDpEk9U9Ths4vgKuqIzTW3pWZ/1cdIUnqr0YMncxM4LjqDo2t04AvVUdIkvovOhujXkSsD/yuukNj53bg2Zl5dXWIJKn/GnGiA5CZVwBnV3do7Py9I0eSRldjhs4EH0rWMP0gM79eHSFJGpzGXF0BRMSjgOuB5atbNPJuAp6VmTdUh0iSBqdRJzqZeSvwg+oOjYV9HDmSNPoaNXQmHFsdoJH3jcw8uTpCkjR4jbq6AoiIZYFrgTWqWzSSrgI2zMzbq0MkSYPXuBOdzLwP+FZ1h0bSQjov7HTkSNKYaNzQmeD1lQbhyMw8ozpCkjQ8jbu6ekBE/BZ4RnWHRsYlwOaZOb86RJI0PE090QFPddQ/9wJvduRI0vhp8tA5ns4zFdJsHZ6ZF1VHSJKGr7FXVwAR8RNgu+oOtdovgRdlpqNZksZQk090wFdCaHbm0fkpK0eOJI2ppg+d7wB/qo5Qax2cmb+vjpAk1Wn00MnMe4HPV3eolb7vCzslSY1+RgcgIlYH/gisVN2i1rgReHZm3lgdIkmq1egTHYDMvAX4RnWHWmVvR44kCVpwogMQEU8BLqcFw0zljs7Mt1ZHSJKaoRVDByAiTgZeW92hRvs9sFFmzqsOkSQ1Q5tOSD5VHaBGWwjs5siRJC2uNUMnM88Ezq3uUGP988T/j0iStEhrhs4ET3W0NBcBh1dHSJKapzXP6ABExDLAlcB6xSlqjvnAZpl5aXWIJKl5WnWik5n3A0dVd6hR3ufIkSRNplUnOgARsSqdDxBcrbpF5c4AXuK7rCRJk2nViQ7AxE/VfKW6Q+Vuxxd2SpKm0bqhM+GzwILqCJU6MDOvqo6QJDVbK4dOZl4DnFTdoTLfy8x/rY6QJDVf657ReUBEbAycB0R1i4bqBuBZmXlTdYgkqflaeaIDkJkXACdWd2jo9nLkSJK61doTHYCIeAKdl32uUN2iofhKZu5bHSFJao/WnugAZObVwJHVHRqK/wUOqY6QJLVLq090ACJiFeAKYK3qFg3M/cDWmfmr6hBJUru0+kQHIDPvAN5f3aGB+qQjR5LUi9af6ABExBzgfGCj6hb13QXAFpl5X3WIJKl9Wn+iAzDx6bjvqO5Q390D7OrIkST1aiSGDkBmng6cUt2hvjo0My+rjpAktddIXF09ICI2AC4Blq1u0az9EHhVjtL/g0qShm5kTnQAMvNy4IvVHZq1q4DdHDmSpNkaqRMdgIhYHbgSeFR1i3pyL50fJT+3OkSS1H4jdaIDkJm3AB+q7lDP3unIkST1y8id6ABExLLAb4H1q1s0I9/OzDdVR0iSRsfInegATPw48sHVHZqR3wFvrY6QJI2WkRw6AJn5n8B3qjvUlbuB12fmvOoQSdJoGdmhM+Eg4LbqCE1r/8y8pDpCkjR6RnroZOb1wGHVHZrS1zPzG9URkqTRNJIPIy9u4j1YZwFbVLfoYS4GtszMu6tDJEmjaeSHDkBEbAicB8ytbtEi84BNM/OK6hBJ0uga6aurB2TmxcCnqzu0SAJvceRIkgZtLE50ACJiJTqfrbNecYrg4Mw8qjpCkjT6xuJEByAz7wL2r+4QH3HkSJKGZWxOdB4QEScBb6zuGFNfzEzHpiRpaMZx6KwN/A+wWnXLmDkJ+NvMXFgdIkkaH2NzdfWAic/WObS6Y8z8F/BmR44kadjGbuhM+BJwdnXEGPhfYC/glRPvH5MkaajG7urqARHxbOA3wHLVLSPocuCjwAmZeX91jCRpfI3riQ4T71Z6GnA04GnD7CWdT6D+W+AZmXmcI0eSVG1sT3QWFxHrAC8HtgO2BdaoLWqVc+g8aPxvmfnH6hhJkhbn0HmIiAhgIzqjZytgQ/yQwcUtpHPl9x3gO5l5VXGPJEmTcuh0ISJWA55NZwBtOPGfzwJWruwakjvoPLh9FvDfwNmZeXttkiRJ3XHo9GjirehP5sHhsyEPnv5EXdmszAOuAC6jM27+G7jEZ20kSW3l0OmziHgES57+PBNYF1gbWL4w7QHzgavo/GTU7xb74/KJzxiSJGlkOHSGZOLZn0cDj1vKH48FVpz4Y4VJ/nx5Oj8dNn8pf9y72J/fAtwA3Djxn0v8kZl/Gfj/spIkNcT/B+UL4fgm2GKcAAAAAElFTkSuQmCC;" parent="lZXBPZFwwAsZEzW5uLg--1" vertex="1">
          <mxGeometry x="240.39999999999998" y="397" width="9.6" height="10" as="geometry" />
        </mxCell>
        <mxCell id="lZXBPZFwwAsZEzW5uLg--104" value="&lt;font style=&quot;font-size: 8px;&quot;&gt;Status&lt;/font&gt;" style="rounded=0;whiteSpace=wrap;html=1;" parent="lZXBPZFwwAsZEzW5uLg--1" vertex="1">
          <mxGeometry x="140" y="384" width="40" height="10" as="geometry" />
        </mxCell>
        <mxCell id="lZXBPZFwwAsZEzW5uLg--105" value="&lt;font style=&quot;font-size: 8px;&quot;&gt;Status&lt;/font&gt;" style="rounded=0;whiteSpace=wrap;html=1;" parent="lZXBPZFwwAsZEzW5uLg--1" vertex="1">
          <mxGeometry x="180" y="384" width="40" height="10" as="geometry" />
        </mxCell>
        <mxCell id="XalKHoUyrHGwoqLX_8tb-0" value="" style="ellipse;whiteSpace=wrap;html=1;aspect=fixed;" vertex="1" parent="lZXBPZFwwAsZEzW5uLg--1">
          <mxGeometry x="530.5" y="100" width="30" height="30" as="geometry" />
        </mxCell>
        <mxCell id="XalKHoUyrHGwoqLX_8tb-1" value="" style="html=1;verticalLabelPosition=bottom;align=center;labelBackgroundColor=#ffffff;verticalAlign=top;strokeWidth=2;strokeColor=#0080F0;shadow=0;dashed=0;shape=mxgraph.ios7.icons.shopping_cart;" vertex="1" parent="lZXBPZFwwAsZEzW5uLg--1">
          <mxGeometry x="535" y="110" width="20" height="14.5" as="geometry" />
        </mxCell>
        <mxCell id="0_dqBrtTxoHJ5iE3vfGE-0" value="" style="rounded=0;whiteSpace=wrap;html=1;fillColor=#dae8fc;opacity=70;strokeColor=#6c8ebf;" parent="lZXBPZFwwAsZEzW5uLg--1" vertex="1">
          <mxGeometry x="90" y="90" width="620" height="940" as="geometry" />
        </mxCell>
        <mxCell id="0_dqBrtTxoHJ5iE3vfGE-1" value="" style="rounded=0;whiteSpace=wrap;html=1;" parent="lZXBPZFwwAsZEzW5uLg--1" vertex="1">
          <mxGeometry x="234" y="337" width="321" height="303" as="geometry" />
        </mxCell>
        <mxCell id="0_dqBrtTxoHJ5iE3vfGE-2" value="What type of post would you like to create?" style="text;html=1;strokeColor=none;fillColor=none;align=center;verticalAlign=middle;whiteSpace=wrap;rounded=0;" parent="lZXBPZFwwAsZEzW5uLg--1" vertex="1">
          <mxGeometry x="326.5" y="364" width="136" height="30" as="geometry" />
        </mxCell>
        <mxCell id="0_dqBrtTxoHJ5iE3vfGE-3" value="Create a Building post" style="rounded=1;whiteSpace=wrap;html=1;" parent="lZXBPZFwwAsZEzW5uLg--1" vertex="1">
          <mxGeometry x="314" y="427" width="161" height="60" as="geometry" />
        </mxCell>
        <mxCell id="0_dqBrtTxoHJ5iE3vfGE-4" value="Create a Person post" style="rounded=1;whiteSpace=wrap;html=1;" parent="lZXBPZFwwAsZEzW5uLg--1" vertex="1">
          <mxGeometry x="314" y="520" width="161" height="60" as="geometry" />
        </mxCell>
      </root>
    </mxGraphModel>
  </diagram>
</mxfile>
